<?xml version="1.0" encoding="UTF-8"?>
<svg xmlns="http://www.w3.org/2000/svg" width="350" height="500" viewBox="0 0 350 500">
  <style>
    .worldline { stroke: #2563eb; stroke-width: 2; fill: none; }
    .site-dot { fill: #94a3b8; }
    .worldline-dot { fill: #2563eb; }
    .vertex-cup { fill: none; stroke: #16a34a; stroke-width: 2; }
    .vertex-cap { fill: none; stroke: #dc2626; stroke-width: 2; }
    .axis { stroke: #334155; stroke-width: 1; }
    .label { font-family: monospace; font-size: 12px; fill: #334155; }
  </style>
  <rect width="100%" height="100%" fill="white"/>

  <circle cx="40.0" cy="460.0" r="2" class="site-dot"/>
  <circle cx="94.0" cy="460.0" r="2" class="site-dot"/>
  <circle cx="148.0" cy="460.0" r="2" class="site-dot"/>
  <circle cx="202.0" cy="460.0" r="2" class="site-dot"/>
  <circle cx="256.0" cy="460.0" r="2" class="site-dot"/>
  <circle cx="310.0" cy="460.0" r="2" class="site-dot"/>
  <circle cx="40.0" cy="449.2307692307692" r="2" class="site-dot"/>
  <circle cx="94.0" cy="449.2307692307692" r="2" class="site-dot"/>
  <circle cx="148.0" cy="449.2307692307692" r="2" class="site-dot"/>
  <circle cx="202.0" cy="449.2307692307692" r="2" class="site-dot"/>
  <circle cx="256.0" cy="449.2307692307692" r="2" class="site-dot"/>
  <circle cx="310.0" cy="449.2307692307692" r="2" class="site-dot"/>
  <circle cx="40.0" cy="438.46153846153845" r="2" class="site-dot"/>
  <circle cx="94.0" cy="438.46153846153845" r="2" class="site-dot"/>
  <circle cx="148.0" cy="438.46153846153845" r="2" class="site-dot"/>
  <circle cx="202.0" cy="438.46153846153845" r="2" class="site-dot"/>
  <circle cx="256.0" cy="438.46153846153845" r="2" class="site-dot"/>
  <circle cx="310.0" cy="438.46153846153845" r="2" class="site-dot"/>
  <circle cx="40.0" cy="427.6923076923077" r="2" class="site-dot"/>
  <circle cx="94.0" cy="427.6923076923077" r="2" class="site-dot"/>
  <circle cx="148.0" cy="427.6923076923077" r="2" class="site-dot"/>
  <circle cx="202.0" cy="427.6923076923077" r="2" class="site-dot"/>
  <circle cx="256.0" cy="427.6923076923077" r="2" class="site-dot"/>
  <circle cx="310.0" cy="427.6923076923077" r="2" class="site-dot"/>
  <circle cx="40.0" cy="416.9230769230769" r="2" class="site-dot"/>
  <circle cx="94.0" cy="416.9230769230769" r="2" class="site-dot"/>
  <circle cx="148.0" cy="416.9230769230769" r="2" class="site-dot"/>
  <circle cx="202.0" cy="416.9230769230769" r="2" class="site-dot"/>
  <circle cx="256.0" cy="416.9230769230769" r="2" class="site-dot"/>
  <circle cx="310.0" cy="416.9230769230769" r="2" class="site-dot"/>
  <circle cx="40.0" cy="406.15384615384613" r="2" class="site-dot"/>
  <circle cx="94.0" cy="406.15384615384613" r="2" class="site-dot"/>
  <circle cx="148.0" cy="406.15384615384613" r="2" class="site-dot"/>
  <circle cx="202.0" cy="406.15384615384613" r="2" class="site-dot"/>
  <circle cx="256.0" cy="406.15384615384613" r="2" class="site-dot"/>
  <circle cx="310.0" cy="406.15384615384613" r="2" class="site-dot"/>
  <circle cx="40.0" cy="395.38461538461536" r="2" class="site-dot"/>
  <circle cx="94.0" cy="395.38461538461536" r="2" class="site-dot"/>
  <circle cx="148.0" cy="395.38461538461536" r="2" class="site-dot"/>
  <circle cx="202.0" cy="395.38461538461536" r="2" class="site-dot"/>
  <circle cx="256.0" cy="395.38461538461536" r="2" class="site-dot"/>
  <circle cx="310.0" cy="395.38461538461536" r="2" class="site-dot"/>
  <circle cx="40.0" cy="384.61538461538464" r="2" class="site-dot"/>
  <circle cx="94.0" cy="384.61538461538464" r="2" class="site-dot"/>
  <circle cx="148.0" cy="384.61538461538464" r="2" class="site-dot"/>
  <circle cx="202.0" cy="384.61538461538464" r="2" class="site-dot"/>
  <circle cx="256.0" cy="384.61538461538464" r="2" class="site-dot"/>
  <circle cx="310.0" cy="384.61538461538464" r="2" class="site-dot"/>
  <circle cx="40.0" cy="373.8461538461538" r="2" class="site-dot"/>
  <circle cx="94.0" cy="373.8461538461538" r="2" class="site-dot"/>
  <circle cx="148.0" cy="373.8461538461538" r="2" class="site-dot"/>
  <circle cx="202.0" cy="373.8461538461538" r="2" class="site-dot"/>
  <circle cx="256.0" cy="373.8461538461538" r="2" class="site-dot"/>
  <circle cx="310.0" cy="373.8461538461538" r="2" class="site-dot"/>
  <circle cx="40.0" cy="363.0769230769231" r="2" class="site-dot"/>
  <circle cx="94.0" cy="363.0769230769231" r="2" class="site-dot"/>
  <circle cx="148.0" cy="363.0769230769231" r="2" class="site-dot"/>
  <circle cx="202.0" cy="363.0769230769231" r="2" class="site-dot"/>
  <circle cx="256.0" cy="363.0769230769231" r="2" class="site-dot"/>
  <circle cx="310.0" cy="363.0769230769231" r="2" class="site-dot"/>
  <circle cx="40.0" cy="352.30769230769226" r="2" class="site-dot"/>
  <circle cx="94.0" cy="352.30769230769226" r="2" class="site-dot"/>
  <circle cx="148.0" cy="352.30769230769226" r="2" class="site-dot"/>
  <circle cx="202.0" cy="352.30769230769226" r="2" class="site-dot"/>
  <circle cx="256.0" cy="352.30769230769226" r="2" class="site-dot"/>
  <circle cx="310.0" cy="352.30769230769226" r="2" class="site-dot"/>
  <circle cx="40.0" cy="341.53846153846155" r="2" class="site-dot"/>
  <circle cx="94.0" cy="341.53846153846155" r="2" class="site-dot"/>
  <circle cx="148.0" cy="341.53846153846155" r="2" class="site-dot"/>
  <circle cx="202.0" cy="341.53846153846155" r="2" class="site-dot"/>
  <circle cx="256.0" cy="341.53846153846155" r="2" class="site-dot"/>
  <circle cx="310.0" cy="341.53846153846155" r="2" class="site-dot"/>
  <circle cx="40.0" cy="330.7692307692308" r="2" class="site-dot"/>
  <circle cx="94.0" cy="330.7692307692308" r="2" class="site-dot"/>
  <circle cx="148.0" cy="330.7692307692308" r="2" class="site-dot"/>
  <circle cx="202.0" cy="330.7692307692308" r="2" class="site-dot"/>
  <circle cx="256.0" cy="330.7692307692308" r="2" class="site-dot"/>
  <circle cx="310.0" cy="330.7692307692308" r="2" class="site-dot"/>
  <circle cx="40.0" cy="320.0" r="2" class="site-dot"/>
  <circle cx="94.0" cy="320.0" r="2" class="site-dot"/>
  <circle cx="148.0" cy="320.0" r="2" class="site-dot"/>
  <circle cx="202.0" cy="320.0" r="2" class="site-dot"/>
  <circle cx="256.0" cy="320.0" r="2" class="site-dot"/>
  <circle cx="310.0" cy="320.0" r="2" class="site-dot"/>
  <circle cx="40.0" cy="309.2307692307692" r="2" class="site-dot"/>
  <circle cx="94.0" cy="309.2307692307692" r="2" class="site-dot"/>
  <circle cx="148.0" cy="309.2307692307692" r="2" class="site-dot"/>
  <circle cx="202.0" cy="309.2307692307692" r="2" class="site-dot"/>
  <circle cx="256.0" cy="309.2307692307692" r="2" class="site-dot"/>
  <circle cx="310.0" cy="309.2307692307692" r="2" class="site-dot"/>
  <circle cx="40.0" cy="298.46153846153845" r="2" class="site-dot"/>
  <circle cx="94.0" cy="298.46153846153845" r="2" class="site-dot"/>
  <circle cx="148.0" cy="298.46153846153845" r="2" class="site-dot"/>
  <circle cx="202.0" cy="298.46153846153845" r="2" class="site-dot"/>
  <circle cx="256.0" cy="298.46153846153845" r="2" class="site-dot"/>
  <circle cx="310.0" cy="298.46153846153845" r="2" class="site-dot"/>
  <circle cx="40.0" cy="287.6923076923077" r="2" class="site-dot"/>
  <circle cx="94.0" cy="287.6923076923077" r="2" class="site-dot"/>
  <circle cx="148.0" cy="287.6923076923077" r="2" class="site-dot"/>
  <circle cx="202.0" cy="287.6923076923077" r="2" class="site-dot"/>
  <circle cx="256.0" cy="287.6923076923077" r="2" class="site-dot"/>
  <circle cx="310.0" cy="287.6923076923077" r="2" class="site-dot"/>
  <circle cx="40.0" cy="276.9230769230769" r="2" class="site-dot"/>
  <circle cx="94.0" cy="276.9230769230769" r="2" class="site-dot"/>
  <circle cx="148.0" cy="276.9230769230769" r="2" class="site-dot"/>
  <circle cx="202.0" cy="276.9230769230769" r="2" class="site-dot"/>
  <circle cx="256.0" cy="276.9230769230769" r="2" class="site-dot"/>
  <circle cx="310.0" cy="276.9230769230769" r="2" class="site-dot"/>
  <circle cx="40.0" cy="266.15384615384613" r="2" class="site-dot"/>
  <circle cx="94.0" cy="266.15384615384613" r="2" class="site-dot"/>
  <circle cx="148.0" cy="266.15384615384613" r="2" class="site-dot"/>
  <circle cx="202.0" cy="266.15384615384613" r="2" class="site-dot"/>
  <circle cx="256.0" cy="266.15384615384613" r="2" class="site-dot"/>
  <circle cx="310.0" cy="266.15384615384613" r="2" class="site-dot"/>
  <circle cx="40.0" cy="255.38461538461536" r="2" class="site-dot"/>
  <circle cx="94.0" cy="255.38461538461536" r="2" class="site-dot"/>
  <circle cx="148.0" cy="255.38461538461536" r="2" class="site-dot"/>
  <circle cx="202.0" cy="255.38461538461536" r="2" class="site-dot"/>
  <circle cx="256.0" cy="255.38461538461536" r="2" class="site-dot"/>
  <circle cx="310.0" cy="255.38461538461536" r="2" class="site-dot"/>
  <circle cx="40.0" cy="244.61538461538458" r="2" class="site-dot"/>
  <circle cx="94.0" cy="244.61538461538458" r="2" class="site-dot"/>
  <circle cx="148.0" cy="244.61538461538458" r="2" class="site-dot"/>
  <circle cx="202.0" cy="244.61538461538458" r="2" class="site-dot"/>
  <circle cx="256.0" cy="244.61538461538458" r="2" class="site-dot"/>
  <circle cx="310.0" cy="244.61538461538458" r="2" class="site-dot"/>
  <circle cx="40.0" cy="233.84615384615384" r="2" class="site-dot"/>
  <circle cx="94.0" cy="233.84615384615384" r="2" class="site-dot"/>
  <circle cx="148.0" cy="233.84615384615384" r="2" class="site-dot"/>
  <circle cx="202.0" cy="233.84615384615384" r="2" class="site-dot"/>
  <circle cx="256.0" cy="233.84615384615384" r="2" class="site-dot"/>
  <circle cx="310.0" cy="233.84615384615384" r="2" class="site-dot"/>
  <circle cx="40.0" cy="223.07692307692307" r="2" class="site-dot"/>
  <circle cx="94.0" cy="223.07692307692307" r="2" class="site-dot"/>
  <circle cx="148.0" cy="223.07692307692307" r="2" class="site-dot"/>
  <circle cx="202.0" cy="223.07692307692307" r="2" class="site-dot"/>
  <circle cx="256.0" cy="223.07692307692307" r="2" class="site-dot"/>
  <circle cx="310.0" cy="223.07692307692307" r="2" class="site-dot"/>
  <circle cx="40.0" cy="212.3076923076923" r="2" class="site-dot"/>
  <circle cx="94.0" cy="212.3076923076923" r="2" class="site-dot"/>
  <circle cx="148.0" cy="212.3076923076923" r="2" class="site-dot"/>
  <circle cx="202.0" cy="212.3076923076923" r="2" class="site-dot"/>
  <circle cx="256.0" cy="212.3076923076923" r="2" class="site-dot"/>
  <circle cx="310.0" cy="212.3076923076923" r="2" class="site-dot"/>
  <circle cx="40.0" cy="201.53846153846155" r="2" class="site-dot"/>
  <circle cx="94.0" cy="201.53846153846155" r="2" class="site-dot"/>
  <circle cx="148.0" cy="201.53846153846155" r="2" class="site-dot"/>
  <circle cx="202.0" cy="201.53846153846155" r="2" class="site-dot"/>
  <circle cx="256.0" cy="201.53846153846155" r="2" class="site-dot"/>
  <circle cx="310.0" cy="201.53846153846155" r="2" class="site-dot"/>
  <circle cx="40.0" cy="190.76923076923077" r="2" class="site-dot"/>
  <circle cx="94.0" cy="190.76923076923077" r="2" class="site-dot"/>
  <circle cx="148.0" cy="190.76923076923077" r="2" class="site-dot"/>
  <circle cx="202.0" cy="190.76923076923077" r="2" class="site-dot"/>
  <circle cx="256.0" cy="190.76923076923077" r="2" class="site-dot"/>
  <circle cx="310.0" cy="190.76923076923077" r="2" class="site-dot"/>
  <circle cx="40.0" cy="180.0" r="2" class="site-dot"/>
  <circle cx="94.0" cy="180.0" r="2" class="site-dot"/>
  <circle cx="148.0" cy="180.0" r="2" class="site-dot"/>
  <circle cx="202.0" cy="180.0" r="2" class="site-dot"/>
  <circle cx="256.0" cy="180.0" r="2" class="site-dot"/>
  <circle cx="310.0" cy="180.0" r="2" class="site-dot"/>
  <circle cx="40.0" cy="169.23076923076923" r="2" class="site-dot"/>
  <circle cx="94.0" cy="169.23076923076923" r="2" class="site-dot"/>
  <circle cx="148.0" cy="169.23076923076923" r="2" class="site-dot"/>
  <circle cx="202.0" cy="169.23076923076923" r="2" class="site-dot"/>
  <circle cx="256.0" cy="169.23076923076923" r="2" class="site-dot"/>
  <circle cx="310.0" cy="169.23076923076923" r="2" class="site-dot"/>
  <circle cx="40.0" cy="158.46153846153845" r="2" class="site-dot"/>
  <circle cx="94.0" cy="158.46153846153845" r="2" class="site-dot"/>
  <circle cx="148.0" cy="158.46153846153845" r="2" class="site-dot"/>
  <circle cx="202.0" cy="158.46153846153845" r="2" class="site-dot"/>
  <circle cx="256.0" cy="158.46153846153845" r="2" class="site-dot"/>
  <circle cx="310.0" cy="158.46153846153845" r="2" class="site-dot"/>
  <circle cx="40.0" cy="147.69230769230768" r="2" class="site-dot"/>
  <circle cx="94.0" cy="147.69230769230768" r="2" class="site-dot"/>
  <circle cx="148.0" cy="147.69230769230768" r="2" class="site-dot"/>
  <circle cx="202.0" cy="147.69230769230768" r="2" class="site-dot"/>
  <circle cx="256.0" cy="147.69230769230768" r="2" class="site-dot"/>
  <circle cx="310.0" cy="147.69230769230768" r="2" class="site-dot"/>
  <circle cx="40.0" cy="136.9230769230769" r="2" class="site-dot"/>
  <circle cx="94.0" cy="136.9230769230769" r="2" class="site-dot"/>
  <circle cx="148.0" cy="136.9230769230769" r="2" class="site-dot"/>
  <circle cx="202.0" cy="136.9230769230769" r="2" class="site-dot"/>
  <circle cx="256.0" cy="136.9230769230769" r="2" class="site-dot"/>
  <circle cx="310.0" cy="136.9230769230769" r="2" class="site-dot"/>
  <circle cx="40.0" cy="126.15384615384613" r="2" class="site-dot"/>
  <circle cx="94.0" cy="126.15384615384613" r="2" class="site-dot"/>
  <circle cx="148.0" cy="126.15384615384613" r="2" class="site-dot"/>
  <circle cx="202.0" cy="126.15384615384613" r="2" class="site-dot"/>
  <circle cx="256.0" cy="126.15384615384613" r="2" class="site-dot"/>
  <circle cx="310.0" cy="126.15384615384613" r="2" class="site-dot"/>
  <circle cx="40.0" cy="115.38461538461536" r="2" class="site-dot"/>
  <circle cx="94.0" cy="115.38461538461536" r="2" class="site-dot"/>
  <circle cx="148.0" cy="115.38461538461536" r="2" class="site-dot"/>
  <circle cx="202.0" cy="115.38461538461536" r="2" class="site-dot"/>
  <circle cx="256.0" cy="115.38461538461536" r="2" class="site-dot"/>
  <circle cx="310.0" cy="115.38461538461536" r="2" class="site-dot"/>
  <circle cx="40.0" cy="104.61538461538458" r="2" class="site-dot"/>
  <circle cx="94.0" cy="104.61538461538458" r="2" class="site-dot"/>
  <circle cx="148.0" cy="104.61538461538458" r="2" class="site-dot"/>
  <circle cx="202.0" cy="104.61538461538458" r="2" class="site-dot"/>
  <circle cx="256.0" cy="104.61538461538458" r="2" class="site-dot"/>
  <circle cx="310.0" cy="104.61538461538458" r="2" class="site-dot"/>
  <circle cx="40.0" cy="93.84615384615381" r="2" class="site-dot"/>
  <circle cx="94.0" cy="93.84615384615381" r="2" class="site-dot"/>
  <circle cx="148.0" cy="93.84615384615381" r="2" class="site-dot"/>
  <circle cx="202.0" cy="93.84615384615381" r="2" class="site-dot"/>
  <circle cx="256.0" cy="93.84615384615381" r="2" class="site-dot"/>
  <circle cx="310.0" cy="93.84615384615381" r="2" class="site-dot"/>
  <circle cx="40.0" cy="83.07692307692304" r="2" class="site-dot"/>
  <circle cx="94.0" cy="83.07692307692304" r="2" class="site-dot"/>
  <circle cx="148.0" cy="83.07692307692304" r="2" class="site-dot"/>
  <circle cx="202.0" cy="83.07692307692304" r="2" class="site-dot"/>
  <circle cx="256.0" cy="83.07692307692304" r="2" class="site-dot"/>
  <circle cx="310.0" cy="83.07692307692304" r="2" class="site-dot"/>
  <circle cx="40.0" cy="72.30769230769226" r="2" class="site-dot"/>
  <circle cx="94.0" cy="72.30769230769226" r="2" class="site-dot"/>
  <circle cx="148.0" cy="72.30769230769226" r="2" class="site-dot"/>
  <circle cx="202.0" cy="72.30769230769226" r="2" class="site-dot"/>
  <circle cx="256.0" cy="72.30769230769226" r="2" class="site-dot"/>
  <circle cx="310.0" cy="72.30769230769226" r="2" class="site-dot"/>
  <circle cx="40.0" cy="61.53846153846149" r="2" class="site-dot"/>
  <circle cx="94.0" cy="61.53846153846149" r="2" class="site-dot"/>
  <circle cx="148.0" cy="61.53846153846149" r="2" class="site-dot"/>
  <circle cx="202.0" cy="61.53846153846149" r="2" class="site-dot"/>
  <circle cx="256.0" cy="61.53846153846149" r="2" class="site-dot"/>
  <circle cx="310.0" cy="61.53846153846149" r="2" class="site-dot"/>
  <circle cx="40.0" cy="50.76923076923072" r="2" class="site-dot"/>
  <circle cx="94.0" cy="50.76923076923072" r="2" class="site-dot"/>
  <circle cx="148.0" cy="50.76923076923072" r="2" class="site-dot"/>
  <circle cx="202.0" cy="50.76923076923072" r="2" class="site-dot"/>
  <circle cx="256.0" cy="50.76923076923072" r="2" class="site-dot"/>
  <circle cx="310.0" cy="50.76923076923072" r="2" class="site-dot"/>
  <circle cx="40.0" cy="39.99999999999994" r="2" class="site-dot"/>
  <circle cx="94.0" cy="39.99999999999994" r="2" class="site-dot"/>
  <circle cx="148.0" cy="39.99999999999994" r="2" class="site-dot"/>
  <circle cx="202.0" cy="39.99999999999994" r="2" class="site-dot"/>
  <circle cx="256.0" cy="39.99999999999994" r="2" class="site-dot"/>
  <circle cx="310.0" cy="39.99999999999994" r="2" class="site-dot"/>
  <path d="M 256.0 427.6923076923077 L 202.0 416.9230769230769 L 202.0 406.15384615384613 L 202.0 395.38461538461536 L 148.0 384.61538461538464 L 202.0 373.8461538461538" class="worldline"/>
  <circle cx="256.0" cy="427.6923076923077" r="4" class="worldline-dot"/>
  <circle cx="202.0" cy="416.9230769230769" r="4" class="worldline-dot"/>
  <circle cx="202.0" cy="406.15384615384613" r="4" class="worldline-dot"/>
  <circle cx="202.0" cy="395.38461538461536" r="4" class="worldline-dot"/>
  <circle cx="148.0" cy="384.61538461538464" r="4" class="worldline-dot"/>
  <circle cx="202.0" cy="373.8461538461538" r="4" class="worldline-dot"/>
  <path d="M 310.0 427.6923076923077 L 256.0 416.9230769230769 L 256.0 406.15384615384613 L 310.0 395.38461538461536 L 310.0 384.61538461538464 L 256.0 373.8461538461538" class="worldline"/>
  <circle cx="310.0" cy="427.6923076923077" r="4" class="worldline-dot"/>
  <circle cx="256.0" cy="416.9230769230769" r="4" class="worldline-dot"/>
  <circle cx="256.0" cy="406.15384615384613" r="4" class="worldline-dot"/>
  <circle cx="310.0" cy="395.38461538461536" r="4" class="worldline-dot"/>
  <circle cx="310.0" cy="384.61538461538464" r="4" class="worldline-dot"/>
  <circle cx="256.0" cy="373.8461538461538" r="4" class="worldline-dot"/>
  <path d="M 94.0 406.15384615384613 L 40.0 395.38461538461536 L 40.0 384.61538461538464" class="worldline"/>
  <circle cx="94.0" cy="406.15384615384613" r="4" class="worldline-dot"/>
  <circle cx="40.0" cy="395.38461538461536" r="4" class="worldline-dot"/>
  <circle cx="40.0" cy="384.61538461538464" r="4" class="worldline-dot"/>
  <path d="M 148.0 406.15384615384613 L 94.0 395.38461538461536 L 94.0 384.61538461538464" class="worldline"/>
  <circle cx="148.0" cy="406.15384615384613" r="4" class="worldline-dot"/>
  <circle cx="94.0" cy="395.38461538461536" r="4" class="worldline-dot"/>
  <circle cx="94.0" cy="384.61538461538464" r="4" class="worldline-dot"/>
  <path d="M 202.0 352.30769230769226 L 202.0 341.53846153846155 L 202.0 330.7692307692308 L 148.0 320.0" class="worldline"/>
  <circle cx="202.0" cy="352.30769230769226" r="4" class="worldline-dot"/>
  <circle cx="202.0" cy="341.53846153846155" r="4" class="worldline-dot"/>
  <circle cx="202.0" cy="330.7692307692308" r="4" class="worldline-dot"/>
  <circle cx="148.0" cy="320.0" r="4" class="worldline-dot"/>
  <path d="M 256.0 352.30769230769226 L 256.0 341.53846153846155 L 310.0 330.7692307692308 L 256.0 320.0 L 202.0 309.2307692307692 L 148.0 298.46153846153845 L 148.0 287.6923076923077 L 148.0 276.9230769230769 L 148.0 266.15384615384613 L 148.0 255.38461538461536 L 148.0 244.61538461538458 L 94.0 233.84615384615384 L 148.0 223.07692307692307 L 148.0 212.3076923076923 L 94.0 201.53846153846155 L 148.0 190.76923076923077 L 202.0 180.0 L 202.0 169.23076923076923 L 202.0 158.46153846153845 L 202.0 147.69230769230768 L 256.0 136.9230769230769 L 310.0 126.15384615384613" class="worldline"/>
  <circle cx="256.0" cy="352.30769230769226" r="4" class="worldline-dot"/>
  <circle cx="256.0" cy="341.53846153846155" r="4" class="worldline-dot"/>
  <circle cx="310.0" cy="330.7692307692308" r="4" class="worldline-dot"/>
  <circle cx="256.0" cy="320.0" r="4" class="worldline-dot"/>
  <circle cx="202.0" cy="309.2307692307692" r="4" class="worldline-dot"/>
  <circle cx="148.0" cy="298.46153846153845" r="4" class="worldline-dot"/>
  <circle cx="148.0" cy="287.6923076923077" r="4" class="worldline-dot"/>
  <circle cx="148.0" cy="276.9230769230769" r="4" class="worldline-dot"/>
  <circle cx="148.0" cy="266.15384615384613" r="4" class="worldline-dot"/>
  <circle cx="148.0" cy="255.38461538461536" r="4" class="worldline-dot"/>
  <circle cx="148.0" cy="244.61538461538458" r="4" class="worldline-dot"/>
  <circle cx="94.0" cy="233.84615384615384" r="4" class="worldline-dot"/>
  <circle cx="148.0" cy="223.07692307692307" r="4" class="worldline-dot"/>
  <circle cx="148.0" cy="212.3076923076923" r="4" class="worldline-dot"/>
  <circle cx="94.0" cy="201.53846153846155" r="4" class="worldline-dot"/>
  <circle cx="148.0" cy="190.76923076923077" r="4" class="worldline-dot"/>
  <circle cx="202.0" cy="180.0" r="4" class="worldline-dot"/>
  <circle cx="202.0" cy="169.23076923076923" r="4" class="worldline-dot"/>
  <circle cx="202.0" cy="158.46153846153845" r="4" class="worldline-dot"/>
  <circle cx="202.0" cy="147.69230769230768" r="4" class="worldline-dot"/>
  <circle cx="256.0" cy="136.9230769230769" r="4" class="worldline-dot"/>
  <circle cx="310.0" cy="126.15384615384613" r="4" class="worldline-dot"/>
  <path d="M 94.0 341.53846153846155 L 40.0 330.7692307692308 L 40.0 320.0 L 40.0 309.2307692307692 L 94.0 298.46153846153845 L 40.0 287.6923076923077 L 40.0 276.9230769230769 L 94.0 266.15384615384613 L 94.0 255.38461538461536 L 40.0 244.61538461538458 L 40.0 233.84615384615384 L 94.0 223.07692307692307 L 40.0 212.3076923076923 L 40.0 201.53846153846155 L 94.0 190.76923076923077 L 148.0 180.0 L 94.0 169.23076923076923 L 94.0 158.46153846153845 L 94.0 147.69230769230768 L 40.0 136.9230769230769 L 40.0 126.15384615384613 L 40.0 115.38461538461536 L 40.0 104.61538461538458 L 40.0 93.84615384615381" class="worldline"/>
  <circle cx="94.0" cy="341.53846153846155" r="4" class="worldline-dot"/>
  <circle cx="40.0" cy="330.7692307692308" r="4" class="worldline-dot"/>
  <circle cx="40.0" cy="320.0" r="4" class="worldline-dot"/>
  <circle cx="40.0" cy="309.2307692307692" r="4" class="worldline-dot"/>
  <circle cx="94.0" cy="298.46153846153845" r="4" class="worldline-dot"/>
  <circle cx="40.0" cy="287.6923076923077" r="4" class="worldline-dot"/>
  <circle cx="40.0" cy="276.9230769230769" r="4" class="worldline-dot"/>
  <circle cx="94.0" cy="266.15384615384613" r="4" class="worldline-dot"/>
  <circle cx="94.0" cy="255.38461538461536" r="4" class="worldline-dot"/>
  <circle cx="40.0" cy="244.61538461538458" r="4" class="worldline-dot"/>
  <circle cx="40.0" cy="233.84615384615384" r="4" class="worldline-dot"/>
  <circle cx="94.0" cy="223.07692307692307" r="4" class="worldline-dot"/>
  <circle cx="40.0" cy="212.3076923076923" r="4" class="worldline-dot"/>
  <circle cx="40.0" cy="201.53846153846155" r="4" class="worldline-dot"/>
  <circle cx="94.0" cy="190.76923076923077" r="4" class="worldline-dot"/>
  <circle cx="148.0" cy="180.0" r="4" class="worldline-dot"/>
  <circle cx="94.0" cy="169.23076923076923" r="4" class="worldline-dot"/>
  <circle cx="94.0" cy="158.46153846153845" r="4" class="worldline-dot"/>
  <circle cx="94.0" cy="147.69230769230768" r="4" class="worldline-dot"/>
  <circle cx="40.0" cy="136.9230769230769" r="4" class="worldline-dot"/>
  <circle cx="40.0" cy="126.15384615384613" r="4" class="worldline-dot"/>
  <circle cx="40.0" cy="115.38461538461536" r="4" class="worldline-dot"/>
  <circle cx="40.0" cy="104.61538461538458" r="4" class="worldline-dot"/>
  <circle cx="40.0" cy="93.84615384615381" r="4" class="worldline-dot"/>
  <path d="M 148.0 341.53846153846155 L 94.0 330.7692307692308 L 94.0 320.0" class="worldline"/>
  <circle cx="148.0" cy="341.53846153846155" r="4" class="worldline-dot"/>
  <circle cx="94.0" cy="330.7692307692308" r="4" class="worldline-dot"/>
  <circle cx="94.0" cy="320.0" r="4" class="worldline-dot"/>
  <path d="M 202.0 223.07692307692307 L 202.0 212.3076923076923 L 256.0 201.53846153846155 L 256.0 190.76923076923077 L 256.0 180.0 L 256.0 169.23076923076923" class="worldline"/>
  <circle cx="202.0" cy="223.07692307692307" r="4" class="worldline-dot"/>
  <circle cx="202.0" cy="212.3076923076923" r="4" class="worldline-dot"/>
  <circle cx="256.0" cy="201.53846153846155" r="4" class="worldline-dot"/>
  <circle cx="256.0" cy="190.76923076923077" r="4" class="worldline-dot"/>
  <circle cx="256.0" cy="180.0" r="4" class="worldline-dot"/>
  <circle cx="256.0" cy="169.23076923076923" r="4" class="worldline-dot"/>
  <path d="M 256.0 223.07692307692307 L 310.0 212.3076923076923 L 310.0 201.53846153846155 L 310.0 190.76923076923077 L 310.0 180.0 L 310.0 169.23076923076923" class="worldline"/>
  <circle cx="256.0" cy="223.07692307692307" r="4" class="worldline-dot"/>
  <circle cx="310.0" cy="212.3076923076923" r="4" class="worldline-dot"/>
  <circle cx="310.0" cy="201.53846153846155" r="4" class="worldline-dot"/>
  <circle cx="310.0" cy="190.76923076923077" r="4" class="worldline-dot"/>
  <circle cx="310.0" cy="180.0" r="4" class="worldline-dot"/>
  <circle cx="310.0" cy="169.23076923076923" r="4" class="worldline-dot"/>
  <path d="M 94.0 136.9230769230769 L 94.0 126.15384615384613 L 148.0 115.38461538461536 L 94.0 104.61538461538458 L 148.0 93.84615384615381" class="worldline"/>
  <circle cx="94.0" cy="136.9230769230769" r="4" class="worldline-dot"/>
  <circle cx="94.0" cy="126.15384615384613" r="4" class="worldline-dot"/>
  <circle cx="148.0" cy="115.38461538461536" r="4" class="worldline-dot"/>
  <circle cx="94.0" cy="104.61538461538458" r="4" class="worldline-dot"/>
  <circle cx="148.0" cy="93.84615384615381" r="4" class="worldline-dot"/>
  <path d="M 148.0 136.9230769230769 L 202.0 126.15384615384613" class="worldline"/>
  <circle cx="148.0" cy="136.9230769230769" r="4" class="worldline-dot"/>
  <circle cx="202.0" cy="126.15384615384613" r="4" class="worldline-dot"/>
  <path d="M 202.0 83.07692307692304 L 148.0 72.30769230769226 L 202.0 61.53846153846149 L 202.0 50.76923076923072 L 148.0 39.99999999999994" class="worldline"/>
  <circle cx="202.0" cy="83.07692307692304" r="4" class="worldline-dot"/>
  <circle cx="148.0" cy="72.30769230769226" r="4" class="worldline-dot"/>
  <circle cx="202.0" cy="61.53846153846149" r="4" class="worldline-dot"/>
  <circle cx="202.0" cy="50.76923076923072" r="4" class="worldline-dot"/>
  <circle cx="148.0" cy="39.99999999999994" r="4" class="worldline-dot"/>
  <path d="M 256.0 83.07692307692304 L 256.0 72.30769230769226 L 310.0 61.53846153846149 L 256.0 50.76923076923072 L 256.0 39.99999999999994" class="worldline"/>
  <circle cx="256.0" cy="83.07692307692304" r="4" class="worldline-dot"/>
  <circle cx="256.0" cy="72.30769230769226" r="4" class="worldline-dot"/>
  <circle cx="310.0" cy="61.53846153846149" r="4" class="worldline-dot"/>
  <circle cx="256.0" cy="50.76923076923072" r="4" class="worldline-dot"/>
  <circle cx="256.0" cy="39.99999999999994" r="4" class="worldline-dot"/>
  <path d="M 256.0 427.6923076923077 Q 283.0 422.3076923076923 310.0 427.6923076923077" class="vertex-cup"/>
  <path d="M 94.0 406.15384615384613 Q 121.0 400.7692307692308 148.0 406.15384615384613" class="vertex-cup"/>
  <path d="M 40.0 371.15384615384613 Q 67.0 376.5384615384615 94.0 371.15384615384613" class="vertex-cap"/>
  <path d="M 202.0 360.3846153846154 Q 229.0 365.7692307692308 256.0 360.3846153846154" class="vertex-cap"/>
  <path d="M 202.0 352.30769230769226 Q 229.0 346.9230769230769 256.0 352.30769230769226" class="vertex-cup"/>
  <path d="M 94.0 341.53846153846155 Q 121.0 336.1538461538462 148.0 341.53846153846155" class="vertex-cup"/>
  <path d="M 94.0 306.53846153846155 Q 121.0 311.9230769230769 148.0 306.53846153846155" class="vertex-cap"/>
  <path d="M 202.0 298.46153846153845 Q 229.0 293.0769230769231 256.0 298.46153846153845" class="vertex-cup"/>
  <path d="M 202.0 295.7692307692308 Q 229.0 301.15384615384613 256.0 295.7692307692308" class="vertex-cap"/>
  <path d="M 202.0 223.07692307692307 Q 229.0 217.6923076923077 256.0 223.07692307692307" class="vertex-cup"/>
  <path d="M 256.0 155.76923076923077 Q 283.0 161.15384615384616 310.0 155.76923076923077" class="vertex-cap"/>
  <path d="M 94.0 136.9230769230769 Q 121.0 131.53846153846155 148.0 136.9230769230769" class="vertex-cup"/>
  <path d="M 256.0 112.69230769230766 Q 283.0 118.07692307692305 310.0 112.69230769230766" class="vertex-cap"/>
  <path d="M 202.0 83.07692307692304 Q 229.0 77.69230769230765 256.0 83.07692307692304" class="vertex-cup"/>
  <path d="M 40.0 80.38461538461534 Q 67.0 85.76923076923073 94.0 80.38461538461534" class="vertex-cap"/>
  <line x1="30" y1="460" x2="320" y2="460" class="axis"/>
  <line x1="30" y1="460" x2="30" y2="30" class="axis"/>
  <text x="175.0" y="490" class="label" text-anchor="middle">site</text>
  <text x="15" y="250.0" class="label" transform="rotate(-90, 15, 250.0)">τ (imaginary time)</text>
  <text x="40.0" y="480" class="label" text-anchor="middle">1</text>
  <text x="94.0" y="480" class="label" text-anchor="middle">2</text>
  <text x="148.0" y="480" class="label" text-anchor="middle">3</text>
  <text x="202.0" y="480" class="label" text-anchor="middle">4</text>
  <text x="256.0" y="480" class="label" text-anchor="middle">5</text>
  <text x="310.0" y="480" class="label" text-anchor="middle">6</text>
  <text x="20" y="464.0" class="label" text-anchor="end">1</text>
  <text x="20" y="377.8461538461538" class="label" text-anchor="end">9</text>
  <text x="20" y="291.6923076923077" class="label" text-anchor="end">17</text>
  <text x="20" y="205.53846153846155" class="label" text-anchor="end">25</text>
  <text x="20" y="119.38461538461536" class="label" text-anchor="end">33</text>
  <text x="175.0" y="25" class="label" text-anchor="middle" font-weight="bold">TL Spacetime (n=6, n_τ=40, δ=1.62)</text>
</svg>