<?xml version="1.0" encoding="UTF-8"?>
<svg xmlns="http://www.w3.org/2000/svg" width="300" height="450" viewBox="0 0 300 450">
  <style>
    .worldline { stroke: #2563eb; stroke-width: 2; fill: none; }
    .site-dot { fill: #94a3b8; }
    .worldline-dot { fill: #2563eb; }
    .vertex-cup { fill: none; stroke: #16a34a; stroke-width: 2; }
    .vertex-cap { fill: none; stroke: #dc2626; stroke-width: 2; }
    .axis { stroke: #334155; stroke-width: 1; }
    .label { font-family: monospace; font-size: 12px; fill: #334155; }
  </style>
  <rect width="100%" height="100%" fill="white"/>

  <circle cx="40.0" cy="410.0" r="2" class="site-dot"/>
  <circle cx="95.0" cy="410.0" r="2" class="site-dot"/>
  <circle cx="150.0" cy="410.0" r="2" class="site-dot"/>
  <circle cx="205.0" cy="410.0" r="2" class="site-dot"/>
  <circle cx="260.0" cy="410.0" r="2" class="site-dot"/>
  <circle cx="40.0" cy="399.11764705882354" r="2" class="site-dot"/>
  <circle cx="95.0" cy="399.11764705882354" r="2" class="site-dot"/>
  <circle cx="150.0" cy="399.11764705882354" r="2" class="site-dot"/>
  <circle cx="205.0" cy="399.11764705882354" r="2" class="site-dot"/>
  <circle cx="260.0" cy="399.11764705882354" r="2" class="site-dot"/>
  <circle cx="40.0" cy="388.2352941176471" r="2" class="site-dot"/>
  <circle cx="95.0" cy="388.2352941176471" r="2" class="site-dot"/>
  <circle cx="150.0" cy="388.2352941176471" r="2" class="site-dot"/>
  <circle cx="205.0" cy="388.2352941176471" r="2" class="site-dot"/>
  <circle cx="260.0" cy="388.2352941176471" r="2" class="site-dot"/>
  <circle cx="40.0" cy="377.3529411764706" r="2" class="site-dot"/>
  <circle cx="95.0" cy="377.3529411764706" r="2" class="site-dot"/>
  <circle cx="150.0" cy="377.3529411764706" r="2" class="site-dot"/>
  <circle cx="205.0" cy="377.3529411764706" r="2" class="site-dot"/>
  <circle cx="260.0" cy="377.3529411764706" r="2" class="site-dot"/>
  <circle cx="40.0" cy="366.47058823529414" r="2" class="site-dot"/>
  <circle cx="95.0" cy="366.47058823529414" r="2" class="site-dot"/>
  <circle cx="150.0" cy="366.47058823529414" r="2" class="site-dot"/>
  <circle cx="205.0" cy="366.47058823529414" r="2" class="site-dot"/>
  <circle cx="260.0" cy="366.47058823529414" r="2" class="site-dot"/>
  <circle cx="40.0" cy="355.5882352941176" r="2" class="site-dot"/>
  <circle cx="95.0" cy="355.5882352941176" r="2" class="site-dot"/>
  <circle cx="150.0" cy="355.5882352941176" r="2" class="site-dot"/>
  <circle cx="205.0" cy="355.5882352941176" r="2" class="site-dot"/>
  <circle cx="260.0" cy="355.5882352941176" r="2" class="site-dot"/>
  <circle cx="40.0" cy="344.70588235294116" r="2" class="site-dot"/>
  <circle cx="95.0" cy="344.70588235294116" r="2" class="site-dot"/>
  <circle cx="150.0" cy="344.70588235294116" r="2" class="site-dot"/>
  <circle cx="205.0" cy="344.70588235294116" r="2" class="site-dot"/>
  <circle cx="260.0" cy="344.70588235294116" r="2" class="site-dot"/>
  <circle cx="40.0" cy="333.8235294117647" r="2" class="site-dot"/>
  <circle cx="95.0" cy="333.8235294117647" r="2" class="site-dot"/>
  <circle cx="150.0" cy="333.8235294117647" r="2" class="site-dot"/>
  <circle cx="205.0" cy="333.8235294117647" r="2" class="site-dot"/>
  <circle cx="260.0" cy="333.8235294117647" r="2" class="site-dot"/>
  <circle cx="40.0" cy="322.94117647058823" r="2" class="site-dot"/>
  <circle cx="95.0" cy="322.94117647058823" r="2" class="site-dot"/>
  <circle cx="150.0" cy="322.94117647058823" r="2" class="site-dot"/>
  <circle cx="205.0" cy="322.94117647058823" r="2" class="site-dot"/>
  <circle cx="260.0" cy="322.94117647058823" r="2" class="site-dot"/>
  <circle cx="40.0" cy="312.05882352941177" r="2" class="site-dot"/>
  <circle cx="95.0" cy="312.05882352941177" r="2" class="site-dot"/>
  <circle cx="150.0" cy="312.05882352941177" r="2" class="site-dot"/>
  <circle cx="205.0" cy="312.05882352941177" r="2" class="site-dot"/>
  <circle cx="260.0" cy="312.05882352941177" r="2" class="site-dot"/>
  <circle cx="40.0" cy="301.1764705882353" r="2" class="site-dot"/>
  <circle cx="95.0" cy="301.1764705882353" r="2" class="site-dot"/>
  <circle cx="150.0" cy="301.1764705882353" r="2" class="site-dot"/>
  <circle cx="205.0" cy="301.1764705882353" r="2" class="site-dot"/>
  <circle cx="260.0" cy="301.1764705882353" r="2" class="site-dot"/>
  <circle cx="40.0" cy="290.2941176470588" r="2" class="site-dot"/>
  <circle cx="95.0" cy="290.2941176470588" r="2" class="site-dot"/>
  <circle cx="150.0" cy="290.2941176470588" r="2" class="site-dot"/>
  <circle cx="205.0" cy="290.2941176470588" r="2" class="site-dot"/>
  <circle cx="260.0" cy="290.2941176470588" r="2" class="site-dot"/>
  <circle cx="40.0" cy="279.4117647058823" r="2" class="site-dot"/>
  <circle cx="95.0" cy="279.4117647058823" r="2" class="site-dot"/>
  <circle cx="150.0" cy="279.4117647058823" r="2" class="site-dot"/>
  <circle cx="205.0" cy="279.4117647058823" r="2" class="site-dot"/>
  <circle cx="260.0" cy="279.4117647058823" r="2" class="site-dot"/>
  <circle cx="40.0" cy="268.52941176470586" r="2" class="site-dot"/>
  <circle cx="95.0" cy="268.52941176470586" r="2" class="site-dot"/>
  <circle cx="150.0" cy="268.52941176470586" r="2" class="site-dot"/>
  <circle cx="205.0" cy="268.52941176470586" r="2" class="site-dot"/>
  <circle cx="260.0" cy="268.52941176470586" r="2" class="site-dot"/>
  <circle cx="40.0" cy="257.6470588235294" r="2" class="site-dot"/>
  <circle cx="95.0" cy="257.6470588235294" r="2" class="site-dot"/>
  <circle cx="150.0" cy="257.6470588235294" r="2" class="site-dot"/>
  <circle cx="205.0" cy="257.6470588235294" r="2" class="site-dot"/>
  <circle cx="260.0" cy="257.6470588235294" r="2" class="site-dot"/>
  <circle cx="40.0" cy="246.76470588235293" r="2" class="site-dot"/>
  <circle cx="95.0" cy="246.76470588235293" r="2" class="site-dot"/>
  <circle cx="150.0" cy="246.76470588235293" r="2" class="site-dot"/>
  <circle cx="205.0" cy="246.76470588235293" r="2" class="site-dot"/>
  <circle cx="260.0" cy="246.76470588235293" r="2" class="site-dot"/>
  <circle cx="40.0" cy="235.88235294117646" r="2" class="site-dot"/>
  <circle cx="95.0" cy="235.88235294117646" r="2" class="site-dot"/>
  <circle cx="150.0" cy="235.88235294117646" r="2" class="site-dot"/>
  <circle cx="205.0" cy="235.88235294117646" r="2" class="site-dot"/>
  <circle cx="260.0" cy="235.88235294117646" r="2" class="site-dot"/>
  <circle cx="40.0" cy="225.0" r="2" class="site-dot"/>
  <circle cx="95.0" cy="225.0" r="2" class="site-dot"/>
  <circle cx="150.0" cy="225.0" r="2" class="site-dot"/>
  <circle cx="205.0" cy="225.0" r="2" class="site-dot"/>
  <circle cx="260.0" cy="225.0" r="2" class="site-dot"/>
  <circle cx="40.0" cy="214.11764705882354" r="2" class="site-dot"/>
  <circle cx="95.0" cy="214.11764705882354" r="2" class="site-dot"/>
  <circle cx="150.0" cy="214.11764705882354" r="2" class="site-dot"/>
  <circle cx="205.0" cy="214.11764705882354" r="2" class="site-dot"/>
  <circle cx="260.0" cy="214.11764705882354" r="2" class="site-dot"/>
  <circle cx="40.0" cy="203.23529411764704" r="2" class="site-dot"/>
  <circle cx="95.0" cy="203.23529411764704" r="2" class="site-dot"/>
  <circle cx="150.0" cy="203.23529411764704" r="2" class="site-dot"/>
  <circle cx="205.0" cy="203.23529411764704" r="2" class="site-dot"/>
  <circle cx="260.0" cy="203.23529411764704" r="2" class="site-dot"/>
  <circle cx="40.0" cy="192.35294117647058" r="2" class="site-dot"/>
  <circle cx="95.0" cy="192.35294117647058" r="2" class="site-dot"/>
  <circle cx="150.0" cy="192.35294117647058" r="2" class="site-dot"/>
  <circle cx="205.0" cy="192.35294117647058" r="2" class="site-dot"/>
  <circle cx="260.0" cy="192.35294117647058" r="2" class="site-dot"/>
  <circle cx="40.0" cy="181.47058823529412" r="2" class="site-dot"/>
  <circle cx="95.0" cy="181.47058823529412" r="2" class="site-dot"/>
  <circle cx="150.0" cy="181.47058823529412" r="2" class="site-dot"/>
  <circle cx="205.0" cy="181.47058823529412" r="2" class="site-dot"/>
  <circle cx="260.0" cy="181.47058823529412" r="2" class="site-dot"/>
  <circle cx="40.0" cy="170.58823529411762" r="2" class="site-dot"/>
  <circle cx="95.0" cy="170.58823529411762" r="2" class="site-dot"/>
  <circle cx="150.0" cy="170.58823529411762" r="2" class="site-dot"/>
  <circle cx="205.0" cy="170.58823529411762" r="2" class="site-dot"/>
  <circle cx="260.0" cy="170.58823529411762" r="2" class="site-dot"/>
  <circle cx="40.0" cy="159.70588235294116" r="2" class="site-dot"/>
  <circle cx="95.0" cy="159.70588235294116" r="2" class="site-dot"/>
  <circle cx="150.0" cy="159.70588235294116" r="2" class="site-dot"/>
  <circle cx="205.0" cy="159.70588235294116" r="2" class="site-dot"/>
  <circle cx="260.0" cy="159.70588235294116" r="2" class="site-dot"/>
  <circle cx="40.0" cy="148.8235294117647" r="2" class="site-dot"/>
  <circle cx="95.0" cy="148.8235294117647" r="2" class="site-dot"/>
  <circle cx="150.0" cy="148.8235294117647" r="2" class="site-dot"/>
  <circle cx="205.0" cy="148.8235294117647" r="2" class="site-dot"/>
  <circle cx="260.0" cy="148.8235294117647" r="2" class="site-dot"/>
  <circle cx="40.0" cy="137.94117647058823" r="2" class="site-dot"/>
  <circle cx="95.0" cy="137.94117647058823" r="2" class="site-dot"/>
  <circle cx="150.0" cy="137.94117647058823" r="2" class="site-dot"/>
  <circle cx="205.0" cy="137.94117647058823" r="2" class="site-dot"/>
  <circle cx="260.0" cy="137.94117647058823" r="2" class="site-dot"/>
  <circle cx="40.0" cy="127.05882352941177" r="2" class="site-dot"/>
  <circle cx="95.0" cy="127.05882352941177" r="2" class="site-dot"/>
  <circle cx="150.0" cy="127.05882352941177" r="2" class="site-dot"/>
  <circle cx="205.0" cy="127.05882352941177" r="2" class="site-dot"/>
  <circle cx="260.0" cy="127.05882352941177" r="2" class="site-dot"/>
  <circle cx="40.0" cy="116.1764705882353" r="2" class="site-dot"/>
  <circle cx="95.0" cy="116.1764705882353" r="2" class="site-dot"/>
  <circle cx="150.0" cy="116.1764705882353" r="2" class="site-dot"/>
  <circle cx="205.0" cy="116.1764705882353" r="2" class="site-dot"/>
  <circle cx="260.0" cy="116.1764705882353" r="2" class="site-dot"/>
  <circle cx="40.0" cy="105.29411764705878" r="2" class="site-dot"/>
  <circle cx="95.0" cy="105.29411764705878" r="2" class="site-dot"/>
  <circle cx="150.0" cy="105.29411764705878" r="2" class="site-dot"/>
  <circle cx="205.0" cy="105.29411764705878" r="2" class="site-dot"/>
  <circle cx="260.0" cy="105.29411764705878" r="2" class="site-dot"/>
  <circle cx="40.0" cy="94.41176470588232" r="2" class="site-dot"/>
  <circle cx="95.0" cy="94.41176470588232" r="2" class="site-dot"/>
  <circle cx="150.0" cy="94.41176470588232" r="2" class="site-dot"/>
  <circle cx="205.0" cy="94.41176470588232" r="2" class="site-dot"/>
  <circle cx="260.0" cy="94.41176470588232" r="2" class="site-dot"/>
  <circle cx="40.0" cy="83.52941176470586" r="2" class="site-dot"/>
  <circle cx="95.0" cy="83.52941176470586" r="2" class="site-dot"/>
  <circle cx="150.0" cy="83.52941176470586" r="2" class="site-dot"/>
  <circle cx="205.0" cy="83.52941176470586" r="2" class="site-dot"/>
  <circle cx="260.0" cy="83.52941176470586" r="2" class="site-dot"/>
  <circle cx="40.0" cy="72.64705882352939" r="2" class="site-dot"/>
  <circle cx="95.0" cy="72.64705882352939" r="2" class="site-dot"/>
  <circle cx="150.0" cy="72.64705882352939" r="2" class="site-dot"/>
  <circle cx="205.0" cy="72.64705882352939" r="2" class="site-dot"/>
  <circle cx="260.0" cy="72.64705882352939" r="2" class="site-dot"/>
  <circle cx="40.0" cy="61.76470588235293" r="2" class="site-dot"/>
  <circle cx="95.0" cy="61.76470588235293" r="2" class="site-dot"/>
  <circle cx="150.0" cy="61.76470588235293" r="2" class="site-dot"/>
  <circle cx="205.0" cy="61.76470588235293" r="2" class="site-dot"/>
  <circle cx="260.0" cy="61.76470588235293" r="2" class="site-dot"/>
  <circle cx="40.0" cy="50.882352941176464" r="2" class="site-dot"/>
  <circle cx="95.0" cy="50.882352941176464" r="2" class="site-dot"/>
  <circle cx="150.0" cy="50.882352941176464" r="2" class="site-dot"/>
  <circle cx="205.0" cy="50.882352941176464" r="2" class="site-dot"/>
  <circle cx="260.0" cy="50.882352941176464" r="2" class="site-dot"/>
  <circle cx="40.0" cy="40.0" r="2" class="site-dot"/>
  <circle cx="95.0" cy="40.0" r="2" class="site-dot"/>
  <circle cx="150.0" cy="40.0" r="2" class="site-dot"/>
  <circle cx="205.0" cy="40.0" r="2" class="site-dot"/>
  <circle cx="260.0" cy="40.0" r="2" class="site-dot"/>
  <path d="M 150.0 399.11764705882354 L 95.0 388.2352941176471 L 95.0 377.3529411764706 L 150.0 366.47058823529414 L 150.0 355.5882352941176 L 95.0 344.70588235294116" class="worldline"/>
  <circle cx="150.0" cy="399.11764705882354" r="4" class="worldline-dot"/>
  <circle cx="95.0" cy="388.2352941176471" r="4" class="worldline-dot"/>
  <circle cx="95.0" cy="377.3529411764706" r="4" class="worldline-dot"/>
  <circle cx="150.0" cy="366.47058823529414" r="4" class="worldline-dot"/>
  <circle cx="150.0" cy="355.5882352941176" r="4" class="worldline-dot"/>
  <circle cx="95.0" cy="344.70588235294116" r="4" class="worldline-dot"/>
  <path d="M 205.0 399.11764705882354 L 205.0 388.2352941176471 L 205.0 377.3529411764706 L 260.0 366.47058823529414 L 205.0 355.5882352941176 L 260.0 344.70588235294116 L 205.0 333.8235294117647 L 150.0 322.94117647058823 L 150.0 312.05882352941177" class="worldline"/>
  <circle cx="205.0" cy="399.11764705882354" r="4" class="worldline-dot"/>
  <circle cx="205.0" cy="388.2352941176471" r="4" class="worldline-dot"/>
  <circle cx="205.0" cy="377.3529411764706" r="4" class="worldline-dot"/>
  <circle cx="260.0" cy="366.47058823529414" r="4" class="worldline-dot"/>
  <circle cx="205.0" cy="355.5882352941176" r="4" class="worldline-dot"/>
  <circle cx="260.0" cy="344.70588235294116" r="4" class="worldline-dot"/>
  <circle cx="205.0" cy="333.8235294117647" r="4" class="worldline-dot"/>
  <circle cx="150.0" cy="322.94117647058823" r="4" class="worldline-dot"/>
  <circle cx="150.0" cy="312.05882352941177" r="4" class="worldline-dot"/>
  <path d="M 40.0 366.47058823529414" class="worldline"/>
  <circle cx="40.0" cy="366.47058823529414" r="4" class="worldline-dot"/>
  <path d="M 95.0 366.47058823529414" class="worldline"/>
  <circle cx="95.0" cy="366.47058823529414" r="4" class="worldline-dot"/>
  <path d="M 40.0 333.8235294117647 L 95.0 322.94117647058823 L 40.0 312.05882352941177" class="worldline"/>
  <circle cx="40.0" cy="333.8235294117647" r="4" class="worldline-dot"/>
  <circle cx="95.0" cy="322.94117647058823" r="4" class="worldline-dot"/>
  <circle cx="40.0" cy="312.05882352941177" r="4" class="worldline-dot"/>
  <path d="M 205.0 322.94117647058823" class="worldline"/>
  <circle cx="205.0" cy="322.94117647058823" r="4" class="worldline-dot"/>
  <path d="M 260.0 322.94117647058823" class="worldline"/>
  <circle cx="260.0" cy="322.94117647058823" r="4" class="worldline-dot"/>
  <path d="M 150.0 301.1764705882353 L 95.0 290.2941176470588 L 40.0 279.4117647058823 L 40.0 268.52941176470586 L 95.0 257.6470588235294 L 95.0 246.76470588235293 L 150.0 235.88235294117646" class="worldline"/>
  <circle cx="150.0" cy="301.1764705882353" r="4" class="worldline-dot"/>
  <circle cx="95.0" cy="290.2941176470588" r="4" class="worldline-dot"/>
  <circle cx="40.0" cy="279.4117647058823" r="4" class="worldline-dot"/>
  <circle cx="40.0" cy="268.52941176470586" r="4" class="worldline-dot"/>
  <circle cx="95.0" cy="257.6470588235294" r="4" class="worldline-dot"/>
  <circle cx="95.0" cy="246.76470588235293" r="4" class="worldline-dot"/>
  <circle cx="150.0" cy="235.88235294117646" r="4" class="worldline-dot"/>
  <path d="M 205.0 301.1764705882353 L 205.0 290.2941176470588 L 205.0 279.4117647058823 L 205.0 268.52941176470586 L 150.0 257.6470588235294 L 205.0 246.76470588235293 L 260.0 235.88235294117646" class="worldline"/>
  <circle cx="205.0" cy="301.1764705882353" r="4" class="worldline-dot"/>
  <circle cx="205.0" cy="290.2941176470588" r="4" class="worldline-dot"/>
  <circle cx="205.0" cy="279.4117647058823" r="4" class="worldline-dot"/>
  <circle cx="205.0" cy="268.52941176470586" r="4" class="worldline-dot"/>
  <circle cx="150.0" cy="257.6470588235294" r="4" class="worldline-dot"/>
  <circle cx="205.0" cy="246.76470588235293" r="4" class="worldline-dot"/>
  <circle cx="260.0" cy="235.88235294117646" r="4" class="worldline-dot"/>
  <path d="M 40.0 214.11764705882354 L 40.0 203.23529411764704 L 95.0 192.35294117647058 L 95.0 181.47058823529412 L 95.0 170.58823529411762" class="worldline"/>
  <circle cx="40.0" cy="214.11764705882354" r="4" class="worldline-dot"/>
  <circle cx="40.0" cy="203.23529411764704" r="4" class="worldline-dot"/>
  <circle cx="95.0" cy="192.35294117647058" r="4" class="worldline-dot"/>
  <circle cx="95.0" cy="181.47058823529412" r="4" class="worldline-dot"/>
  <circle cx="95.0" cy="170.58823529411762" r="4" class="worldline-dot"/>
  <path d="M 95.0 214.11764705882354 L 150.0 203.23529411764704 L 150.0 192.35294117647058 L 205.0 181.47058823529412 L 150.0 170.58823529411762" class="worldline"/>
  <circle cx="95.0" cy="214.11764705882354" r="4" class="worldline-dot"/>
  <circle cx="150.0" cy="203.23529411764704" r="4" class="worldline-dot"/>
  <circle cx="150.0" cy="192.35294117647058" r="4" class="worldline-dot"/>
  <circle cx="205.0" cy="181.47058823529412" r="4" class="worldline-dot"/>
  <circle cx="150.0" cy="170.58823529411762" r="4" class="worldline-dot"/>
  <path d="M 40.0 148.8235294117647 L 40.0 137.94117647058823 L 95.0 127.05882352941177 L 40.0 116.1764705882353 L 95.0 105.29411764705878 L 95.0 94.41176470588232" class="worldline"/>
  <circle cx="40.0" cy="148.8235294117647" r="4" class="worldline-dot"/>
  <circle cx="40.0" cy="137.94117647058823" r="4" class="worldline-dot"/>
  <circle cx="95.0" cy="127.05882352941177" r="4" class="worldline-dot"/>
  <circle cx="40.0" cy="116.1764705882353" r="4" class="worldline-dot"/>
  <circle cx="95.0" cy="105.29411764705878" r="4" class="worldline-dot"/>
  <circle cx="95.0" cy="94.41176470588232" r="4" class="worldline-dot"/>
  <path d="M 95.0 148.8235294117647 L 150.0 137.94117647058823 L 150.0 127.05882352941177" class="worldline"/>
  <circle cx="95.0" cy="148.8235294117647" r="4" class="worldline-dot"/>
  <circle cx="150.0" cy="137.94117647058823" r="4" class="worldline-dot"/>
  <circle cx="150.0" cy="127.05882352941177" r="4" class="worldline-dot"/>
  <path d="M 205.0 137.94117647058823 L 205.0 127.05882352941177" class="worldline"/>
  <circle cx="205.0" cy="137.94117647058823" r="4" class="worldline-dot"/>
  <circle cx="205.0" cy="127.05882352941177" r="4" class="worldline-dot"/>
  <path d="M 260.0 137.94117647058823 L 260.0 127.05882352941177 L 260.0 116.1764705882353 L 260.0 105.29411764705878 L 260.0 94.41176470588232 L 260.0 83.52941176470586 L 260.0 72.64705882352939 L 260.0 61.76470588235293 L 260.0 50.882352941176464 L 260.0 40.0" class="worldline"/>
  <circle cx="260.0" cy="137.94117647058823" r="4" class="worldline-dot"/>
  <circle cx="260.0" cy="127.05882352941177" r="4" class="worldline-dot"/>
  <circle cx="260.0" cy="116.1764705882353" r="4" class="worldline-dot"/>
  <circle cx="260.0" cy="105.29411764705878" r="4" class="worldline-dot"/>
  <circle cx="260.0" cy="94.41176470588232" r="4" class="worldline-dot"/>
  <circle cx="260.0" cy="83.52941176470586" r="4" class="worldline-dot"/>
  <circle cx="260.0" cy="72.64705882352939" r="4" class="worldline-dot"/>
  <circle cx="260.0" cy="61.76470588235293" r="4" class="worldline-dot"/>
  <circle cx="260.0" cy="50.882352941176464" r="4" class="worldline-dot"/>
  <circle cx="260.0" cy="40.0" r="4" class="worldline-dot"/>
  <path d="M 150.0 94.41176470588232" class="worldline"/>
  <circle cx="150.0" cy="94.41176470588232" r="4" class="worldline-dot"/>
  <path d="M 205.0 94.41176470588232 L 150.0 83.52941176470586 L 150.0 72.64705882352939 L 205.0 61.76470588235293 L 150.0 50.882352941176464 L 150.0 40.0" class="worldline"/>
  <circle cx="205.0" cy="94.41176470588232" r="4" class="worldline-dot"/>
  <circle cx="150.0" cy="83.52941176470586" r="4" class="worldline-dot"/>
  <circle cx="150.0" cy="72.64705882352939" r="4" class="worldline-dot"/>
  <circle cx="205.0" cy="61.76470588235293" r="4" class="worldline-dot"/>
  <circle cx="150.0" cy="50.882352941176464" r="4" class="worldline-dot"/>
  <circle cx="150.0" cy="40.0" r="4" class="worldline-dot"/>
  <path d="M 150.0 399.11764705882354 Q 177.5 393.67647058823525 205.0 399.11764705882354" class="vertex-cup"/>
  <path d="M 40.0 366.47058823529414 Q 67.5 361.02941176470586 95.0 366.47058823529414" class="vertex-cup"/>
  <path d="M 40.0 352.8676470588235 Q 67.5 358.3088235294117 95.0 352.8676470588235" class="vertex-cap"/>
  <path d="M 40.0 333.8235294117647 Q 67.5 328.3823529411764 95.0 333.8235294117647" class="vertex-cup"/>
  <path d="M 95.0 331.10294117647055 Q 122.5 336.5441176470588 150.0 331.10294117647055" class="vertex-cap"/>
  <path d="M 205.0 322.94117647058823 Q 232.5 317.49999999999994 260.0 322.94117647058823" class="vertex-cup"/>
  <path d="M 205.0 309.3382352941176 Q 232.5 314.77941176470586 260.0 309.3382352941176" class="vertex-cap"/>
  <path d="M 150.0 301.1764705882353 Q 177.5 295.735294117647 205.0 301.1764705882353" class="vertex-cup"/>
  <path d="M 40.0 298.45588235294116 Q 67.5 303.8970588235294 95.0 298.45588235294116" class="vertex-cap"/>
  <path d="M 40.0 235.88235294117646 Q 67.5 230.44117647058823 95.0 235.88235294117646" class="vertex-cup"/>
  <path d="M 40.0 233.16176470588235 Q 67.5 238.60294117647058 95.0 233.16176470588235" class="vertex-cap"/>
  <path d="M 150.0 222.27941176470588 Q 177.5 227.72058823529412 205.0 222.27941176470588" class="vertex-cap"/>
  <path d="M 40.0 214.11764705882354 Q 67.5 208.6764705882353 95.0 214.11764705882354" class="vertex-cup"/>
  <path d="M 95.0 156.98529411764704 Q 122.5 162.42647058823528 150.0 156.98529411764704" class="vertex-cap"/>
  <path d="M 40.0 148.8235294117647 Q 67.5 143.38235294117646 95.0 148.8235294117647" class="vertex-cup"/>
  <path d="M 205.0 137.94117647058823 Q 232.5 132.5 260.0 137.94117647058823" class="vertex-cup"/>
  <path d="M 150.0 113.45588235294119 Q 177.5 118.89705882352942 205.0 113.45588235294119" class="vertex-cap"/>
  <path d="M 150.0 94.41176470588232 Q 177.5 88.97058823529409 205.0 94.41176470588232" class="vertex-cup"/>
  <path d="M 40.0 80.80882352941174 Q 67.5 86.24999999999997 95.0 80.80882352941174" class="vertex-cap"/>
  <path d="M 40.0 72.64705882352939 Q 67.5 67.20588235294116 95.0 72.64705882352939" class="vertex-cup"/>
  <path d="M 40.0 69.92647058823528 Q 67.5 75.36764705882351 95.0 69.92647058823528" class="vertex-cap"/>
  <path d="M 40.0 61.76470588235293 Q 67.5 56.323529411764696 95.0 61.76470588235293" class="vertex-cup"/>
  <path d="M 40.0 59.04411764705881 Q 67.5 64.48529411764704 95.0 59.04411764705881" class="vertex-cap"/>
  <line x1="30" y1="410" x2="270" y2="410" class="axis"/>
  <line x1="30" y1="410" x2="30" y2="30" class="axis"/>
  <text x="150.0" y="440" class="label" text-anchor="middle">site</text>
  <text x="15" y="225.0" class="label" transform="rotate(-90, 15, 225.0)">τ (imaginary time)</text>
  <text x="40.0" y="430" class="label" text-anchor="middle">1</text>
  <text x="95.0" y="430" class="label" text-anchor="middle">2</text>
  <text x="150.0" y="430" class="label" text-anchor="middle">3</text>
  <text x="205.0" y="430" class="label" text-anchor="middle">4</text>
  <text x="260.0" y="430" class="label" text-anchor="middle">5</text>
  <text x="20" y="414.0" class="label" text-anchor="end">1</text>
  <text x="20" y="337.8235294117647" class="label" text-anchor="end">8</text>
  <text x="20" y="261.6470588235294" class="label" text-anchor="end">15</text>
  <text x="20" y="185.47058823529412" class="label" text-anchor="end">22</text>
  <text x="20" y="109.29411764705878" class="label" text-anchor="end">29</text>
  <text x="150.0" y="25" class="label" text-anchor="middle" font-weight="bold">TL Spacetime (n=5, n_τ=35, δ=1.41)</text>
</svg>