<?xml version="1.0" encoding="UTF-8"?>
<svg xmlns="http://www.w3.org/2000/svg" width="350" height="600" viewBox="0 0 350 600">
  <style>
    .worldline { stroke: #2563eb; stroke-width: 2; fill: none; }
    .site-dot { fill: #94a3b8; }
    .worldline-dot { fill: #2563eb; }
    .vertex-cup { fill: none; stroke: #16a34a; stroke-width: 2; }
    .vertex-cap { fill: none; stroke: #dc2626; stroke-width: 2; }
    .axis { stroke: #334155; stroke-width: 1; }
    .label { font-family: monospace; font-size: 12px; fill: #334155; }
  </style>
  <rect width="100%" height="100%" fill="white"/>

  <circle cx="40.0" cy="560.0" r="2" class="site-dot"/>
  <circle cx="107.5" cy="560.0" r="2" class="site-dot"/>
  <circle cx="175.0" cy="560.0" r="2" class="site-dot"/>
  <circle cx="242.5" cy="560.0" r="2" class="site-dot"/>
  <circle cx="310.0" cy="560.0" r="2" class="site-dot"/>
  <circle cx="40.0" cy="549.3877551020408" r="2" class="site-dot"/>
  <circle cx="107.5" cy="549.3877551020408" r="2" class="site-dot"/>
  <circle cx="175.0" cy="549.3877551020408" r="2" class="site-dot"/>
  <circle cx="242.5" cy="549.3877551020408" r="2" class="site-dot"/>
  <circle cx="310.0" cy="549.3877551020408" r="2" class="site-dot"/>
  <circle cx="40.0" cy="538.7755102040817" r="2" class="site-dot"/>
  <circle cx="107.5" cy="538.7755102040817" r="2" class="site-dot"/>
  <circle cx="175.0" cy="538.7755102040817" r="2" class="site-dot"/>
  <circle cx="242.5" cy="538.7755102040817" r="2" class="site-dot"/>
  <circle cx="310.0" cy="538.7755102040817" r="2" class="site-dot"/>
  <circle cx="40.0" cy="528.1632653061224" r="2" class="site-dot"/>
  <circle cx="107.5" cy="528.1632653061224" r="2" class="site-dot"/>
  <circle cx="175.0" cy="528.1632653061224" r="2" class="site-dot"/>
  <circle cx="242.5" cy="528.1632653061224" r="2" class="site-dot"/>
  <circle cx="310.0" cy="528.1632653061224" r="2" class="site-dot"/>
  <circle cx="40.0" cy="517.5510204081633" r="2" class="site-dot"/>
  <circle cx="107.5" cy="517.5510204081633" r="2" class="site-dot"/>
  <circle cx="175.0" cy="517.5510204081633" r="2" class="site-dot"/>
  <circle cx="242.5" cy="517.5510204081633" r="2" class="site-dot"/>
  <circle cx="310.0" cy="517.5510204081633" r="2" class="site-dot"/>
  <circle cx="40.0" cy="506.9387755102041" r="2" class="site-dot"/>
  <circle cx="107.5" cy="506.9387755102041" r="2" class="site-dot"/>
  <circle cx="175.0" cy="506.9387755102041" r="2" class="site-dot"/>
  <circle cx="242.5" cy="506.9387755102041" r="2" class="site-dot"/>
  <circle cx="310.0" cy="506.9387755102041" r="2" class="site-dot"/>
  <circle cx="40.0" cy="496.3265306122449" r="2" class="site-dot"/>
  <circle cx="107.5" cy="496.3265306122449" r="2" class="site-dot"/>
  <circle cx="175.0" cy="496.3265306122449" r="2" class="site-dot"/>
  <circle cx="242.5" cy="496.3265306122449" r="2" class="site-dot"/>
  <circle cx="310.0" cy="496.3265306122449" r="2" class="site-dot"/>
  <circle cx="40.0" cy="485.7142857142857" r="2" class="site-dot"/>
  <circle cx="107.5" cy="485.7142857142857" r="2" class="site-dot"/>
  <circle cx="175.0" cy="485.7142857142857" r="2" class="site-dot"/>
  <circle cx="242.5" cy="485.7142857142857" r="2" class="site-dot"/>
  <circle cx="310.0" cy="485.7142857142857" r="2" class="site-dot"/>
  <circle cx="40.0" cy="475.1020408163265" r="2" class="site-dot"/>
  <circle cx="107.5" cy="475.1020408163265" r="2" class="site-dot"/>
  <circle cx="175.0" cy="475.1020408163265" r="2" class="site-dot"/>
  <circle cx="242.5" cy="475.1020408163265" r="2" class="site-dot"/>
  <circle cx="310.0" cy="475.1020408163265" r="2" class="site-dot"/>
  <circle cx="40.0" cy="464.48979591836735" r="2" class="site-dot"/>
  <circle cx="107.5" cy="464.48979591836735" r="2" class="site-dot"/>
  <circle cx="175.0" cy="464.48979591836735" r="2" class="site-dot"/>
  <circle cx="242.5" cy="464.48979591836735" r="2" class="site-dot"/>
  <circle cx="310.0" cy="464.48979591836735" r="2" class="site-dot"/>
  <circle cx="40.0" cy="453.8775510204082" r="2" class="site-dot"/>
  <circle cx="107.5" cy="453.8775510204082" r="2" class="site-dot"/>
  <circle cx="175.0" cy="453.8775510204082" r="2" class="site-dot"/>
  <circle cx="242.5" cy="453.8775510204082" r="2" class="site-dot"/>
  <circle cx="310.0" cy="453.8775510204082" r="2" class="site-dot"/>
  <circle cx="40.0" cy="443.265306122449" r="2" class="site-dot"/>
  <circle cx="107.5" cy="443.265306122449" r="2" class="site-dot"/>
  <circle cx="175.0" cy="443.265306122449" r="2" class="site-dot"/>
  <circle cx="242.5" cy="443.265306122449" r="2" class="site-dot"/>
  <circle cx="310.0" cy="443.265306122449" r="2" class="site-dot"/>
  <circle cx="40.0" cy="432.6530612244898" r="2" class="site-dot"/>
  <circle cx="107.5" cy="432.6530612244898" r="2" class="site-dot"/>
  <circle cx="175.0" cy="432.6530612244898" r="2" class="site-dot"/>
  <circle cx="242.5" cy="432.6530612244898" r="2" class="site-dot"/>
  <circle cx="310.0" cy="432.6530612244898" r="2" class="site-dot"/>
  <circle cx="40.0" cy="422.0408163265306" r="2" class="site-dot"/>
  <circle cx="107.5" cy="422.0408163265306" r="2" class="site-dot"/>
  <circle cx="175.0" cy="422.0408163265306" r="2" class="site-dot"/>
  <circle cx="242.5" cy="422.0408163265306" r="2" class="site-dot"/>
  <circle cx="310.0" cy="422.0408163265306" r="2" class="site-dot"/>
  <circle cx="40.0" cy="411.42857142857144" r="2" class="site-dot"/>
  <circle cx="107.5" cy="411.42857142857144" r="2" class="site-dot"/>
  <circle cx="175.0" cy="411.42857142857144" r="2" class="site-dot"/>
  <circle cx="242.5" cy="411.42857142857144" r="2" class="site-dot"/>
  <circle cx="310.0" cy="411.42857142857144" r="2" class="site-dot"/>
  <circle cx="40.0" cy="400.8163265306123" r="2" class="site-dot"/>
  <circle cx="107.5" cy="400.8163265306123" r="2" class="site-dot"/>
  <circle cx="175.0" cy="400.8163265306123" r="2" class="site-dot"/>
  <circle cx="242.5" cy="400.8163265306123" r="2" class="site-dot"/>
  <circle cx="310.0" cy="400.8163265306123" r="2" class="site-dot"/>
  <circle cx="40.0" cy="390.2040816326531" r="2" class="site-dot"/>
  <circle cx="107.5" cy="390.2040816326531" r="2" class="site-dot"/>
  <circle cx="175.0" cy="390.2040816326531" r="2" class="site-dot"/>
  <circle cx="242.5" cy="390.2040816326531" r="2" class="site-dot"/>
  <circle cx="310.0" cy="390.2040816326531" r="2" class="site-dot"/>
  <circle cx="40.0" cy="379.59183673469386" r="2" class="site-dot"/>
  <circle cx="107.5" cy="379.59183673469386" r="2" class="site-dot"/>
  <circle cx="175.0" cy="379.59183673469386" r="2" class="site-dot"/>
  <circle cx="242.5" cy="379.59183673469386" r="2" class="site-dot"/>
  <circle cx="310.0" cy="379.59183673469386" r="2" class="site-dot"/>
  <circle cx="40.0" cy="368.9795918367347" r="2" class="site-dot"/>
  <circle cx="107.5" cy="368.9795918367347" r="2" class="site-dot"/>
  <circle cx="175.0" cy="368.9795918367347" r="2" class="site-dot"/>
  <circle cx="242.5" cy="368.9795918367347" r="2" class="site-dot"/>
  <circle cx="310.0" cy="368.9795918367347" r="2" class="site-dot"/>
  <circle cx="40.0" cy="358.36734693877554" r="2" class="site-dot"/>
  <circle cx="107.5" cy="358.36734693877554" r="2" class="site-dot"/>
  <circle cx="175.0" cy="358.36734693877554" r="2" class="site-dot"/>
  <circle cx="242.5" cy="358.36734693877554" r="2" class="site-dot"/>
  <circle cx="310.0" cy="358.36734693877554" r="2" class="site-dot"/>
  <circle cx="40.0" cy="347.7551020408163" r="2" class="site-dot"/>
  <circle cx="107.5" cy="347.7551020408163" r="2" class="site-dot"/>
  <circle cx="175.0" cy="347.7551020408163" r="2" class="site-dot"/>
  <circle cx="242.5" cy="347.7551020408163" r="2" class="site-dot"/>
  <circle cx="310.0" cy="347.7551020408163" r="2" class="site-dot"/>
  <circle cx="40.0" cy="337.14285714285717" r="2" class="site-dot"/>
  <circle cx="107.5" cy="337.14285714285717" r="2" class="site-dot"/>
  <circle cx="175.0" cy="337.14285714285717" r="2" class="site-dot"/>
  <circle cx="242.5" cy="337.14285714285717" r="2" class="site-dot"/>
  <circle cx="310.0" cy="337.14285714285717" r="2" class="site-dot"/>
  <circle cx="40.0" cy="326.53061224489795" r="2" class="site-dot"/>
  <circle cx="107.5" cy="326.53061224489795" r="2" class="site-dot"/>
  <circle cx="175.0" cy="326.53061224489795" r="2" class="site-dot"/>
  <circle cx="242.5" cy="326.53061224489795" r="2" class="site-dot"/>
  <circle cx="310.0" cy="326.53061224489795" r="2" class="site-dot"/>
  <circle cx="40.0" cy="315.9183673469388" r="2" class="site-dot"/>
  <circle cx="107.5" cy="315.9183673469388" r="2" class="site-dot"/>
  <circle cx="175.0" cy="315.9183673469388" r="2" class="site-dot"/>
  <circle cx="242.5" cy="315.9183673469388" r="2" class="site-dot"/>
  <circle cx="310.0" cy="315.9183673469388" r="2" class="site-dot"/>
  <circle cx="40.0" cy="305.30612244897964" r="2" class="site-dot"/>
  <circle cx="107.5" cy="305.30612244897964" r="2" class="site-dot"/>
  <circle cx="175.0" cy="305.30612244897964" r="2" class="site-dot"/>
  <circle cx="242.5" cy="305.30612244897964" r="2" class="site-dot"/>
  <circle cx="310.0" cy="305.30612244897964" r="2" class="site-dot"/>
  <circle cx="40.0" cy="294.6938775510204" r="2" class="site-dot"/>
  <circle cx="107.5" cy="294.6938775510204" r="2" class="site-dot"/>
  <circle cx="175.0" cy="294.6938775510204" r="2" class="site-dot"/>
  <circle cx="242.5" cy="294.6938775510204" r="2" class="site-dot"/>
  <circle cx="310.0" cy="294.6938775510204" r="2" class="site-dot"/>
  <circle cx="40.0" cy="284.08163265306126" r="2" class="site-dot"/>
  <circle cx="107.5" cy="284.08163265306126" r="2" class="site-dot"/>
  <circle cx="175.0" cy="284.08163265306126" r="2" class="site-dot"/>
  <circle cx="242.5" cy="284.08163265306126" r="2" class="site-dot"/>
  <circle cx="310.0" cy="284.08163265306126" r="2" class="site-dot"/>
  <circle cx="40.0" cy="273.46938775510205" r="2" class="site-dot"/>
  <circle cx="107.5" cy="273.46938775510205" r="2" class="site-dot"/>
  <circle cx="175.0" cy="273.46938775510205" r="2" class="site-dot"/>
  <circle cx="242.5" cy="273.46938775510205" r="2" class="site-dot"/>
  <circle cx="310.0" cy="273.46938775510205" r="2" class="site-dot"/>
  <circle cx="40.0" cy="262.8571428571429" r="2" class="site-dot"/>
  <circle cx="107.5" cy="262.8571428571429" r="2" class="site-dot"/>
  <circle cx="175.0" cy="262.8571428571429" r="2" class="site-dot"/>
  <circle cx="242.5" cy="262.8571428571429" r="2" class="site-dot"/>
  <circle cx="310.0" cy="262.8571428571429" r="2" class="site-dot"/>
  <circle cx="40.0" cy="252.24489795918367" r="2" class="site-dot"/>
  <circle cx="107.5" cy="252.24489795918367" r="2" class="site-dot"/>
  <circle cx="175.0" cy="252.24489795918367" r="2" class="site-dot"/>
  <circle cx="242.5" cy="252.24489795918367" r="2" class="site-dot"/>
  <circle cx="310.0" cy="252.24489795918367" r="2" class="site-dot"/>
  <circle cx="40.0" cy="241.63265306122452" r="2" class="site-dot"/>
  <circle cx="107.5" cy="241.63265306122452" r="2" class="site-dot"/>
  <circle cx="175.0" cy="241.63265306122452" r="2" class="site-dot"/>
  <circle cx="242.5" cy="241.63265306122452" r="2" class="site-dot"/>
  <circle cx="310.0" cy="241.63265306122452" r="2" class="site-dot"/>
  <circle cx="40.0" cy="231.0204081632653" r="2" class="site-dot"/>
  <circle cx="107.5" cy="231.0204081632653" r="2" class="site-dot"/>
  <circle cx="175.0" cy="231.0204081632653" r="2" class="site-dot"/>
  <circle cx="242.5" cy="231.0204081632653" r="2" class="site-dot"/>
  <circle cx="310.0" cy="231.0204081632653" r="2" class="site-dot"/>
  <circle cx="40.0" cy="220.40816326530614" r="2" class="site-dot"/>
  <circle cx="107.5" cy="220.40816326530614" r="2" class="site-dot"/>
  <circle cx="175.0" cy="220.40816326530614" r="2" class="site-dot"/>
  <circle cx="242.5" cy="220.40816326530614" r="2" class="site-dot"/>
  <circle cx="310.0" cy="220.40816326530614" r="2" class="site-dot"/>
  <circle cx="40.0" cy="209.79591836734699" r="2" class="site-dot"/>
  <circle cx="107.5" cy="209.79591836734699" r="2" class="site-dot"/>
  <circle cx="175.0" cy="209.79591836734699" r="2" class="site-dot"/>
  <circle cx="242.5" cy="209.79591836734699" r="2" class="site-dot"/>
  <circle cx="310.0" cy="209.79591836734699" r="2" class="site-dot"/>
  <circle cx="40.0" cy="199.18367346938777" r="2" class="site-dot"/>
  <circle cx="107.5" cy="199.18367346938777" r="2" class="site-dot"/>
  <circle cx="175.0" cy="199.18367346938777" r="2" class="site-dot"/>
  <circle cx="242.5" cy="199.18367346938777" r="2" class="site-dot"/>
  <circle cx="310.0" cy="199.18367346938777" r="2" class="site-dot"/>
  <circle cx="40.0" cy="188.5714285714286" r="2" class="site-dot"/>
  <circle cx="107.5" cy="188.5714285714286" r="2" class="site-dot"/>
  <circle cx="175.0" cy="188.5714285714286" r="2" class="site-dot"/>
  <circle cx="242.5" cy="188.5714285714286" r="2" class="site-dot"/>
  <circle cx="310.0" cy="188.5714285714286" r="2" class="site-dot"/>
  <circle cx="40.0" cy="177.9591836734694" r="2" class="site-dot"/>
  <circle cx="107.5" cy="177.9591836734694" r="2" class="site-dot"/>
  <circle cx="175.0" cy="177.9591836734694" r="2" class="site-dot"/>
  <circle cx="242.5" cy="177.9591836734694" r="2" class="site-dot"/>
  <circle cx="310.0" cy="177.9591836734694" r="2" class="site-dot"/>
  <circle cx="40.0" cy="167.34693877551024" r="2" class="site-dot"/>
  <circle cx="107.5" cy="167.34693877551024" r="2" class="site-dot"/>
  <circle cx="175.0" cy="167.34693877551024" r="2" class="site-dot"/>
  <circle cx="242.5" cy="167.34693877551024" r="2" class="site-dot"/>
  <circle cx="310.0" cy="167.34693877551024" r="2" class="site-dot"/>
  <circle cx="40.0" cy="156.73469387755102" r="2" class="site-dot"/>
  <circle cx="107.5" cy="156.73469387755102" r="2" class="site-dot"/>
  <circle cx="175.0" cy="156.73469387755102" r="2" class="site-dot"/>
  <circle cx="242.5" cy="156.73469387755102" r="2" class="site-dot"/>
  <circle cx="310.0" cy="156.73469387755102" r="2" class="site-dot"/>
  <circle cx="40.0" cy="146.12244897959187" r="2" class="site-dot"/>
  <circle cx="107.5" cy="146.12244897959187" r="2" class="site-dot"/>
  <circle cx="175.0" cy="146.12244897959187" r="2" class="site-dot"/>
  <circle cx="242.5" cy="146.12244897959187" r="2" class="site-dot"/>
  <circle cx="310.0" cy="146.12244897959187" r="2" class="site-dot"/>
  <circle cx="40.0" cy="135.51020408163265" r="2" class="site-dot"/>
  <circle cx="107.5" cy="135.51020408163265" r="2" class="site-dot"/>
  <circle cx="175.0" cy="135.51020408163265" r="2" class="site-dot"/>
  <circle cx="242.5" cy="135.51020408163265" r="2" class="site-dot"/>
  <circle cx="310.0" cy="135.51020408163265" r="2" class="site-dot"/>
  <circle cx="40.0" cy="124.89795918367349" r="2" class="site-dot"/>
  <circle cx="107.5" cy="124.89795918367349" r="2" class="site-dot"/>
  <circle cx="175.0" cy="124.89795918367349" r="2" class="site-dot"/>
  <circle cx="242.5" cy="124.89795918367349" r="2" class="site-dot"/>
  <circle cx="310.0" cy="124.89795918367349" r="2" class="site-dot"/>
  <circle cx="40.0" cy="114.28571428571433" r="2" class="site-dot"/>
  <circle cx="107.5" cy="114.28571428571433" r="2" class="site-dot"/>
  <circle cx="175.0" cy="114.28571428571433" r="2" class="site-dot"/>
  <circle cx="242.5" cy="114.28571428571433" r="2" class="site-dot"/>
  <circle cx="310.0" cy="114.28571428571433" r="2" class="site-dot"/>
  <circle cx="40.0" cy="103.67346938775512" r="2" class="site-dot"/>
  <circle cx="107.5" cy="103.67346938775512" r="2" class="site-dot"/>
  <circle cx="175.0" cy="103.67346938775512" r="2" class="site-dot"/>
  <circle cx="242.5" cy="103.67346938775512" r="2" class="site-dot"/>
  <circle cx="310.0" cy="103.67346938775512" r="2" class="site-dot"/>
  <circle cx="40.0" cy="93.06122448979596" r="2" class="site-dot"/>
  <circle cx="107.5" cy="93.06122448979596" r="2" class="site-dot"/>
  <circle cx="175.0" cy="93.06122448979596" r="2" class="site-dot"/>
  <circle cx="242.5" cy="93.06122448979596" r="2" class="site-dot"/>
  <circle cx="310.0" cy="93.06122448979596" r="2" class="site-dot"/>
  <circle cx="40.0" cy="82.44897959183675" r="2" class="site-dot"/>
  <circle cx="107.5" cy="82.44897959183675" r="2" class="site-dot"/>
  <circle cx="175.0" cy="82.44897959183675" r="2" class="site-dot"/>
  <circle cx="242.5" cy="82.44897959183675" r="2" class="site-dot"/>
  <circle cx="310.0" cy="82.44897959183675" r="2" class="site-dot"/>
  <circle cx="40.0" cy="71.83673469387759" r="2" class="site-dot"/>
  <circle cx="107.5" cy="71.83673469387759" r="2" class="site-dot"/>
  <circle cx="175.0" cy="71.83673469387759" r="2" class="site-dot"/>
  <circle cx="242.5" cy="71.83673469387759" r="2" class="site-dot"/>
  <circle cx="310.0" cy="71.83673469387759" r="2" class="site-dot"/>
  <circle cx="40.0" cy="61.22448979591837" r="2" class="site-dot"/>
  <circle cx="107.5" cy="61.22448979591837" r="2" class="site-dot"/>
  <circle cx="175.0" cy="61.22448979591837" r="2" class="site-dot"/>
  <circle cx="242.5" cy="61.22448979591837" r="2" class="site-dot"/>
  <circle cx="310.0" cy="61.22448979591837" r="2" class="site-dot"/>
  <circle cx="40.0" cy="50.612244897959215" r="2" class="site-dot"/>
  <circle cx="107.5" cy="50.612244897959215" r="2" class="site-dot"/>
  <circle cx="175.0" cy="50.612244897959215" r="2" class="site-dot"/>
  <circle cx="242.5" cy="50.612244897959215" r="2" class="site-dot"/>
  <circle cx="310.0" cy="50.612244897959215" r="2" class="site-dot"/>
  <circle cx="40.0" cy="40.0" r="2" class="site-dot"/>
  <circle cx="107.5" cy="40.0" r="2" class="site-dot"/>
  <circle cx="175.0" cy="40.0" r="2" class="site-dot"/>
  <circle cx="242.5" cy="40.0" r="2" class="site-dot"/>
  <circle cx="310.0" cy="40.0" r="2" class="site-dot"/>
  <path d="M 40.0 549.3877551020408 L 40.0 538.7755102040817" class="worldline"/>
  <circle cx="40.0" cy="549.3877551020408" r="4" class="worldline-dot"/>
  <circle cx="40.0" cy="538.7755102040817" r="4" class="worldline-dot"/>
  <path d="M 107.5 549.3877551020408" class="worldline"/>
  <circle cx="107.5" cy="549.3877551020408" r="4" class="worldline-dot"/>
  <path d="M 310.0 538.7755102040817 L 310.0 528.1632653061224 L 310.0 517.5510204081633 L 310.0 506.9387755102041" class="worldline"/>
  <circle cx="310.0" cy="538.7755102040817" r="4" class="worldline-dot"/>
  <circle cx="310.0" cy="528.1632653061224" r="4" class="worldline-dot"/>
  <circle cx="310.0" cy="517.5510204081633" r="4" class="worldline-dot"/>
  <circle cx="310.0" cy="506.9387755102041" r="4" class="worldline-dot"/>
  <path d="M 175.0 528.1632653061224 L 175.0 517.5510204081633 L 242.5 506.9387755102041" class="worldline"/>
  <circle cx="175.0" cy="528.1632653061224" r="4" class="worldline-dot"/>
  <circle cx="175.0" cy="517.5510204081633" r="4" class="worldline-dot"/>
  <circle cx="242.5" cy="506.9387755102041" r="4" class="worldline-dot"/>
  <path d="M 40.0 496.3265306122449 L 40.0 485.7142857142857" class="worldline"/>
  <circle cx="40.0" cy="496.3265306122449" r="4" class="worldline-dot"/>
  <circle cx="40.0" cy="485.7142857142857" r="4" class="worldline-dot"/>
  <path d="M 107.5 496.3265306122449" class="worldline"/>
  <circle cx="107.5" cy="496.3265306122449" r="4" class="worldline-dot"/>
  <path d="M 310.0 485.7142857142857 L 310.0 475.1020408163265 L 310.0 464.48979591836735 L 310.0 453.8775510204082 L 310.0 443.265306122449 L 310.0 432.6530612244898 L 242.5 422.0408163265306" class="worldline"/>
  <circle cx="310.0" cy="485.7142857142857" r="4" class="worldline-dot"/>
  <circle cx="310.0" cy="475.1020408163265" r="4" class="worldline-dot"/>
  <circle cx="310.0" cy="464.48979591836735" r="4" class="worldline-dot"/>
  <circle cx="310.0" cy="453.8775510204082" r="4" class="worldline-dot"/>
  <circle cx="310.0" cy="443.265306122449" r="4" class="worldline-dot"/>
  <circle cx="310.0" cy="432.6530612244898" r="4" class="worldline-dot"/>
  <circle cx="242.5" cy="422.0408163265306" r="4" class="worldline-dot"/>
  <path d="M 242.5 475.1020408163265 L 175.0 464.48979591836735 L 242.5 453.8775510204082 L 242.5 443.265306122449 L 175.0 432.6530612244898 L 107.5 422.0408163265306" class="worldline"/>
  <circle cx="242.5" cy="475.1020408163265" r="4" class="worldline-dot"/>
  <circle cx="175.0" cy="464.48979591836735" r="4" class="worldline-dot"/>
  <circle cx="242.5" cy="453.8775510204082" r="4" class="worldline-dot"/>
  <circle cx="242.5" cy="443.265306122449" r="4" class="worldline-dot"/>
  <circle cx="175.0" cy="432.6530612244898" r="4" class="worldline-dot"/>
  <circle cx="107.5" cy="422.0408163265306" r="4" class="worldline-dot"/>
  <path d="M 242.5 411.42857142857144 L 242.5 400.8163265306123 L 175.0 390.2040816326531 L 107.5 379.59183673469386" class="worldline"/>
  <circle cx="242.5" cy="411.42857142857144" r="4" class="worldline-dot"/>
  <circle cx="242.5" cy="400.8163265306123" r="4" class="worldline-dot"/>
  <circle cx="175.0" cy="390.2040816326531" r="4" class="worldline-dot"/>
  <circle cx="107.5" cy="379.59183673469386" r="4" class="worldline-dot"/>
  <path d="M 310.0 411.42857142857144 L 310.0 400.8163265306123 L 242.5 390.2040816326531 L 242.5 379.59183673469386 L 242.5 368.9795918367347 L 242.5 358.36734693877554 L 242.5 347.7551020408163 L 242.5 337.14285714285717 L 310.0 326.53061224489795 L 310.0 315.9183673469388 L 310.0 305.30612244897964 L 310.0 294.6938775510204" class="worldline"/>
  <circle cx="310.0" cy="411.42857142857144" r="4" class="worldline-dot"/>
  <circle cx="310.0" cy="400.8163265306123" r="4" class="worldline-dot"/>
  <circle cx="242.5" cy="390.2040816326531" r="4" class="worldline-dot"/>
  <circle cx="242.5" cy="379.59183673469386" r="4" class="worldline-dot"/>
  <circle cx="242.5" cy="368.9795918367347" r="4" class="worldline-dot"/>
  <circle cx="242.5" cy="358.36734693877554" r="4" class="worldline-dot"/>
  <circle cx="242.5" cy="347.7551020408163" r="4" class="worldline-dot"/>
  <circle cx="242.5" cy="337.14285714285717" r="4" class="worldline-dot"/>
  <circle cx="310.0" cy="326.53061224489795" r="4" class="worldline-dot"/>
  <circle cx="310.0" cy="315.9183673469388" r="4" class="worldline-dot"/>
  <circle cx="310.0" cy="305.30612244897964" r="4" class="worldline-dot"/>
  <circle cx="310.0" cy="294.6938775510204" r="4" class="worldline-dot"/>
  <path d="M 40.0 368.9795918367347 L 107.5 358.36734693877554 L 107.5 347.7551020408163" class="worldline"/>
  <circle cx="40.0" cy="368.9795918367347" r="4" class="worldline-dot"/>
  <circle cx="107.5" cy="358.36734693877554" r="4" class="worldline-dot"/>
  <circle cx="107.5" cy="347.7551020408163" r="4" class="worldline-dot"/>
  <path d="M 175.0 337.14285714285717 L 242.5 326.53061224489795 L 242.5 315.9183673469388 L 242.5 305.30612244897964 L 175.0 294.6938775510204" class="worldline"/>
  <circle cx="175.0" cy="337.14285714285717" r="4" class="worldline-dot"/>
  <circle cx="242.5" cy="326.53061224489795" r="4" class="worldline-dot"/>
  <circle cx="242.5" cy="315.9183673469388" r="4" class="worldline-dot"/>
  <circle cx="242.5" cy="305.30612244897964" r="4" class="worldline-dot"/>
  <circle cx="175.0" cy="294.6938775510204" r="4" class="worldline-dot"/>
  <path d="M 40.0 220.40816326530614 L 40.0 209.79591836734699" class="worldline"/>
  <circle cx="40.0" cy="220.40816326530614" r="4" class="worldline-dot"/>
  <circle cx="40.0" cy="209.79591836734699" r="4" class="worldline-dot"/>
  <path d="M 107.5 220.40816326530614" class="worldline"/>
  <circle cx="107.5" cy="220.40816326530614" r="4" class="worldline-dot"/>
  <path d="M 310.0 209.79591836734699 L 310.0 199.18367346938777 L 310.0 188.5714285714286" class="worldline"/>
  <circle cx="310.0" cy="209.79591836734699" r="4" class="worldline-dot"/>
  <circle cx="310.0" cy="199.18367346938777" r="4" class="worldline-dot"/>
  <circle cx="310.0" cy="188.5714285714286" r="4" class="worldline-dot"/>
  <path d="M 242.5 199.18367346938777 L 242.5 188.5714285714286" class="worldline"/>
  <circle cx="242.5" cy="199.18367346938777" r="4" class="worldline-dot"/>
  <circle cx="242.5" cy="188.5714285714286" r="4" class="worldline-dot"/>
  <path d="M 40.0 177.9591836734694 L 40.0 167.34693877551024" class="worldline"/>
  <circle cx="40.0" cy="177.9591836734694" r="4" class="worldline-dot"/>
  <circle cx="40.0" cy="167.34693877551024" r="4" class="worldline-dot"/>
  <path d="M 107.5 177.9591836734694" class="worldline"/>
  <circle cx="107.5" cy="177.9591836734694" r="4" class="worldline-dot"/>
  <path d="M 310.0 167.34693877551024 L 310.0 156.73469387755102 L 310.0 146.12244897959187 L 310.0 135.51020408163265 L 242.5 124.89795918367349" class="worldline"/>
  <circle cx="310.0" cy="167.34693877551024" r="4" class="worldline-dot"/>
  <circle cx="310.0" cy="156.73469387755102" r="4" class="worldline-dot"/>
  <circle cx="310.0" cy="146.12244897959187" r="4" class="worldline-dot"/>
  <circle cx="310.0" cy="135.51020408163265" r="4" class="worldline-dot"/>
  <circle cx="242.5" cy="124.89795918367349" r="4" class="worldline-dot"/>
  <path d="M 242.5 156.73469387755102 L 242.5 146.12244897959187" class="worldline"/>
  <circle cx="242.5" cy="156.73469387755102" r="4" class="worldline-dot"/>
  <circle cx="242.5" cy="146.12244897959187" r="4" class="worldline-dot"/>
  <path d="M 40.0 135.51020408163265 L 107.5 124.89795918367349 L 40.0 114.28571428571433 L 107.5 103.67346938775512" class="worldline"/>
  <circle cx="40.0" cy="135.51020408163265" r="4" class="worldline-dot"/>
  <circle cx="107.5" cy="124.89795918367349" r="4" class="worldline-dot"/>
  <circle cx="40.0" cy="114.28571428571433" r="4" class="worldline-dot"/>
  <circle cx="107.5" cy="103.67346938775512" r="4" class="worldline-dot"/>
  <path d="M 310.0 114.28571428571433 L 310.0 103.67346938775512 L 310.0 93.06122448979596 L 310.0 82.44897959183675 L 310.0 71.83673469387759 L 242.5 61.22448979591837 L 242.5 50.612244897959215 L 310.0 40.0" class="worldline"/>
  <circle cx="310.0" cy="114.28571428571433" r="4" class="worldline-dot"/>
  <circle cx="310.0" cy="103.67346938775512" r="4" class="worldline-dot"/>
  <circle cx="310.0" cy="93.06122448979596" r="4" class="worldline-dot"/>
  <circle cx="310.0" cy="82.44897959183675" r="4" class="worldline-dot"/>
  <circle cx="310.0" cy="71.83673469387759" r="4" class="worldline-dot"/>
  <circle cx="242.5" cy="61.22448979591837" r="4" class="worldline-dot"/>
  <circle cx="242.5" cy="50.612244897959215" r="4" class="worldline-dot"/>
  <circle cx="310.0" cy="40.0" r="4" class="worldline-dot"/>
  <path d="M 175.0 103.67346938775512" class="worldline"/>
  <circle cx="175.0" cy="103.67346938775512" r="4" class="worldline-dot"/>
  <path d="M 242.5 103.67346938775512 L 242.5 93.06122448979596 L 242.5 82.44897959183675 L 175.0 71.83673469387759 L 107.5 61.22448979591837" class="worldline"/>
  <circle cx="242.5" cy="103.67346938775512" r="4" class="worldline-dot"/>
  <circle cx="242.5" cy="93.06122448979596" r="4" class="worldline-dot"/>
  <circle cx="242.5" cy="82.44897959183675" r="4" class="worldline-dot"/>
  <circle cx="175.0" cy="71.83673469387759" r="4" class="worldline-dot"/>
  <circle cx="107.5" cy="61.22448979591837" r="4" class="worldline-dot"/>
  <path d="M 175.0 50.612244897959215" class="worldline"/>
  <circle cx="175.0" cy="50.612244897959215" r="4" class="worldline-dot"/>
  <path d="M 242.5 40.0" class="worldline"/>
  <circle cx="242.5" cy="40.0" r="4" class="worldline-dot"/>
  <path d="M 40.0 549.3877551020408 Q 73.75 544.0816326530613 107.5 549.3877551020408" class="vertex-cup"/>
  <path d="M 242.5 538.7755102040817 Q 276.25 533.4693877551022 310.0 538.7755102040817" class="vertex-cup"/>
  <path d="M 175.0 536.1224489795919 Q 208.75 541.4285714285716 242.5 536.1224489795919" class="vertex-cap"/>
  <path d="M 107.5 528.1632653061224 Q 141.25 522.8571428571429 175.0 528.1632653061224" class="vertex-cup"/>
  <path d="M 40.0 525.5102040816327 Q 73.75 530.8163265306123 107.5 525.5102040816327" class="vertex-cap"/>
  <path d="M 40.0 506.9387755102041 Q 73.75 501.63265306122446 107.5 506.9387755102041" class="vertex-cup"/>
  <path d="M 40.0 504.2857142857143 Q 73.75 509.59183673469386 107.5 504.2857142857143" class="vertex-cap"/>
  <path d="M 40.0 496.3265306122449 Q 73.75 491.02040816326524 107.5 496.3265306122449" class="vertex-cup"/>
  <path d="M 242.5 493.67346938775506 Q 276.25 498.97959183673464 310.0 493.67346938775506" class="vertex-cap"/>
  <path d="M 242.5 485.7142857142857 Q 276.25 480.4081632653061 310.0 485.7142857142857" class="vertex-cup"/>
  <path d="M 175.0 483.0612244897959 Q 208.75 488.3673469387755 242.5 483.0612244897959" class="vertex-cap"/>
  <path d="M 175.0 475.1020408163265 Q 208.75 469.79591836734687 242.5 475.1020408163265" class="vertex-cup"/>
  <path d="M 107.5 472.4489795918367 Q 141.25 477.75510204081627 175.0 472.4489795918367" class="vertex-cap"/>
  <path d="M 40.0 464.48979591836735 Q 73.75 459.1836734693877 107.5 464.48979591836735" class="vertex-cup"/>
  <path d="M 40.0 461.83673469387753 Q 73.75 467.1428571428571 107.5 461.83673469387753" class="vertex-cap"/>
  <path d="M 40.0 453.8775510204082 Q 73.75 448.57142857142856 107.5 453.8775510204082" class="vertex-cup"/>
  <path d="M 40.0 451.2244897959184 Q 73.75 456.53061224489795 107.5 451.2244897959184" class="vertex-cap"/>
  <path d="M 40.0 443.265306122449 Q 73.75 437.95918367346934 107.5 443.265306122449" class="vertex-cup"/>
  <path d="M 40.0 440.61224489795916 Q 73.75 445.91836734693874 107.5 440.61224489795916" class="vertex-cap"/>
  <path d="M 40.0 432.6530612244898 Q 73.75 427.3469387755102 107.5 432.6530612244898" class="vertex-cup"/>
  <path d="M 40.0 430.0 Q 73.75 435.3061224489796 107.5 430.0" class="vertex-cap"/>
  <path d="M 242.5 411.42857142857144 Q 276.25 406.1224489795918 310.0 411.42857142857144" class="vertex-cup"/>
  <path d="M 107.5 408.7755102040816 Q 141.25 414.0816326530612 175.0 408.7755102040816" class="vertex-cap"/>
  <path d="M 40.0 400.8163265306123 Q 73.75 395.51020408163265 107.5 400.8163265306123" class="vertex-cup"/>
  <path d="M 40.0 398.16326530612247 Q 73.75 403.46938775510205 107.5 398.16326530612247" class="vertex-cap"/>
  <path d="M 40.0 390.2040816326531 Q 73.75 384.89795918367344 107.5 390.2040816326531" class="vertex-cup"/>
  <path d="M 40.0 387.55102040816325 Q 73.75 392.85714285714283 107.5 387.55102040816325" class="vertex-cap"/>
  <path d="M 40.0 368.9795918367347 Q 73.75 363.67346938775506 107.5 368.9795918367347" class="vertex-cup"/>
  <path d="M 107.5 366.3265306122449 Q 141.25 371.63265306122446 175.0 366.3265306122449" class="vertex-cap"/>
  <path d="M 107.5 337.14285714285717 Q 141.25 331.83673469387753 175.0 337.14285714285717" class="vertex-cup"/>
  <path d="M 40.0 334.48979591836735 Q 73.75 339.7959183673469 107.5 334.48979591836735" class="vertex-cap"/>
  <path d="M 40.0 326.53061224489795 Q 73.75 321.2244897959183 107.5 326.53061224489795" class="vertex-cup"/>
  <path d="M 40.0 323.87755102040813 Q 73.75 329.1836734693877 107.5 323.87755102040813" class="vertex-cap"/>
  <path d="M 107.5 315.9183673469388 Q 141.25 310.61224489795916 175.0 315.9183673469388" class="vertex-cup"/>
  <path d="M 107.5 313.265306122449 Q 141.25 318.57142857142856 175.0 313.265306122449" class="vertex-cap"/>
  <path d="M 40.0 305.30612244897964 Q 73.75 300.0 107.5 305.30612244897964" class="vertex-cup"/>
  <path d="M 40.0 302.6530612244898 Q 73.75 307.9591836734694 107.5 302.6530612244898" class="vertex-cap"/>
  <path d="M 40.0 294.6938775510204 Q 73.75 289.3877551020408 107.5 294.6938775510204" class="vertex-cup"/>
  <path d="M 40.0 292.0408163265306 Q 73.75 297.3469387755102 107.5 292.0408163265306" class="vertex-cap"/>
  <path d="M 175.0 281.42857142857144 Q 208.75 286.734693877551 242.5 281.42857142857144" class="vertex-cap"/>
  <path d="M 40.0 273.46938775510205 Q 73.75 268.1632653061224 107.5 273.46938775510205" class="vertex-cup"/>
  <path d="M 40.0 270.81632653061223 Q 73.75 276.1224489795918 107.5 270.81632653061223" class="vertex-cap"/>
  <path d="M 40.0 262.8571428571429 Q 73.75 257.55102040816325 107.5 262.8571428571429" class="vertex-cup"/>
  <path d="M 40.0 260.2040816326531 Q 73.75 265.51020408163265 107.5 260.2040816326531" class="vertex-cap"/>
  <path d="M 40.0 252.24489795918367 Q 73.75 246.9387755102041 107.5 252.24489795918367" class="vertex-cup"/>
  <path d="M 40.0 249.59183673469389 Q 73.75 254.89795918367346 107.5 249.59183673469389" class="vertex-cap"/>
  <path d="M 40.0 241.63265306122452 Q 73.75 236.32653061224494 107.5 241.63265306122452" class="vertex-cup"/>
  <path d="M 40.0 238.97959183673473 Q 73.75 244.2857142857143 107.5 238.97959183673473" class="vertex-cap"/>
  <path d="M 40.0 231.0204081632653 Q 73.75 225.71428571428572 107.5 231.0204081632653" class="vertex-cup"/>
  <path d="M 40.0 228.3673469387755 Q 73.75 233.6734693877551 107.5 228.3673469387755" class="vertex-cap"/>
  <path d="M 40.0 220.40816326530614 Q 73.75 215.10204081632656 107.5 220.40816326530614" class="vertex-cup"/>
  <path d="M 242.5 209.79591836734699 Q 276.25 204.4897959183674 310.0 209.79591836734699" class="vertex-cup"/>
  <path d="M 175.0 207.1428571428572 Q 208.75 212.44897959183677 242.5 207.1428571428572" class="vertex-cap"/>
  <path d="M 175.0 199.18367346938777 Q 208.75 193.8775510204082 242.5 199.18367346938777" class="vertex-cup"/>
  <path d="M 107.5 196.53061224489798 Q 141.25 201.83673469387756 175.0 196.53061224489798" class="vertex-cap"/>
  <path d="M 40.0 188.5714285714286 Q 73.75 183.26530612244903 107.5 188.5714285714286" class="vertex-cup"/>
  <path d="M 40.0 185.91836734693882 Q 73.75 191.2244897959184 107.5 185.91836734693882" class="vertex-cap"/>
  <path d="M 40.0 177.9591836734694 Q 73.75 172.65306122448982 107.5 177.9591836734694" class="vertex-cup"/>
  <path d="M 242.5 175.3061224489796 Q 276.25 180.6122448979592 310.0 175.3061224489796" class="vertex-cap"/>
  <path d="M 242.5 167.34693877551024 Q 276.25 162.04081632653066 310.0 167.34693877551024" class="vertex-cup"/>
  <path d="M 175.0 164.69387755102045 Q 208.75 170.00000000000003 242.5 164.69387755102045" class="vertex-cap"/>
  <path d="M 175.0 156.73469387755102 Q 208.75 151.42857142857144 242.5 156.73469387755102" class="vertex-cup"/>
  <path d="M 107.5 154.08163265306123 Q 141.25 159.3877551020408 175.0 154.08163265306123" class="vertex-cap"/>
  <path d="M 40.0 146.12244897959187 Q 73.75 140.8163265306123 107.5 146.12244897959187" class="vertex-cup"/>
  <path d="M 40.0 143.46938775510208 Q 73.75 148.77551020408166 107.5 143.46938775510208" class="vertex-cap"/>
  <path d="M 40.0 135.51020408163265 Q 73.75 130.20408163265307 107.5 135.51020408163265" class="vertex-cup"/>
  <path d="M 107.5 132.85714285714286 Q 141.25 138.16326530612244 175.0 132.85714285714286" class="vertex-cap"/>
  <path d="M 242.5 114.28571428571433 Q 276.25 108.97959183673476 310.0 114.28571428571433" class="vertex-cup"/>
  <path d="M 175.0 111.63265306122454 Q 208.75 116.93877551020414 242.5 111.63265306122454" class="vertex-cap"/>
  <path d="M 175.0 103.67346938775512 Q 208.75 98.36734693877554 242.5 103.67346938775512" class="vertex-cup"/>
  <path d="M 107.5 90.40816326530617 Q 141.25 95.71428571428577 175.0 90.40816326530617" class="vertex-cap"/>
  <path d="M 107.5 82.44897959183675 Q 141.25 77.14285714285717 175.0 82.44897959183675" class="vertex-cup"/>
  <path d="M 107.5 79.79591836734696 Q 141.25 85.10204081632655 175.0 79.79591836734696" class="vertex-cap"/>
  <path d="M 40.0 71.83673469387759 Q 73.75 66.53061224489801 107.5 71.83673469387759" class="vertex-cup"/>
  <path d="M 40.0 69.1836734693878 Q 73.75 74.48979591836739 107.5 69.1836734693878" class="vertex-cap"/>
  <path d="M 107.5 50.612244897959215 Q 141.25 45.30612244897962 175.0 50.612244897959215" class="vertex-cup"/>
  <path d="M 40.0 47.95918367346942 Q 73.75 53.26530612244901 107.5 47.95918367346942" class="vertex-cap"/>
  <path d="M 175.0 40.0 Q 208.75 34.69387755102041 242.5 40.0" class="vertex-cup"/>
  <path d="M 107.5 37.3469387755102 Q 141.25 42.6530612244898 175.0 37.3469387755102" class="vertex-cap"/>
  <line x1="30" y1="560" x2="320" y2="560" class="axis"/>
  <line x1="30" y1="560" x2="30" y2="30" class="axis"/>
  <text x="175.0" y="590" class="label" text-anchor="middle">site</text>
  <text x="15" y="300.0" class="label" transform="rotate(-90, 15, 300.0)">τ (imaginary time)</text>
  <text x="40.0" y="580" class="label" text-anchor="middle">1</text>
  <text x="107.5" y="580" class="label" text-anchor="middle">2</text>
  <text x="175.0" y="580" class="label" text-anchor="middle">3</text>
  <text x="242.5" y="580" class="label" text-anchor="middle">4</text>
  <text x="310.0" y="580" class="label" text-anchor="middle">5</text>
  <text x="20" y="564.0" class="label" text-anchor="end">1</text>
  <text x="20" y="457.8775510204082" class="label" text-anchor="end">11</text>
  <text x="20" y="351.7551020408163" class="label" text-anchor="end">21</text>
  <text x="20" y="245.63265306122452" class="label" text-anchor="end">31</text>
  <text x="20" y="139.51020408163265" class="label" text-anchor="end">41</text>
  <text x="175.0" y="25" class="label" text-anchor="middle" font-weight="bold">TL Spacetime (n=5, n_τ=50, δ=1.41)</text>
</svg>