<?xml version="1.0" encoding="UTF-8"?>
<svg xmlns="http://www.w3.org/2000/svg" width="400" height="500" viewBox="0 0 400 500">
  <style>
    .worldline { stroke: #2563eb; stroke-width: 2; fill: none; }
    .site-dot { fill: #94a3b8; }
    .worldline-dot { fill: #2563eb; }
    .vertex-cup { fill: none; stroke: #16a34a; stroke-width: 2; }
    .vertex-cap { fill: none; stroke: #dc2626; stroke-width: 2; }
    .axis { stroke: #334155; stroke-width: 1; }
    .label { font-family: monospace; font-size: 12px; fill: #334155; }
  </style>
  <rect width="100%" height="100%" fill="white"/>

  <circle cx="40.0" cy="460.0" r="2" class="site-dot"/>
  <circle cx="93.33333333333334" cy="460.0" r="2" class="site-dot"/>
  <circle cx="146.66666666666669" cy="460.0" r="2" class="site-dot"/>
  <circle cx="200.0" cy="460.0" r="2" class="site-dot"/>
  <circle cx="253.33333333333334" cy="460.0" r="2" class="site-dot"/>
  <circle cx="306.6666666666667" cy="460.0" r="2" class="site-dot"/>
  <circle cx="360.0" cy="460.0" r="2" class="site-dot"/>
  <circle cx="40.0" cy="442.5" r="2" class="site-dot"/>
  <circle cx="93.33333333333334" cy="442.5" r="2" class="site-dot"/>
  <circle cx="146.66666666666669" cy="442.5" r="2" class="site-dot"/>
  <circle cx="200.0" cy="442.5" r="2" class="site-dot"/>
  <circle cx="253.33333333333334" cy="442.5" r="2" class="site-dot"/>
  <circle cx="306.6666666666667" cy="442.5" r="2" class="site-dot"/>
  <circle cx="360.0" cy="442.5" r="2" class="site-dot"/>
  <circle cx="40.0" cy="425.0" r="2" class="site-dot"/>
  <circle cx="93.33333333333334" cy="425.0" r="2" class="site-dot"/>
  <circle cx="146.66666666666669" cy="425.0" r="2" class="site-dot"/>
  <circle cx="200.0" cy="425.0" r="2" class="site-dot"/>
  <circle cx="253.33333333333334" cy="425.0" r="2" class="site-dot"/>
  <circle cx="306.6666666666667" cy="425.0" r="2" class="site-dot"/>
  <circle cx="360.0" cy="425.0" r="2" class="site-dot"/>
  <circle cx="40.0" cy="407.5" r="2" class="site-dot"/>
  <circle cx="93.33333333333334" cy="407.5" r="2" class="site-dot"/>
  <circle cx="146.66666666666669" cy="407.5" r="2" class="site-dot"/>
  <circle cx="200.0" cy="407.5" r="2" class="site-dot"/>
  <circle cx="253.33333333333334" cy="407.5" r="2" class="site-dot"/>
  <circle cx="306.6666666666667" cy="407.5" r="2" class="site-dot"/>
  <circle cx="360.0" cy="407.5" r="2" class="site-dot"/>
  <circle cx="40.0" cy="390.0" r="2" class="site-dot"/>
  <circle cx="93.33333333333334" cy="390.0" r="2" class="site-dot"/>
  <circle cx="146.66666666666669" cy="390.0" r="2" class="site-dot"/>
  <circle cx="200.0" cy="390.0" r="2" class="site-dot"/>
  <circle cx="253.33333333333334" cy="390.0" r="2" class="site-dot"/>
  <circle cx="306.6666666666667" cy="390.0" r="2" class="site-dot"/>
  <circle cx="360.0" cy="390.0" r="2" class="site-dot"/>
  <circle cx="40.0" cy="372.5" r="2" class="site-dot"/>
  <circle cx="93.33333333333334" cy="372.5" r="2" class="site-dot"/>
  <circle cx="146.66666666666669" cy="372.5" r="2" class="site-dot"/>
  <circle cx="200.0" cy="372.5" r="2" class="site-dot"/>
  <circle cx="253.33333333333334" cy="372.5" r="2" class="site-dot"/>
  <circle cx="306.6666666666667" cy="372.5" r="2" class="site-dot"/>
  <circle cx="360.0" cy="372.5" r="2" class="site-dot"/>
  <circle cx="40.0" cy="355.0" r="2" class="site-dot"/>
  <circle cx="93.33333333333334" cy="355.0" r="2" class="site-dot"/>
  <circle cx="146.66666666666669" cy="355.0" r="2" class="site-dot"/>
  <circle cx="200.0" cy="355.0" r="2" class="site-dot"/>
  <circle cx="253.33333333333334" cy="355.0" r="2" class="site-dot"/>
  <circle cx="306.6666666666667" cy="355.0" r="2" class="site-dot"/>
  <circle cx="360.0" cy="355.0" r="2" class="site-dot"/>
  <circle cx="40.0" cy="337.5" r="2" class="site-dot"/>
  <circle cx="93.33333333333334" cy="337.5" r="2" class="site-dot"/>
  <circle cx="146.66666666666669" cy="337.5" r="2" class="site-dot"/>
  <circle cx="200.0" cy="337.5" r="2" class="site-dot"/>
  <circle cx="253.33333333333334" cy="337.5" r="2" class="site-dot"/>
  <circle cx="306.6666666666667" cy="337.5" r="2" class="site-dot"/>
  <circle cx="360.0" cy="337.5" r="2" class="site-dot"/>
  <circle cx="40.0" cy="320.0" r="2" class="site-dot"/>
  <circle cx="93.33333333333334" cy="320.0" r="2" class="site-dot"/>
  <circle cx="146.66666666666669" cy="320.0" r="2" class="site-dot"/>
  <circle cx="200.0" cy="320.0" r="2" class="site-dot"/>
  <circle cx="253.33333333333334" cy="320.0" r="2" class="site-dot"/>
  <circle cx="306.6666666666667" cy="320.0" r="2" class="site-dot"/>
  <circle cx="360.0" cy="320.0" r="2" class="site-dot"/>
  <circle cx="40.0" cy="302.5" r="2" class="site-dot"/>
  <circle cx="93.33333333333334" cy="302.5" r="2" class="site-dot"/>
  <circle cx="146.66666666666669" cy="302.5" r="2" class="site-dot"/>
  <circle cx="200.0" cy="302.5" r="2" class="site-dot"/>
  <circle cx="253.33333333333334" cy="302.5" r="2" class="site-dot"/>
  <circle cx="306.6666666666667" cy="302.5" r="2" class="site-dot"/>
  <circle cx="360.0" cy="302.5" r="2" class="site-dot"/>
  <circle cx="40.0" cy="285.0" r="2" class="site-dot"/>
  <circle cx="93.33333333333334" cy="285.0" r="2" class="site-dot"/>
  <circle cx="146.66666666666669" cy="285.0" r="2" class="site-dot"/>
  <circle cx="200.0" cy="285.0" r="2" class="site-dot"/>
  <circle cx="253.33333333333334" cy="285.0" r="2" class="site-dot"/>
  <circle cx="306.6666666666667" cy="285.0" r="2" class="site-dot"/>
  <circle cx="360.0" cy="285.0" r="2" class="site-dot"/>
  <circle cx="40.0" cy="267.5" r="2" class="site-dot"/>
  <circle cx="93.33333333333334" cy="267.5" r="2" class="site-dot"/>
  <circle cx="146.66666666666669" cy="267.5" r="2" class="site-dot"/>
  <circle cx="200.0" cy="267.5" r="2" class="site-dot"/>
  <circle cx="253.33333333333334" cy="267.5" r="2" class="site-dot"/>
  <circle cx="306.6666666666667" cy="267.5" r="2" class="site-dot"/>
  <circle cx="360.0" cy="267.5" r="2" class="site-dot"/>
  <circle cx="40.0" cy="250.0" r="2" class="site-dot"/>
  <circle cx="93.33333333333334" cy="250.0" r="2" class="site-dot"/>
  <circle cx="146.66666666666669" cy="250.0" r="2" class="site-dot"/>
  <circle cx="200.0" cy="250.0" r="2" class="site-dot"/>
  <circle cx="253.33333333333334" cy="250.0" r="2" class="site-dot"/>
  <circle cx="306.6666666666667" cy="250.0" r="2" class="site-dot"/>
  <circle cx="360.0" cy="250.0" r="2" class="site-dot"/>
  <circle cx="40.0" cy="232.5" r="2" class="site-dot"/>
  <circle cx="93.33333333333334" cy="232.5" r="2" class="site-dot"/>
  <circle cx="146.66666666666669" cy="232.5" r="2" class="site-dot"/>
  <circle cx="200.0" cy="232.5" r="2" class="site-dot"/>
  <circle cx="253.33333333333334" cy="232.5" r="2" class="site-dot"/>
  <circle cx="306.6666666666667" cy="232.5" r="2" class="site-dot"/>
  <circle cx="360.0" cy="232.5" r="2" class="site-dot"/>
  <circle cx="40.0" cy="215.0" r="2" class="site-dot"/>
  <circle cx="93.33333333333334" cy="215.0" r="2" class="site-dot"/>
  <circle cx="146.66666666666669" cy="215.0" r="2" class="site-dot"/>
  <circle cx="200.0" cy="215.0" r="2" class="site-dot"/>
  <circle cx="253.33333333333334" cy="215.0" r="2" class="site-dot"/>
  <circle cx="306.6666666666667" cy="215.0" r="2" class="site-dot"/>
  <circle cx="360.0" cy="215.0" r="2" class="site-dot"/>
  <circle cx="40.0" cy="197.5" r="2" class="site-dot"/>
  <circle cx="93.33333333333334" cy="197.5" r="2" class="site-dot"/>
  <circle cx="146.66666666666669" cy="197.5" r="2" class="site-dot"/>
  <circle cx="200.0" cy="197.5" r="2" class="site-dot"/>
  <circle cx="253.33333333333334" cy="197.5" r="2" class="site-dot"/>
  <circle cx="306.6666666666667" cy="197.5" r="2" class="site-dot"/>
  <circle cx="360.0" cy="197.5" r="2" class="site-dot"/>
  <circle cx="40.0" cy="180.0" r="2" class="site-dot"/>
  <circle cx="93.33333333333334" cy="180.0" r="2" class="site-dot"/>
  <circle cx="146.66666666666669" cy="180.0" r="2" class="site-dot"/>
  <circle cx="200.0" cy="180.0" r="2" class="site-dot"/>
  <circle cx="253.33333333333334" cy="180.0" r="2" class="site-dot"/>
  <circle cx="306.6666666666667" cy="180.0" r="2" class="site-dot"/>
  <circle cx="360.0" cy="180.0" r="2" class="site-dot"/>
  <circle cx="40.0" cy="162.5" r="2" class="site-dot"/>
  <circle cx="93.33333333333334" cy="162.5" r="2" class="site-dot"/>
  <circle cx="146.66666666666669" cy="162.5" r="2" class="site-dot"/>
  <circle cx="200.0" cy="162.5" r="2" class="site-dot"/>
  <circle cx="253.33333333333334" cy="162.5" r="2" class="site-dot"/>
  <circle cx="306.6666666666667" cy="162.5" r="2" class="site-dot"/>
  <circle cx="360.0" cy="162.5" r="2" class="site-dot"/>
  <circle cx="40.0" cy="145.0" r="2" class="site-dot"/>
  <circle cx="93.33333333333334" cy="145.0" r="2" class="site-dot"/>
  <circle cx="146.66666666666669" cy="145.0" r="2" class="site-dot"/>
  <circle cx="200.0" cy="145.0" r="2" class="site-dot"/>
  <circle cx="253.33333333333334" cy="145.0" r="2" class="site-dot"/>
  <circle cx="306.6666666666667" cy="145.0" r="2" class="site-dot"/>
  <circle cx="360.0" cy="145.0" r="2" class="site-dot"/>
  <circle cx="40.0" cy="127.5" r="2" class="site-dot"/>
  <circle cx="93.33333333333334" cy="127.5" r="2" class="site-dot"/>
  <circle cx="146.66666666666669" cy="127.5" r="2" class="site-dot"/>
  <circle cx="200.0" cy="127.5" r="2" class="site-dot"/>
  <circle cx="253.33333333333334" cy="127.5" r="2" class="site-dot"/>
  <circle cx="306.6666666666667" cy="127.5" r="2" class="site-dot"/>
  <circle cx="360.0" cy="127.5" r="2" class="site-dot"/>
  <circle cx="40.0" cy="110.0" r="2" class="site-dot"/>
  <circle cx="93.33333333333334" cy="110.0" r="2" class="site-dot"/>
  <circle cx="146.66666666666669" cy="110.0" r="2" class="site-dot"/>
  <circle cx="200.0" cy="110.0" r="2" class="site-dot"/>
  <circle cx="253.33333333333334" cy="110.0" r="2" class="site-dot"/>
  <circle cx="306.6666666666667" cy="110.0" r="2" class="site-dot"/>
  <circle cx="360.0" cy="110.0" r="2" class="site-dot"/>
  <circle cx="40.0" cy="92.5" r="2" class="site-dot"/>
  <circle cx="93.33333333333334" cy="92.5" r="2" class="site-dot"/>
  <circle cx="146.66666666666669" cy="92.5" r="2" class="site-dot"/>
  <circle cx="200.0" cy="92.5" r="2" class="site-dot"/>
  <circle cx="253.33333333333334" cy="92.5" r="2" class="site-dot"/>
  <circle cx="306.6666666666667" cy="92.5" r="2" class="site-dot"/>
  <circle cx="360.0" cy="92.5" r="2" class="site-dot"/>
  <circle cx="40.0" cy="75.0" r="2" class="site-dot"/>
  <circle cx="93.33333333333334" cy="75.0" r="2" class="site-dot"/>
  <circle cx="146.66666666666669" cy="75.0" r="2" class="site-dot"/>
  <circle cx="200.0" cy="75.0" r="2" class="site-dot"/>
  <circle cx="253.33333333333334" cy="75.0" r="2" class="site-dot"/>
  <circle cx="306.6666666666667" cy="75.0" r="2" class="site-dot"/>
  <circle cx="360.0" cy="75.0" r="2" class="site-dot"/>
  <circle cx="40.0" cy="57.5" r="2" class="site-dot"/>
  <circle cx="93.33333333333334" cy="57.5" r="2" class="site-dot"/>
  <circle cx="146.66666666666669" cy="57.5" r="2" class="site-dot"/>
  <circle cx="200.0" cy="57.5" r="2" class="site-dot"/>
  <circle cx="253.33333333333334" cy="57.5" r="2" class="site-dot"/>
  <circle cx="306.6666666666667" cy="57.5" r="2" class="site-dot"/>
  <circle cx="360.0" cy="57.5" r="2" class="site-dot"/>
  <circle cx="40.0" cy="40.0" r="2" class="site-dot"/>
  <circle cx="93.33333333333334" cy="40.0" r="2" class="site-dot"/>
  <circle cx="146.66666666666669" cy="40.0" r="2" class="site-dot"/>
  <circle cx="200.0" cy="40.0" r="2" class="site-dot"/>
  <circle cx="253.33333333333334" cy="40.0" r="2" class="site-dot"/>
  <circle cx="306.6666666666667" cy="40.0" r="2" class="site-dot"/>
  <circle cx="360.0" cy="40.0" r="2" class="site-dot"/>
  <path d="M 200.0 390.0 L 200.0 372.5 L 200.0 355.0 L 200.0 337.5 L 200.0 320.0 L 200.0 302.5 L 200.0 285.0 L 200.0 267.5 L 200.0 250.0 L 200.0 232.5 L 200.0 215.0 L 200.0 197.5 L 200.0 180.0 L 200.0 162.5 L 200.0 145.0 L 200.0 127.5 L 200.0 110.0 L 200.0 92.5 L 200.0 75.0 L 200.0 57.5 L 200.0 40.0" class="worldline"/>
  <circle cx="200.0" cy="390.0" r="4" class="worldline-dot"/>
  <circle cx="200.0" cy="372.5" r="4" class="worldline-dot"/>
  <circle cx="200.0" cy="355.0" r="4" class="worldline-dot"/>
  <circle cx="200.0" cy="337.5" r="4" class="worldline-dot"/>
  <circle cx="200.0" cy="320.0" r="4" class="worldline-dot"/>
  <circle cx="200.0" cy="302.5" r="4" class="worldline-dot"/>
  <circle cx="200.0" cy="285.0" r="4" class="worldline-dot"/>
  <circle cx="200.0" cy="267.5" r="4" class="worldline-dot"/>
  <circle cx="200.0" cy="250.0" r="4" class="worldline-dot"/>
  <circle cx="200.0" cy="232.5" r="4" class="worldline-dot"/>
  <circle cx="200.0" cy="215.0" r="4" class="worldline-dot"/>
  <circle cx="200.0" cy="197.5" r="4" class="worldline-dot"/>
  <circle cx="200.0" cy="180.0" r="4" class="worldline-dot"/>
  <circle cx="200.0" cy="162.5" r="4" class="worldline-dot"/>
  <circle cx="200.0" cy="145.0" r="4" class="worldline-dot"/>
  <circle cx="200.0" cy="127.5" r="4" class="worldline-dot"/>
  <circle cx="200.0" cy="110.0" r="4" class="worldline-dot"/>
  <circle cx="200.0" cy="92.5" r="4" class="worldline-dot"/>
  <circle cx="200.0" cy="75.0" r="4" class="worldline-dot"/>
  <circle cx="200.0" cy="57.5" r="4" class="worldline-dot"/>
  <circle cx="200.0" cy="40.0" r="4" class="worldline-dot"/>
  <path d="M 253.33333333333334 390.0 L 253.33333333333334 372.5 L 253.33333333333334 355.0 L 306.6666666666667 337.5 L 306.6666666666667 320.0 L 306.6666666666667 302.5 L 306.6666666666667 285.0 L 306.6666666666667 267.5 L 306.6666666666667 250.0 L 253.33333333333334 232.5 L 253.33333333333334 215.0 L 253.33333333333334 197.5 L 253.33333333333334 180.0 L 253.33333333333334 162.5 L 253.33333333333334 145.0 L 253.33333333333334 127.5 L 253.33333333333334 110.0 L 253.33333333333334 92.5 L 306.6666666666667 75.0 L 306.6666666666667 57.5 L 306.6666666666667 40.0" class="worldline"/>
  <circle cx="253.33333333333334" cy="390.0" r="4" class="worldline-dot"/>
  <circle cx="253.33333333333334" cy="372.5" r="4" class="worldline-dot"/>
  <circle cx="253.33333333333334" cy="355.0" r="4" class="worldline-dot"/>
  <circle cx="306.6666666666667" cy="337.5" r="4" class="worldline-dot"/>
  <circle cx="306.6666666666667" cy="320.0" r="4" class="worldline-dot"/>
  <circle cx="306.6666666666667" cy="302.5" r="4" class="worldline-dot"/>
  <circle cx="306.6666666666667" cy="285.0" r="4" class="worldline-dot"/>
  <circle cx="306.6666666666667" cy="267.5" r="4" class="worldline-dot"/>
  <circle cx="306.6666666666667" cy="250.0" r="4" class="worldline-dot"/>
  <circle cx="253.33333333333334" cy="232.5" r="4" class="worldline-dot"/>
  <circle cx="253.33333333333334" cy="215.0" r="4" class="worldline-dot"/>
  <circle cx="253.33333333333334" cy="197.5" r="4" class="worldline-dot"/>
  <circle cx="253.33333333333334" cy="180.0" r="4" class="worldline-dot"/>
  <circle cx="253.33333333333334" cy="162.5" r="4" class="worldline-dot"/>
  <circle cx="253.33333333333334" cy="145.0" r="4" class="worldline-dot"/>
  <circle cx="253.33333333333334" cy="127.5" r="4" class="worldline-dot"/>
  <circle cx="253.33333333333334" cy="110.0" r="4" class="worldline-dot"/>
  <circle cx="253.33333333333334" cy="92.5" r="4" class="worldline-dot"/>
  <circle cx="306.6666666666667" cy="75.0" r="4" class="worldline-dot"/>
  <circle cx="306.6666666666667" cy="57.5" r="4" class="worldline-dot"/>
  <circle cx="306.6666666666667" cy="40.0" r="4" class="worldline-dot"/>
  <path d="M 40.0 162.5 L 40.0 145.0 L 40.0 127.5 L 40.0 110.0 L 40.0 92.5 L 40.0 75.0 L 40.0 57.5 L 40.0 40.0" class="worldline"/>
  <circle cx="40.0" cy="162.5" r="4" class="worldline-dot"/>
  <circle cx="40.0" cy="145.0" r="4" class="worldline-dot"/>
  <circle cx="40.0" cy="127.5" r="4" class="worldline-dot"/>
  <circle cx="40.0" cy="110.0" r="4" class="worldline-dot"/>
  <circle cx="40.0" cy="92.5" r="4" class="worldline-dot"/>
  <circle cx="40.0" cy="75.0" r="4" class="worldline-dot"/>
  <circle cx="40.0" cy="57.5" r="4" class="worldline-dot"/>
  <circle cx="40.0" cy="40.0" r="4" class="worldline-dot"/>
  <path d="M 93.33333333333334 162.5 L 93.33333333333334 145.0 L 93.33333333333334 127.5 L 93.33333333333334 110.0 L 93.33333333333334 92.5 L 93.33333333333334 75.0 L 93.33333333333334 57.5 L 93.33333333333334 40.0" class="worldline"/>
  <circle cx="93.33333333333334" cy="162.5" r="4" class="worldline-dot"/>
  <circle cx="93.33333333333334" cy="145.0" r="4" class="worldline-dot"/>
  <circle cx="93.33333333333334" cy="127.5" r="4" class="worldline-dot"/>
  <circle cx="93.33333333333334" cy="110.0" r="4" class="worldline-dot"/>
  <circle cx="93.33333333333334" cy="92.5" r="4" class="worldline-dot"/>
  <circle cx="93.33333333333334" cy="75.0" r="4" class="worldline-dot"/>
  <circle cx="93.33333333333334" cy="57.5" r="4" class="worldline-dot"/>
  <circle cx="93.33333333333334" cy="40.0" r="4" class="worldline-dot"/>
  <path d="M 200.0 390.0 Q 226.66666666666669 381.25 253.33333333333334 390.0" class="vertex-cup"/>
  <path d="M 40.0 162.5 Q 66.66666666666667 153.75 93.33333333333334 162.5" class="vertex-cup"/>
  <line x1="30" y1="460" x2="370" y2="460" class="axis"/>
  <line x1="30" y1="460" x2="30" y2="30" class="axis"/>
  <text x="200.0" y="490" class="label" text-anchor="middle">site</text>
  <text x="15" y="250.0" class="label" transform="rotate(-90, 15, 250.0)">τ (imaginary time)</text>
  <text x="40.0" y="480" class="label" text-anchor="middle">1</text>
  <text x="93.33333333333334" y="480" class="label" text-anchor="middle">2</text>
  <text x="146.66666666666669" y="480" class="label" text-anchor="middle">3</text>
  <text x="200.0" y="480" class="label" text-anchor="middle">4</text>
  <text x="253.33333333333334" y="480" class="label" text-anchor="middle">5</text>
  <text x="306.6666666666667" y="480" class="label" text-anchor="middle">6</text>
  <text x="360.0" y="480" class="label" text-anchor="middle">7</text>
  <text x="20" y="464.0" class="label" text-anchor="end">1</text>
  <text x="20" y="376.5" class="label" text-anchor="end">6</text>
  <text x="20" y="289.0" class="label" text-anchor="end">11</text>
  <text x="20" y="201.5" class="label" text-anchor="end">16</text>
  <text x="20" y="114.0" class="label" text-anchor="end">21</text>
  <text x="200.0" y="25" class="label" text-anchor="middle" font-weight="bold">TL Spacetime (n=7, n_τ=25, δ=1.62)</text>
</svg>