<?xml version="1.0" encoding="UTF-8"?>
<svg xmlns="http://www.w3.org/2000/svg" width="400" height="500" viewBox="0 0 400 500">
  <style>
    .worldline { stroke: #2563eb; stroke-width: 2; fill: none; }
    .site-dot { fill: #94a3b8; }
    .worldline-dot { fill: #2563eb; }
    .vertex-cup { fill: none; stroke: #16a34a; stroke-width: 2; }
    .vertex-cap { fill: none; stroke: #dc2626; stroke-width: 2; }
    .axis { stroke: #334155; stroke-width: 1; }
    .label { font-family: monospace; font-size: 12px; fill: #334155; }
  </style>
  <rect width="100%" height="100%" fill="white"/>

  <circle cx="40.0" cy="460.0" r="2" class="site-dot"/>
  <circle cx="120.0" cy="460.0" r="2" class="site-dot"/>
  <circle cx="200.0" cy="460.0" r="2" class="site-dot"/>
  <circle cx="280.0" cy="460.0" r="2" class="site-dot"/>
  <circle cx="360.0" cy="460.0" r="2" class="site-dot"/>
  <circle cx="40.0" cy="430.0" r="2" class="site-dot"/>
  <circle cx="120.0" cy="430.0" r="2" class="site-dot"/>
  <circle cx="200.0" cy="430.0" r="2" class="site-dot"/>
  <circle cx="280.0" cy="430.0" r="2" class="site-dot"/>
  <circle cx="360.0" cy="430.0" r="2" class="site-dot"/>
  <circle cx="40.0" cy="400.0" r="2" class="site-dot"/>
  <circle cx="120.0" cy="400.0" r="2" class="site-dot"/>
  <circle cx="200.0" cy="400.0" r="2" class="site-dot"/>
  <circle cx="280.0" cy="400.0" r="2" class="site-dot"/>
  <circle cx="360.0" cy="400.0" r="2" class="site-dot"/>
  <circle cx="40.0" cy="370.0" r="2" class="site-dot"/>
  <circle cx="120.0" cy="370.0" r="2" class="site-dot"/>
  <circle cx="200.0" cy="370.0" r="2" class="site-dot"/>
  <circle cx="280.0" cy="370.0" r="2" class="site-dot"/>
  <circle cx="360.0" cy="370.0" r="2" class="site-dot"/>
  <circle cx="40.0" cy="340.0" r="2" class="site-dot"/>
  <circle cx="120.0" cy="340.0" r="2" class="site-dot"/>
  <circle cx="200.0" cy="340.0" r="2" class="site-dot"/>
  <circle cx="280.0" cy="340.0" r="2" class="site-dot"/>
  <circle cx="360.0" cy="340.0" r="2" class="site-dot"/>
  <circle cx="40.0" cy="310.0" r="2" class="site-dot"/>
  <circle cx="120.0" cy="310.0" r="2" class="site-dot"/>
  <circle cx="200.0" cy="310.0" r="2" class="site-dot"/>
  <circle cx="280.0" cy="310.0" r="2" class="site-dot"/>
  <circle cx="360.0" cy="310.0" r="2" class="site-dot"/>
  <circle cx="40.0" cy="280.0" r="2" class="site-dot"/>
  <circle cx="120.0" cy="280.0" r="2" class="site-dot"/>
  <circle cx="200.0" cy="280.0" r="2" class="site-dot"/>
  <circle cx="280.0" cy="280.0" r="2" class="site-dot"/>
  <circle cx="360.0" cy="280.0" r="2" class="site-dot"/>
  <circle cx="40.0" cy="250.0" r="2" class="site-dot"/>
  <circle cx="120.0" cy="250.0" r="2" class="site-dot"/>
  <circle cx="200.0" cy="250.0" r="2" class="site-dot"/>
  <circle cx="280.0" cy="250.0" r="2" class="site-dot"/>
  <circle cx="360.0" cy="250.0" r="2" class="site-dot"/>
  <circle cx="40.0" cy="220.0" r="2" class="site-dot"/>
  <circle cx="120.0" cy="220.0" r="2" class="site-dot"/>
  <circle cx="200.0" cy="220.0" r="2" class="site-dot"/>
  <circle cx="280.0" cy="220.0" r="2" class="site-dot"/>
  <circle cx="360.0" cy="220.0" r="2" class="site-dot"/>
  <circle cx="40.0" cy="190.0" r="2" class="site-dot"/>
  <circle cx="120.0" cy="190.0" r="2" class="site-dot"/>
  <circle cx="200.0" cy="190.0" r="2" class="site-dot"/>
  <circle cx="280.0" cy="190.0" r="2" class="site-dot"/>
  <circle cx="360.0" cy="190.0" r="2" class="site-dot"/>
  <circle cx="40.0" cy="160.0" r="2" class="site-dot"/>
  <circle cx="120.0" cy="160.0" r="2" class="site-dot"/>
  <circle cx="200.0" cy="160.0" r="2" class="site-dot"/>
  <circle cx="280.0" cy="160.0" r="2" class="site-dot"/>
  <circle cx="360.0" cy="160.0" r="2" class="site-dot"/>
  <circle cx="40.0" cy="130.0" r="2" class="site-dot"/>
  <circle cx="120.0" cy="130.0" r="2" class="site-dot"/>
  <circle cx="200.0" cy="130.0" r="2" class="site-dot"/>
  <circle cx="280.0" cy="130.0" r="2" class="site-dot"/>
  <circle cx="360.0" cy="130.0" r="2" class="site-dot"/>
  <circle cx="40.0" cy="100.0" r="2" class="site-dot"/>
  <circle cx="120.0" cy="100.0" r="2" class="site-dot"/>
  <circle cx="200.0" cy="100.0" r="2" class="site-dot"/>
  <circle cx="280.0" cy="100.0" r="2" class="site-dot"/>
  <circle cx="360.0" cy="100.0" r="2" class="site-dot"/>
  <circle cx="40.0" cy="70.0" r="2" class="site-dot"/>
  <circle cx="120.0" cy="70.0" r="2" class="site-dot"/>
  <circle cx="200.0" cy="70.0" r="2" class="site-dot"/>
  <circle cx="280.0" cy="70.0" r="2" class="site-dot"/>
  <circle cx="360.0" cy="70.0" r="2" class="site-dot"/>
  <circle cx="40.0" cy="40.0" r="2" class="site-dot"/>
  <circle cx="120.0" cy="40.0" r="2" class="site-dot"/>
  <circle cx="200.0" cy="40.0" r="2" class="site-dot"/>
  <circle cx="280.0" cy="40.0" r="2" class="site-dot"/>
  <circle cx="360.0" cy="40.0" r="2" class="site-dot"/>
  <line x1="30" y1="460" x2="370" y2="460" class="axis"/>
  <line x1="30" y1="460" x2="30" y2="30" class="axis"/>
  <text x="200.0" y="490" class="label" text-anchor="middle">site</text>
  <text x="15" y="250.0" class="label" transform="rotate(-90, 15, 250.0)">τ (imaginary time)</text>
  <text x="40.0" y="480" class="label" text-anchor="middle">1</text>
  <text x="120.0" y="480" class="label" text-anchor="middle">2</text>
  <text x="200.0" y="480" class="label" text-anchor="middle">3</text>
  <text x="280.0" y="480" class="label" text-anchor="middle">4</text>
  <text x="360.0" y="480" class="label" text-anchor="middle">5</text>
  <text x="20" y="464.0" class="label" text-anchor="end">1</text>
  <text x="20" y="374.0" class="label" text-anchor="end">4</text>
  <text x="20" y="284.0" class="label" text-anchor="end">7</text>
  <text x="20" y="194.0" class="label" text-anchor="end">10</text>
  <text x="20" y="104.0" class="label" text-anchor="end">13</text>
  <text x="200.0" y="25" class="label" text-anchor="middle" font-weight="bold">TL Spacetime (n=5, n_τ=15, δ=1.62)</text>
</svg>