<?xml version="1.0" encoding="UTF-8"?>
<svg xmlns="http://www.w3.org/2000/svg" width="280" height="400" viewBox="0 0 280 400">
  <style>
    .worldline { stroke: #2563eb; stroke-width: 2; fill: none; }
    .site-dot { fill: #94a3b8; }
    .worldline-dot { fill: #2563eb; }
    .vertex-cup { fill: none; stroke: #16a34a; stroke-width: 2; }
    .vertex-cap { fill: none; stroke: #dc2626; stroke-width: 2; }
    .axis { stroke: #334155; stroke-width: 1; }
    .label { font-family: monospace; font-size: 12px; fill: #334155; }
  </style>
  <rect width="100%" height="100%" fill="white"/>

  <circle cx="40.0" cy="360.0" r="2" class="site-dot"/>
  <circle cx="90.0" cy="360.0" r="2" class="site-dot"/>
  <circle cx="140.0" cy="360.0" r="2" class="site-dot"/>
  <circle cx="190.0" cy="360.0" r="2" class="site-dot"/>
  <circle cx="240.0" cy="360.0" r="2" class="site-dot"/>
  <circle cx="40.0" cy="348.9655172413793" r="2" class="site-dot"/>
  <circle cx="90.0" cy="348.9655172413793" r="2" class="site-dot"/>
  <circle cx="140.0" cy="348.9655172413793" r="2" class="site-dot"/>
  <circle cx="190.0" cy="348.9655172413793" r="2" class="site-dot"/>
  <circle cx="240.0" cy="348.9655172413793" r="2" class="site-dot"/>
  <circle cx="40.0" cy="337.9310344827586" r="2" class="site-dot"/>
  <circle cx="90.0" cy="337.9310344827586" r="2" class="site-dot"/>
  <circle cx="140.0" cy="337.9310344827586" r="2" class="site-dot"/>
  <circle cx="190.0" cy="337.9310344827586" r="2" class="site-dot"/>
  <circle cx="240.0" cy="337.9310344827586" r="2" class="site-dot"/>
  <circle cx="40.0" cy="326.8965517241379" r="2" class="site-dot"/>
  <circle cx="90.0" cy="326.8965517241379" r="2" class="site-dot"/>
  <circle cx="140.0" cy="326.8965517241379" r="2" class="site-dot"/>
  <circle cx="190.0" cy="326.8965517241379" r="2" class="site-dot"/>
  <circle cx="240.0" cy="326.8965517241379" r="2" class="site-dot"/>
  <circle cx="40.0" cy="315.8620689655172" r="2" class="site-dot"/>
  <circle cx="90.0" cy="315.8620689655172" r="2" class="site-dot"/>
  <circle cx="140.0" cy="315.8620689655172" r="2" class="site-dot"/>
  <circle cx="190.0" cy="315.8620689655172" r="2" class="site-dot"/>
  <circle cx="240.0" cy="315.8620689655172" r="2" class="site-dot"/>
  <circle cx="40.0" cy="304.82758620689657" r="2" class="site-dot"/>
  <circle cx="90.0" cy="304.82758620689657" r="2" class="site-dot"/>
  <circle cx="140.0" cy="304.82758620689657" r="2" class="site-dot"/>
  <circle cx="190.0" cy="304.82758620689657" r="2" class="site-dot"/>
  <circle cx="240.0" cy="304.82758620689657" r="2" class="site-dot"/>
  <circle cx="40.0" cy="293.7931034482759" r="2" class="site-dot"/>
  <circle cx="90.0" cy="293.7931034482759" r="2" class="site-dot"/>
  <circle cx="140.0" cy="293.7931034482759" r="2" class="site-dot"/>
  <circle cx="190.0" cy="293.7931034482759" r="2" class="site-dot"/>
  <circle cx="240.0" cy="293.7931034482759" r="2" class="site-dot"/>
  <circle cx="40.0" cy="282.7586206896552" r="2" class="site-dot"/>
  <circle cx="90.0" cy="282.7586206896552" r="2" class="site-dot"/>
  <circle cx="140.0" cy="282.7586206896552" r="2" class="site-dot"/>
  <circle cx="190.0" cy="282.7586206896552" r="2" class="site-dot"/>
  <circle cx="240.0" cy="282.7586206896552" r="2" class="site-dot"/>
  <circle cx="40.0" cy="271.7241379310345" r="2" class="site-dot"/>
  <circle cx="90.0" cy="271.7241379310345" r="2" class="site-dot"/>
  <circle cx="140.0" cy="271.7241379310345" r="2" class="site-dot"/>
  <circle cx="190.0" cy="271.7241379310345" r="2" class="site-dot"/>
  <circle cx="240.0" cy="271.7241379310345" r="2" class="site-dot"/>
  <circle cx="40.0" cy="260.6896551724138" r="2" class="site-dot"/>
  <circle cx="90.0" cy="260.6896551724138" r="2" class="site-dot"/>
  <circle cx="140.0" cy="260.6896551724138" r="2" class="site-dot"/>
  <circle cx="190.0" cy="260.6896551724138" r="2" class="site-dot"/>
  <circle cx="240.0" cy="260.6896551724138" r="2" class="site-dot"/>
  <circle cx="40.0" cy="249.65517241379308" r="2" class="site-dot"/>
  <circle cx="90.0" cy="249.65517241379308" r="2" class="site-dot"/>
  <circle cx="140.0" cy="249.65517241379308" r="2" class="site-dot"/>
  <circle cx="190.0" cy="249.65517241379308" r="2" class="site-dot"/>
  <circle cx="240.0" cy="249.65517241379308" r="2" class="site-dot"/>
  <circle cx="40.0" cy="238.6206896551724" r="2" class="site-dot"/>
  <circle cx="90.0" cy="238.6206896551724" r="2" class="site-dot"/>
  <circle cx="140.0" cy="238.6206896551724" r="2" class="site-dot"/>
  <circle cx="190.0" cy="238.6206896551724" r="2" class="site-dot"/>
  <circle cx="240.0" cy="238.6206896551724" r="2" class="site-dot"/>
  <circle cx="40.0" cy="227.58620689655172" r="2" class="site-dot"/>
  <circle cx="90.0" cy="227.58620689655172" r="2" class="site-dot"/>
  <circle cx="140.0" cy="227.58620689655172" r="2" class="site-dot"/>
  <circle cx="190.0" cy="227.58620689655172" r="2" class="site-dot"/>
  <circle cx="240.0" cy="227.58620689655172" r="2" class="site-dot"/>
  <circle cx="40.0" cy="216.55172413793102" r="2" class="site-dot"/>
  <circle cx="90.0" cy="216.55172413793102" r="2" class="site-dot"/>
  <circle cx="140.0" cy="216.55172413793102" r="2" class="site-dot"/>
  <circle cx="190.0" cy="216.55172413793102" r="2" class="site-dot"/>
  <circle cx="240.0" cy="216.55172413793102" r="2" class="site-dot"/>
  <circle cx="40.0" cy="205.51724137931035" r="2" class="site-dot"/>
  <circle cx="90.0" cy="205.51724137931035" r="2" class="site-dot"/>
  <circle cx="140.0" cy="205.51724137931035" r="2" class="site-dot"/>
  <circle cx="190.0" cy="205.51724137931035" r="2" class="site-dot"/>
  <circle cx="240.0" cy="205.51724137931035" r="2" class="site-dot"/>
  <circle cx="40.0" cy="194.48275862068965" r="2" class="site-dot"/>
  <circle cx="90.0" cy="194.48275862068965" r="2" class="site-dot"/>
  <circle cx="140.0" cy="194.48275862068965" r="2" class="site-dot"/>
  <circle cx="190.0" cy="194.48275862068965" r="2" class="site-dot"/>
  <circle cx="240.0" cy="194.48275862068965" r="2" class="site-dot"/>
  <circle cx="40.0" cy="183.44827586206895" r="2" class="site-dot"/>
  <circle cx="90.0" cy="183.44827586206895" r="2" class="site-dot"/>
  <circle cx="140.0" cy="183.44827586206895" r="2" class="site-dot"/>
  <circle cx="190.0" cy="183.44827586206895" r="2" class="site-dot"/>
  <circle cx="240.0" cy="183.44827586206895" r="2" class="site-dot"/>
  <circle cx="40.0" cy="172.41379310344826" r="2" class="site-dot"/>
  <circle cx="90.0" cy="172.41379310344826" r="2" class="site-dot"/>
  <circle cx="140.0" cy="172.41379310344826" r="2" class="site-dot"/>
  <circle cx="190.0" cy="172.41379310344826" r="2" class="site-dot"/>
  <circle cx="240.0" cy="172.41379310344826" r="2" class="site-dot"/>
  <circle cx="40.0" cy="161.37931034482756" r="2" class="site-dot"/>
  <circle cx="90.0" cy="161.37931034482756" r="2" class="site-dot"/>
  <circle cx="140.0" cy="161.37931034482756" r="2" class="site-dot"/>
  <circle cx="190.0" cy="161.37931034482756" r="2" class="site-dot"/>
  <circle cx="240.0" cy="161.37931034482756" r="2" class="site-dot"/>
  <circle cx="40.0" cy="150.3448275862069" r="2" class="site-dot"/>
  <circle cx="90.0" cy="150.3448275862069" r="2" class="site-dot"/>
  <circle cx="140.0" cy="150.3448275862069" r="2" class="site-dot"/>
  <circle cx="190.0" cy="150.3448275862069" r="2" class="site-dot"/>
  <circle cx="240.0" cy="150.3448275862069" r="2" class="site-dot"/>
  <circle cx="40.0" cy="139.3103448275862" r="2" class="site-dot"/>
  <circle cx="90.0" cy="139.3103448275862" r="2" class="site-dot"/>
  <circle cx="140.0" cy="139.3103448275862" r="2" class="site-dot"/>
  <circle cx="190.0" cy="139.3103448275862" r="2" class="site-dot"/>
  <circle cx="240.0" cy="139.3103448275862" r="2" class="site-dot"/>
  <circle cx="40.0" cy="128.2758620689655" r="2" class="site-dot"/>
  <circle cx="90.0" cy="128.2758620689655" r="2" class="site-dot"/>
  <circle cx="140.0" cy="128.2758620689655" r="2" class="site-dot"/>
  <circle cx="190.0" cy="128.2758620689655" r="2" class="site-dot"/>
  <circle cx="240.0" cy="128.2758620689655" r="2" class="site-dot"/>
  <circle cx="40.0" cy="117.24137931034483" r="2" class="site-dot"/>
  <circle cx="90.0" cy="117.24137931034483" r="2" class="site-dot"/>
  <circle cx="140.0" cy="117.24137931034483" r="2" class="site-dot"/>
  <circle cx="190.0" cy="117.24137931034483" r="2" class="site-dot"/>
  <circle cx="240.0" cy="117.24137931034483" r="2" class="site-dot"/>
  <circle cx="40.0" cy="106.20689655172413" r="2" class="site-dot"/>
  <circle cx="90.0" cy="106.20689655172413" r="2" class="site-dot"/>
  <circle cx="140.0" cy="106.20689655172413" r="2" class="site-dot"/>
  <circle cx="190.0" cy="106.20689655172413" r="2" class="site-dot"/>
  <circle cx="240.0" cy="106.20689655172413" r="2" class="site-dot"/>
  <circle cx="40.0" cy="95.17241379310343" r="2" class="site-dot"/>
  <circle cx="90.0" cy="95.17241379310343" r="2" class="site-dot"/>
  <circle cx="140.0" cy="95.17241379310343" r="2" class="site-dot"/>
  <circle cx="190.0" cy="95.17241379310343" r="2" class="site-dot"/>
  <circle cx="240.0" cy="95.17241379310343" r="2" class="site-dot"/>
  <circle cx="40.0" cy="84.13793103448273" r="2" class="site-dot"/>
  <circle cx="90.0" cy="84.13793103448273" r="2" class="site-dot"/>
  <circle cx="140.0" cy="84.13793103448273" r="2" class="site-dot"/>
  <circle cx="190.0" cy="84.13793103448273" r="2" class="site-dot"/>
  <circle cx="240.0" cy="84.13793103448273" r="2" class="site-dot"/>
  <circle cx="40.0" cy="73.10344827586204" r="2" class="site-dot"/>
  <circle cx="90.0" cy="73.10344827586204" r="2" class="site-dot"/>
  <circle cx="140.0" cy="73.10344827586204" r="2" class="site-dot"/>
  <circle cx="190.0" cy="73.10344827586204" r="2" class="site-dot"/>
  <circle cx="240.0" cy="73.10344827586204" r="2" class="site-dot"/>
  <circle cx="40.0" cy="62.06896551724134" r="2" class="site-dot"/>
  <circle cx="90.0" cy="62.06896551724134" r="2" class="site-dot"/>
  <circle cx="140.0" cy="62.06896551724134" r="2" class="site-dot"/>
  <circle cx="190.0" cy="62.06896551724134" r="2" class="site-dot"/>
  <circle cx="240.0" cy="62.06896551724134" r="2" class="site-dot"/>
  <circle cx="40.0" cy="51.0344827586207" r="2" class="site-dot"/>
  <circle cx="90.0" cy="51.0344827586207" r="2" class="site-dot"/>
  <circle cx="140.0" cy="51.0344827586207" r="2" class="site-dot"/>
  <circle cx="190.0" cy="51.0344827586207" r="2" class="site-dot"/>
  <circle cx="240.0" cy="51.0344827586207" r="2" class="site-dot"/>
  <circle cx="40.0" cy="40.0" r="2" class="site-dot"/>
  <circle cx="90.0" cy="40.0" r="2" class="site-dot"/>
  <circle cx="140.0" cy="40.0" r="2" class="site-dot"/>
  <circle cx="190.0" cy="40.0" r="2" class="site-dot"/>
  <circle cx="240.0" cy="40.0" r="2" class="site-dot"/>
  <path d="M 40.0 348.9655172413793" class="worldline"/>
  <circle cx="40.0" cy="348.9655172413793" r="4" class="worldline-dot"/>
  <path d="M 90.0 348.9655172413793" class="worldline"/>
  <circle cx="90.0" cy="348.9655172413793" r="4" class="worldline-dot"/>
  <path d="M 190.0 337.9310344827586 L 140.0 326.8965517241379 L 190.0 315.8620689655172 L 140.0 304.82758620689657 L 90.0 293.7931034482759 L 90.0 282.7586206896552" class="worldline"/>
  <circle cx="190.0" cy="337.9310344827586" r="4" class="worldline-dot"/>
  <circle cx="140.0" cy="326.8965517241379" r="4" class="worldline-dot"/>
  <circle cx="190.0" cy="315.8620689655172" r="4" class="worldline-dot"/>
  <circle cx="140.0" cy="304.82758620689657" r="4" class="worldline-dot"/>
  <circle cx="90.0" cy="293.7931034482759" r="4" class="worldline-dot"/>
  <circle cx="90.0" cy="282.7586206896552" r="4" class="worldline-dot"/>
  <path d="M 240.0 337.9310344827586 L 240.0 326.8965517241379 L 240.0 315.8620689655172 L 190.0 304.82758620689657 L 190.0 293.7931034482759 L 190.0 282.7586206896552" class="worldline"/>
  <circle cx="240.0" cy="337.9310344827586" r="4" class="worldline-dot"/>
  <circle cx="240.0" cy="326.8965517241379" r="4" class="worldline-dot"/>
  <circle cx="240.0" cy="315.8620689655172" r="4" class="worldline-dot"/>
  <circle cx="190.0" cy="304.82758620689657" r="4" class="worldline-dot"/>
  <circle cx="190.0" cy="293.7931034482759" r="4" class="worldline-dot"/>
  <circle cx="190.0" cy="282.7586206896552" r="4" class="worldline-dot"/>
  <path d="M 40.0 238.6206896551724 L 40.0 227.58620689655172 L 40.0 216.55172413793102 L 40.0 205.51724137931035 L 90.0 194.48275862068965 L 90.0 183.44827586206895 L 90.0 172.41379310344826 L 90.0 161.37931034482756 L 40.0 150.3448275862069 L 90.0 139.3103448275862 L 40.0 128.2758620689655 L 40.0 117.24137931034483 L 90.0 106.20689655172413" class="worldline"/>
  <circle cx="40.0" cy="238.6206896551724" r="4" class="worldline-dot"/>
  <circle cx="40.0" cy="227.58620689655172" r="4" class="worldline-dot"/>
  <circle cx="40.0" cy="216.55172413793102" r="4" class="worldline-dot"/>
  <circle cx="40.0" cy="205.51724137931035" r="4" class="worldline-dot"/>
  <circle cx="90.0" cy="194.48275862068965" r="4" class="worldline-dot"/>
  <circle cx="90.0" cy="183.44827586206895" r="4" class="worldline-dot"/>
  <circle cx="90.0" cy="172.41379310344826" r="4" class="worldline-dot"/>
  <circle cx="90.0" cy="161.37931034482756" r="4" class="worldline-dot"/>
  <circle cx="40.0" cy="150.3448275862069" r="4" class="worldline-dot"/>
  <circle cx="90.0" cy="139.3103448275862" r="4" class="worldline-dot"/>
  <circle cx="40.0" cy="128.2758620689655" r="4" class="worldline-dot"/>
  <circle cx="40.0" cy="117.24137931034483" r="4" class="worldline-dot"/>
  <circle cx="90.0" cy="106.20689655172413" r="4" class="worldline-dot"/>
  <path d="M 90.0 238.6206896551724 L 90.0 227.58620689655172 L 90.0 216.55172413793102" class="worldline"/>
  <circle cx="90.0" cy="238.6206896551724" r="4" class="worldline-dot"/>
  <circle cx="90.0" cy="227.58620689655172" r="4" class="worldline-dot"/>
  <circle cx="90.0" cy="216.55172413793102" r="4" class="worldline-dot"/>
  <path d="M 190.0 227.58620689655172 L 190.0 216.55172413793102" class="worldline"/>
  <circle cx="190.0" cy="227.58620689655172" r="4" class="worldline-dot"/>
  <circle cx="190.0" cy="216.55172413793102" r="4" class="worldline-dot"/>
  <path d="M 240.0 227.58620689655172 L 240.0 216.55172413793102 L 190.0 205.51724137931035 L 190.0 194.48275862068965 L 190.0 183.44827586206895 L 190.0 172.41379310344826 L 190.0 161.37931034482756 L 240.0 150.3448275862069 L 240.0 139.3103448275862" class="worldline"/>
  <circle cx="240.0" cy="227.58620689655172" r="4" class="worldline-dot"/>
  <circle cx="240.0" cy="216.55172413793102" r="4" class="worldline-dot"/>
  <circle cx="190.0" cy="205.51724137931035" r="4" class="worldline-dot"/>
  <circle cx="190.0" cy="194.48275862068965" r="4" class="worldline-dot"/>
  <circle cx="190.0" cy="183.44827586206895" r="4" class="worldline-dot"/>
  <circle cx="190.0" cy="172.41379310344826" r="4" class="worldline-dot"/>
  <circle cx="190.0" cy="161.37931034482756" r="4" class="worldline-dot"/>
  <circle cx="240.0" cy="150.3448275862069" r="4" class="worldline-dot"/>
  <circle cx="240.0" cy="139.3103448275862" r="4" class="worldline-dot"/>
  <path d="M 140.0 128.2758620689655" class="worldline"/>
  <circle cx="140.0" cy="128.2758620689655" r="4" class="worldline-dot"/>
  <path d="M 240.0 117.24137931034483 L 190.0 106.20689655172413 L 240.0 95.17241379310343 L 190.0 84.13793103448273 L 240.0 73.10344827586204 L 240.0 62.06896551724134 L 240.0 51.0344827586207 L 240.0 40.0" class="worldline"/>
  <circle cx="240.0" cy="117.24137931034483" r="4" class="worldline-dot"/>
  <circle cx="190.0" cy="106.20689655172413" r="4" class="worldline-dot"/>
  <circle cx="240.0" cy="95.17241379310343" r="4" class="worldline-dot"/>
  <circle cx="190.0" cy="84.13793103448273" r="4" class="worldline-dot"/>
  <circle cx="240.0" cy="73.10344827586204" r="4" class="worldline-dot"/>
  <circle cx="240.0" cy="62.06896551724134" r="4" class="worldline-dot"/>
  <circle cx="240.0" cy="51.0344827586207" r="4" class="worldline-dot"/>
  <circle cx="240.0" cy="40.0" r="4" class="worldline-dot"/>
  <path d="M 40.0 95.17241379310343 L 90.0 84.13793103448273 L 140.0 73.10344827586204 L 90.0 62.06896551724134" class="worldline"/>
  <circle cx="40.0" cy="95.17241379310343" r="4" class="worldline-dot"/>
  <circle cx="90.0" cy="84.13793103448273" r="4" class="worldline-dot"/>
  <circle cx="140.0" cy="73.10344827586204" r="4" class="worldline-dot"/>
  <circle cx="90.0" cy="62.06896551724134" r="4" class="worldline-dot"/>
  <path d="M 190.0 51.0344827586207 L 190.0 40.0" class="worldline"/>
  <circle cx="190.0" cy="51.0344827586207" r="4" class="worldline-dot"/>
  <circle cx="190.0" cy="40.0" r="4" class="worldline-dot"/>
  <path d="M 40.0 40.0" class="worldline"/>
  <circle cx="40.0" cy="40.0" r="4" class="worldline-dot"/>
  <path d="M 90.0 40.0" class="worldline"/>
  <circle cx="90.0" cy="40.0" r="4" class="worldline-dot"/>
  <path d="M 40.0 348.9655172413793 Q 65.0 343.44827586206895 90.0 348.9655172413793" class="vertex-cup"/>
  <path d="M 190.0 337.9310344827586 Q 215.0 332.41379310344826 240.0 337.9310344827586" class="vertex-cup"/>
  <path d="M 40.0 335.17241379310343 Q 65.0 340.6896551724138 90.0 335.17241379310343" class="vertex-cap"/>
  <path d="M 40.0 326.8965517241379 Q 65.0 321.37931034482756 90.0 326.8965517241379" class="vertex-cup"/>
  <path d="M 40.0 324.13793103448273 Q 65.0 329.6551724137931 90.0 324.13793103448273" class="vertex-cap"/>
  <path d="M 40.0 304.82758620689657 Q 65.0 299.3103448275862 90.0 304.82758620689657" class="vertex-cup"/>
  <path d="M 40.0 302.0689655172414 Q 65.0 307.58620689655174 90.0 302.0689655172414" class="vertex-cap"/>
  <path d="M 140.0 268.9655172413793 Q 165.0 274.48275862068965 190.0 268.9655172413793" class="vertex-cap"/>
  <path d="M 40.0 260.6896551724138 Q 65.0 255.17241379310343 90.0 260.6896551724138" class="vertex-cup"/>
  <path d="M 40.0 257.9310344827586 Q 65.0 263.44827586206895 90.0 257.9310344827586" class="vertex-cap"/>
  <path d="M 40.0 249.65517241379308 Q 65.0 244.13793103448273 90.0 249.65517241379308" class="vertex-cup"/>
  <path d="M 40.0 246.8965517241379 Q 65.0 252.41379310344826 90.0 246.8965517241379" class="vertex-cap"/>
  <path d="M 40.0 238.6206896551724 Q 65.0 233.10344827586206 90.0 238.6206896551724" class="vertex-cup"/>
  <path d="M 190.0 227.58620689655172 Q 215.0 222.06896551724137 240.0 227.58620689655172" class="vertex-cup"/>
  <path d="M 90.0 202.75862068965517 Q 115.0 208.27586206896552 140.0 202.75862068965517" class="vertex-cap"/>
  <path d="M 140.0 128.2758620689655 Q 165.0 122.75862068965515 190.0 128.2758620689655" class="vertex-cup"/>
  <path d="M 190.0 125.51724137931032 Q 215.0 131.03448275862067 240.0 125.51724137931032" class="vertex-cap"/>
  <path d="M 190.0 117.24137931034483 Q 215.0 111.72413793103448 240.0 117.24137931034483" class="vertex-cup"/>
  <path d="M 140.0 114.48275862068965 Q 165.0 120.0 190.0 114.48275862068965" class="vertex-cap"/>
  <path d="M 40.0 95.17241379310343 Q 65.0 89.65517241379308 90.0 95.17241379310343" class="vertex-cup"/>
  <path d="M 90.0 92.41379310344826 Q 115.0 97.9310344827586 140.0 92.41379310344826" class="vertex-cap"/>
  <path d="M 140.0 51.0344827586207 Q 165.0 45.51724137931035 190.0 51.0344827586207" class="vertex-cup"/>
  <path d="M 90.0 48.27586206896552 Q 115.0 53.79310344827587 140.0 48.27586206896552" class="vertex-cap"/>
  <path d="M 40.0 40.0 Q 65.0 34.48275862068965 90.0 40.0" class="vertex-cup"/>
  <line x1="30" y1="360" x2="250" y2="360" class="axis"/>
  <line x1="30" y1="360" x2="30" y2="30" class="axis"/>
  <text x="140.0" y="390" class="label" text-anchor="middle">site</text>
  <text x="15" y="200.0" class="label" transform="rotate(-90, 15, 200.0)">τ (imaginary time)</text>
  <text x="40.0" y="380" class="label" text-anchor="middle">1</text>
  <text x="90.0" y="380" class="label" text-anchor="middle">2</text>
  <text x="140.0" y="380" class="label" text-anchor="middle">3</text>
  <text x="190.0" y="380" class="label" text-anchor="middle">4</text>
  <text x="240.0" y="380" class="label" text-anchor="middle">5</text>
  <text x="20" y="364.0" class="label" text-anchor="end">1</text>
  <text x="20" y="297.7931034482759" class="label" text-anchor="end">7</text>
  <text x="20" y="231.58620689655172" class="label" text-anchor="end">13</text>
  <text x="20" y="165.37931034482756" class="label" text-anchor="end">19</text>
  <text x="20" y="99.17241379310343" class="label" text-anchor="end">25</text>
  <text x="140.0" y="25" class="label" text-anchor="middle" font-weight="bold">TL Spacetime (n=5, n_τ=30, δ=1.62)</text>
</svg>