<?xml version="1.0" encoding="UTF-8"?>
<svg xmlns="http://www.w3.org/2000/svg" width="350" height="550" viewBox="0 0 350 550">
  <style>
    .worldline { stroke: #2563eb; stroke-width: 2; fill: none; }
    .site-dot { fill: #94a3b8; }
    .worldline-dot { fill: #2563eb; }
    .vertex-cup { fill: none; stroke: #16a34a; stroke-width: 2; }
    .vertex-cap { fill: none; stroke: #dc2626; stroke-width: 2; }
    .axis { stroke: #334155; stroke-width: 1; }
    .label { font-family: monospace; font-size: 12px; fill: #334155; }
  </style>
  <rect width="100%" height="100%" fill="white"/>

  <circle cx="40.0" cy="510.0" r="2" class="site-dot"/>
  <circle cx="107.5" cy="510.0" r="2" class="site-dot"/>
  <circle cx="175.0" cy="510.0" r="2" class="site-dot"/>
  <circle cx="242.5" cy="510.0" r="2" class="site-dot"/>
  <circle cx="310.0" cy="510.0" r="2" class="site-dot"/>
  <circle cx="40.0" cy="497.94871794871796" r="2" class="site-dot"/>
  <circle cx="107.5" cy="497.94871794871796" r="2" class="site-dot"/>
  <circle cx="175.0" cy="497.94871794871796" r="2" class="site-dot"/>
  <circle cx="242.5" cy="497.94871794871796" r="2" class="site-dot"/>
  <circle cx="310.0" cy="497.94871794871796" r="2" class="site-dot"/>
  <circle cx="40.0" cy="485.8974358974359" r="2" class="site-dot"/>
  <circle cx="107.5" cy="485.8974358974359" r="2" class="site-dot"/>
  <circle cx="175.0" cy="485.8974358974359" r="2" class="site-dot"/>
  <circle cx="242.5" cy="485.8974358974359" r="2" class="site-dot"/>
  <circle cx="310.0" cy="485.8974358974359" r="2" class="site-dot"/>
  <circle cx="40.0" cy="473.84615384615387" r="2" class="site-dot"/>
  <circle cx="107.5" cy="473.84615384615387" r="2" class="site-dot"/>
  <circle cx="175.0" cy="473.84615384615387" r="2" class="site-dot"/>
  <circle cx="242.5" cy="473.84615384615387" r="2" class="site-dot"/>
  <circle cx="310.0" cy="473.84615384615387" r="2" class="site-dot"/>
  <circle cx="40.0" cy="461.7948717948718" r="2" class="site-dot"/>
  <circle cx="107.5" cy="461.7948717948718" r="2" class="site-dot"/>
  <circle cx="175.0" cy="461.7948717948718" r="2" class="site-dot"/>
  <circle cx="242.5" cy="461.7948717948718" r="2" class="site-dot"/>
  <circle cx="310.0" cy="461.7948717948718" r="2" class="site-dot"/>
  <circle cx="40.0" cy="449.7435897435897" r="2" class="site-dot"/>
  <circle cx="107.5" cy="449.7435897435897" r="2" class="site-dot"/>
  <circle cx="175.0" cy="449.7435897435897" r="2" class="site-dot"/>
  <circle cx="242.5" cy="449.7435897435897" r="2" class="site-dot"/>
  <circle cx="310.0" cy="449.7435897435897" r="2" class="site-dot"/>
  <circle cx="40.0" cy="437.6923076923077" r="2" class="site-dot"/>
  <circle cx="107.5" cy="437.6923076923077" r="2" class="site-dot"/>
  <circle cx="175.0" cy="437.6923076923077" r="2" class="site-dot"/>
  <circle cx="242.5" cy="437.6923076923077" r="2" class="site-dot"/>
  <circle cx="310.0" cy="437.6923076923077" r="2" class="site-dot"/>
  <circle cx="40.0" cy="425.64102564102564" r="2" class="site-dot"/>
  <circle cx="107.5" cy="425.64102564102564" r="2" class="site-dot"/>
  <circle cx="175.0" cy="425.64102564102564" r="2" class="site-dot"/>
  <circle cx="242.5" cy="425.64102564102564" r="2" class="site-dot"/>
  <circle cx="310.0" cy="425.64102564102564" r="2" class="site-dot"/>
  <circle cx="40.0" cy="413.5897435897436" r="2" class="site-dot"/>
  <circle cx="107.5" cy="413.5897435897436" r="2" class="site-dot"/>
  <circle cx="175.0" cy="413.5897435897436" r="2" class="site-dot"/>
  <circle cx="242.5" cy="413.5897435897436" r="2" class="site-dot"/>
  <circle cx="310.0" cy="413.5897435897436" r="2" class="site-dot"/>
  <circle cx="40.0" cy="401.53846153846155" r="2" class="site-dot"/>
  <circle cx="107.5" cy="401.53846153846155" r="2" class="site-dot"/>
  <circle cx="175.0" cy="401.53846153846155" r="2" class="site-dot"/>
  <circle cx="242.5" cy="401.53846153846155" r="2" class="site-dot"/>
  <circle cx="310.0" cy="401.53846153846155" r="2" class="site-dot"/>
  <circle cx="40.0" cy="389.4871794871795" r="2" class="site-dot"/>
  <circle cx="107.5" cy="389.4871794871795" r="2" class="site-dot"/>
  <circle cx="175.0" cy="389.4871794871795" r="2" class="site-dot"/>
  <circle cx="242.5" cy="389.4871794871795" r="2" class="site-dot"/>
  <circle cx="310.0" cy="389.4871794871795" r="2" class="site-dot"/>
  <circle cx="40.0" cy="377.43589743589746" r="2" class="site-dot"/>
  <circle cx="107.5" cy="377.43589743589746" r="2" class="site-dot"/>
  <circle cx="175.0" cy="377.43589743589746" r="2" class="site-dot"/>
  <circle cx="242.5" cy="377.43589743589746" r="2" class="site-dot"/>
  <circle cx="310.0" cy="377.43589743589746" r="2" class="site-dot"/>
  <circle cx="40.0" cy="365.38461538461536" r="2" class="site-dot"/>
  <circle cx="107.5" cy="365.38461538461536" r="2" class="site-dot"/>
  <circle cx="175.0" cy="365.38461538461536" r="2" class="site-dot"/>
  <circle cx="242.5" cy="365.38461538461536" r="2" class="site-dot"/>
  <circle cx="310.0" cy="365.38461538461536" r="2" class="site-dot"/>
  <circle cx="40.0" cy="353.33333333333337" r="2" class="site-dot"/>
  <circle cx="107.5" cy="353.33333333333337" r="2" class="site-dot"/>
  <circle cx="175.0" cy="353.33333333333337" r="2" class="site-dot"/>
  <circle cx="242.5" cy="353.33333333333337" r="2" class="site-dot"/>
  <circle cx="310.0" cy="353.33333333333337" r="2" class="site-dot"/>
  <circle cx="40.0" cy="341.28205128205127" r="2" class="site-dot"/>
  <circle cx="107.5" cy="341.28205128205127" r="2" class="site-dot"/>
  <circle cx="175.0" cy="341.28205128205127" r="2" class="site-dot"/>
  <circle cx="242.5" cy="341.28205128205127" r="2" class="site-dot"/>
  <circle cx="310.0" cy="341.28205128205127" r="2" class="site-dot"/>
  <circle cx="40.0" cy="329.2307692307692" r="2" class="site-dot"/>
  <circle cx="107.5" cy="329.2307692307692" r="2" class="site-dot"/>
  <circle cx="175.0" cy="329.2307692307692" r="2" class="site-dot"/>
  <circle cx="242.5" cy="329.2307692307692" r="2" class="site-dot"/>
  <circle cx="310.0" cy="329.2307692307692" r="2" class="site-dot"/>
  <circle cx="40.0" cy="317.1794871794872" r="2" class="site-dot"/>
  <circle cx="107.5" cy="317.1794871794872" r="2" class="site-dot"/>
  <circle cx="175.0" cy="317.1794871794872" r="2" class="site-dot"/>
  <circle cx="242.5" cy="317.1794871794872" r="2" class="site-dot"/>
  <circle cx="310.0" cy="317.1794871794872" r="2" class="site-dot"/>
  <circle cx="40.0" cy="305.12820512820514" r="2" class="site-dot"/>
  <circle cx="107.5" cy="305.12820512820514" r="2" class="site-dot"/>
  <circle cx="175.0" cy="305.12820512820514" r="2" class="site-dot"/>
  <circle cx="242.5" cy="305.12820512820514" r="2" class="site-dot"/>
  <circle cx="310.0" cy="305.12820512820514" r="2" class="site-dot"/>
  <circle cx="40.0" cy="293.0769230769231" r="2" class="site-dot"/>
  <circle cx="107.5" cy="293.0769230769231" r="2" class="site-dot"/>
  <circle cx="175.0" cy="293.0769230769231" r="2" class="site-dot"/>
  <circle cx="242.5" cy="293.0769230769231" r="2" class="site-dot"/>
  <circle cx="310.0" cy="293.0769230769231" r="2" class="site-dot"/>
  <circle cx="40.0" cy="281.025641025641" r="2" class="site-dot"/>
  <circle cx="107.5" cy="281.025641025641" r="2" class="site-dot"/>
  <circle cx="175.0" cy="281.025641025641" r="2" class="site-dot"/>
  <circle cx="242.5" cy="281.025641025641" r="2" class="site-dot"/>
  <circle cx="310.0" cy="281.025641025641" r="2" class="site-dot"/>
  <circle cx="40.0" cy="268.974358974359" r="2" class="site-dot"/>
  <circle cx="107.5" cy="268.974358974359" r="2" class="site-dot"/>
  <circle cx="175.0" cy="268.974358974359" r="2" class="site-dot"/>
  <circle cx="242.5" cy="268.974358974359" r="2" class="site-dot"/>
  <circle cx="310.0" cy="268.974358974359" r="2" class="site-dot"/>
  <circle cx="40.0" cy="256.9230769230769" r="2" class="site-dot"/>
  <circle cx="107.5" cy="256.9230769230769" r="2" class="site-dot"/>
  <circle cx="175.0" cy="256.9230769230769" r="2" class="site-dot"/>
  <circle cx="242.5" cy="256.9230769230769" r="2" class="site-dot"/>
  <circle cx="310.0" cy="256.9230769230769" r="2" class="site-dot"/>
  <circle cx="40.0" cy="244.87179487179486" r="2" class="site-dot"/>
  <circle cx="107.5" cy="244.87179487179486" r="2" class="site-dot"/>
  <circle cx="175.0" cy="244.87179487179486" r="2" class="site-dot"/>
  <circle cx="242.5" cy="244.87179487179486" r="2" class="site-dot"/>
  <circle cx="310.0" cy="244.87179487179486" r="2" class="site-dot"/>
  <circle cx="40.0" cy="232.82051282051282" r="2" class="site-dot"/>
  <circle cx="107.5" cy="232.82051282051282" r="2" class="site-dot"/>
  <circle cx="175.0" cy="232.82051282051282" r="2" class="site-dot"/>
  <circle cx="242.5" cy="232.82051282051282" r="2" class="site-dot"/>
  <circle cx="310.0" cy="232.82051282051282" r="2" class="site-dot"/>
  <circle cx="40.0" cy="220.76923076923077" r="2" class="site-dot"/>
  <circle cx="107.5" cy="220.76923076923077" r="2" class="site-dot"/>
  <circle cx="175.0" cy="220.76923076923077" r="2" class="site-dot"/>
  <circle cx="242.5" cy="220.76923076923077" r="2" class="site-dot"/>
  <circle cx="310.0" cy="220.76923076923077" r="2" class="site-dot"/>
  <circle cx="40.0" cy="208.71794871794873" r="2" class="site-dot"/>
  <circle cx="107.5" cy="208.71794871794873" r="2" class="site-dot"/>
  <circle cx="175.0" cy="208.71794871794873" r="2" class="site-dot"/>
  <circle cx="242.5" cy="208.71794871794873" r="2" class="site-dot"/>
  <circle cx="310.0" cy="208.71794871794873" r="2" class="site-dot"/>
  <circle cx="40.0" cy="196.66666666666669" r="2" class="site-dot"/>
  <circle cx="107.5" cy="196.66666666666669" r="2" class="site-dot"/>
  <circle cx="175.0" cy="196.66666666666669" r="2" class="site-dot"/>
  <circle cx="242.5" cy="196.66666666666669" r="2" class="site-dot"/>
  <circle cx="310.0" cy="196.66666666666669" r="2" class="site-dot"/>
  <circle cx="40.0" cy="184.61538461538464" r="2" class="site-dot"/>
  <circle cx="107.5" cy="184.61538461538464" r="2" class="site-dot"/>
  <circle cx="175.0" cy="184.61538461538464" r="2" class="site-dot"/>
  <circle cx="242.5" cy="184.61538461538464" r="2" class="site-dot"/>
  <circle cx="310.0" cy="184.61538461538464" r="2" class="site-dot"/>
  <circle cx="40.0" cy="172.56410256410254" r="2" class="site-dot"/>
  <circle cx="107.5" cy="172.56410256410254" r="2" class="site-dot"/>
  <circle cx="175.0" cy="172.56410256410254" r="2" class="site-dot"/>
  <circle cx="242.5" cy="172.56410256410254" r="2" class="site-dot"/>
  <circle cx="310.0" cy="172.56410256410254" r="2" class="site-dot"/>
  <circle cx="40.0" cy="160.5128205128205" r="2" class="site-dot"/>
  <circle cx="107.5" cy="160.5128205128205" r="2" class="site-dot"/>
  <circle cx="175.0" cy="160.5128205128205" r="2" class="site-dot"/>
  <circle cx="242.5" cy="160.5128205128205" r="2" class="site-dot"/>
  <circle cx="310.0" cy="160.5128205128205" r="2" class="site-dot"/>
  <circle cx="40.0" cy="148.46153846153845" r="2" class="site-dot"/>
  <circle cx="107.5" cy="148.46153846153845" r="2" class="site-dot"/>
  <circle cx="175.0" cy="148.46153846153845" r="2" class="site-dot"/>
  <circle cx="242.5" cy="148.46153846153845" r="2" class="site-dot"/>
  <circle cx="310.0" cy="148.46153846153845" r="2" class="site-dot"/>
  <circle cx="40.0" cy="136.4102564102564" r="2" class="site-dot"/>
  <circle cx="107.5" cy="136.4102564102564" r="2" class="site-dot"/>
  <circle cx="175.0" cy="136.4102564102564" r="2" class="site-dot"/>
  <circle cx="242.5" cy="136.4102564102564" r="2" class="site-dot"/>
  <circle cx="310.0" cy="136.4102564102564" r="2" class="site-dot"/>
  <circle cx="40.0" cy="124.35897435897436" r="2" class="site-dot"/>
  <circle cx="107.5" cy="124.35897435897436" r="2" class="site-dot"/>
  <circle cx="175.0" cy="124.35897435897436" r="2" class="site-dot"/>
  <circle cx="242.5" cy="124.35897435897436" r="2" class="site-dot"/>
  <circle cx="310.0" cy="124.35897435897436" r="2" class="site-dot"/>
  <circle cx="40.0" cy="112.30769230769232" r="2" class="site-dot"/>
  <circle cx="107.5" cy="112.30769230769232" r="2" class="site-dot"/>
  <circle cx="175.0" cy="112.30769230769232" r="2" class="site-dot"/>
  <circle cx="242.5" cy="112.30769230769232" r="2" class="site-dot"/>
  <circle cx="310.0" cy="112.30769230769232" r="2" class="site-dot"/>
  <circle cx="40.0" cy="100.25641025641028" r="2" class="site-dot"/>
  <circle cx="107.5" cy="100.25641025641028" r="2" class="site-dot"/>
  <circle cx="175.0" cy="100.25641025641028" r="2" class="site-dot"/>
  <circle cx="242.5" cy="100.25641025641028" r="2" class="site-dot"/>
  <circle cx="310.0" cy="100.25641025641028" r="2" class="site-dot"/>
  <circle cx="40.0" cy="88.20512820512823" r="2" class="site-dot"/>
  <circle cx="107.5" cy="88.20512820512823" r="2" class="site-dot"/>
  <circle cx="175.0" cy="88.20512820512823" r="2" class="site-dot"/>
  <circle cx="242.5" cy="88.20512820512823" r="2" class="site-dot"/>
  <circle cx="310.0" cy="88.20512820512823" r="2" class="site-dot"/>
  <circle cx="40.0" cy="76.15384615384619" r="2" class="site-dot"/>
  <circle cx="107.5" cy="76.15384615384619" r="2" class="site-dot"/>
  <circle cx="175.0" cy="76.15384615384619" r="2" class="site-dot"/>
  <circle cx="242.5" cy="76.15384615384619" r="2" class="site-dot"/>
  <circle cx="310.0" cy="76.15384615384619" r="2" class="site-dot"/>
  <circle cx="40.0" cy="64.10256410256409" r="2" class="site-dot"/>
  <circle cx="107.5" cy="64.10256410256409" r="2" class="site-dot"/>
  <circle cx="175.0" cy="64.10256410256409" r="2" class="site-dot"/>
  <circle cx="242.5" cy="64.10256410256409" r="2" class="site-dot"/>
  <circle cx="310.0" cy="64.10256410256409" r="2" class="site-dot"/>
  <circle cx="40.0" cy="52.051282051282044" r="2" class="site-dot"/>
  <circle cx="107.5" cy="52.051282051282044" r="2" class="site-dot"/>
  <circle cx="175.0" cy="52.051282051282044" r="2" class="site-dot"/>
  <circle cx="242.5" cy="52.051282051282044" r="2" class="site-dot"/>
  <circle cx="310.0" cy="52.051282051282044" r="2" class="site-dot"/>
  <circle cx="40.0" cy="40.0" r="2" class="site-dot"/>
  <circle cx="107.5" cy="40.0" r="2" class="site-dot"/>
  <circle cx="175.0" cy="40.0" r="2" class="site-dot"/>
  <circle cx="242.5" cy="40.0" r="2" class="site-dot"/>
  <circle cx="310.0" cy="40.0" r="2" class="site-dot"/>
  <path d="M 107.5 473.84615384615387 L 107.5 461.7948717948718 L 107.5 449.7435897435897 L 107.5 437.6923076923077 L 107.5 425.64102564102564 L 107.5 413.5897435897436 L 107.5 401.53846153846155 L 107.5 389.4871794871795 L 107.5 377.43589743589746 L 107.5 365.38461538461536 L 107.5 353.33333333333337 L 107.5 341.28205128205127 L 107.5 329.2307692307692 L 107.5 317.1794871794872 L 107.5 305.12820512820514 L 107.5 293.0769230769231 L 107.5 281.025641025641 L 107.5 268.974358974359 L 107.5 256.9230769230769 L 107.5 244.87179487179486 L 107.5 232.82051282051282 L 107.5 220.76923076923077 L 107.5 208.71794871794873 L 107.5 196.66666666666669 L 107.5 184.61538461538464 L 107.5 172.56410256410254 L 107.5 160.5128205128205 L 107.5 148.46153846153845 L 107.5 136.4102564102564 L 107.5 124.35897435897436 L 107.5 112.30769230769232 L 107.5 100.25641025641028 L 107.5 88.20512820512823 L 107.5 76.15384615384619 L 107.5 64.10256410256409 L 107.5 52.051282051282044 L 107.5 40.0" class="worldline"/>
  <circle cx="107.5" cy="473.84615384615387" r="4" class="worldline-dot"/>
  <circle cx="107.5" cy="461.7948717948718" r="4" class="worldline-dot"/>
  <circle cx="107.5" cy="449.7435897435897" r="4" class="worldline-dot"/>
  <circle cx="107.5" cy="437.6923076923077" r="4" class="worldline-dot"/>
  <circle cx="107.5" cy="425.64102564102564" r="4" class="worldline-dot"/>
  <circle cx="107.5" cy="413.5897435897436" r="4" class="worldline-dot"/>
  <circle cx="107.5" cy="401.53846153846155" r="4" class="worldline-dot"/>
  <circle cx="107.5" cy="389.4871794871795" r="4" class="worldline-dot"/>
  <circle cx="107.5" cy="377.43589743589746" r="4" class="worldline-dot"/>
  <circle cx="107.5" cy="365.38461538461536" r="4" class="worldline-dot"/>
  <circle cx="107.5" cy="353.33333333333337" r="4" class="worldline-dot"/>
  <circle cx="107.5" cy="341.28205128205127" r="4" class="worldline-dot"/>
  <circle cx="107.5" cy="329.2307692307692" r="4" class="worldline-dot"/>
  <circle cx="107.5" cy="317.1794871794872" r="4" class="worldline-dot"/>
  <circle cx="107.5" cy="305.12820512820514" r="4" class="worldline-dot"/>
  <circle cx="107.5" cy="293.0769230769231" r="4" class="worldline-dot"/>
  <circle cx="107.5" cy="281.025641025641" r="4" class="worldline-dot"/>
  <circle cx="107.5" cy="268.974358974359" r="4" class="worldline-dot"/>
  <circle cx="107.5" cy="256.9230769230769" r="4" class="worldline-dot"/>
  <circle cx="107.5" cy="244.87179487179486" r="4" class="worldline-dot"/>
  <circle cx="107.5" cy="232.82051282051282" r="4" class="worldline-dot"/>
  <circle cx="107.5" cy="220.76923076923077" r="4" class="worldline-dot"/>
  <circle cx="107.5" cy="208.71794871794873" r="4" class="worldline-dot"/>
  <circle cx="107.5" cy="196.66666666666669" r="4" class="worldline-dot"/>
  <circle cx="107.5" cy="184.61538461538464" r="4" class="worldline-dot"/>
  <circle cx="107.5" cy="172.56410256410254" r="4" class="worldline-dot"/>
  <circle cx="107.5" cy="160.5128205128205" r="4" class="worldline-dot"/>
  <circle cx="107.5" cy="148.46153846153845" r="4" class="worldline-dot"/>
  <circle cx="107.5" cy="136.4102564102564" r="4" class="worldline-dot"/>
  <circle cx="107.5" cy="124.35897435897436" r="4" class="worldline-dot"/>
  <circle cx="107.5" cy="112.30769230769232" r="4" class="worldline-dot"/>
  <circle cx="107.5" cy="100.25641025641028" r="4" class="worldline-dot"/>
  <circle cx="107.5" cy="88.20512820512823" r="4" class="worldline-dot"/>
  <circle cx="107.5" cy="76.15384615384619" r="4" class="worldline-dot"/>
  <circle cx="107.5" cy="64.10256410256409" r="4" class="worldline-dot"/>
  <circle cx="107.5" cy="52.051282051282044" r="4" class="worldline-dot"/>
  <circle cx="107.5" cy="40.0" r="4" class="worldline-dot"/>
  <path d="M 175.0 473.84615384615387 L 175.0 461.7948717948718 L 175.0 449.7435897435897 L 175.0 437.6923076923077 L 175.0 425.64102564102564 L 175.0 413.5897435897436" class="worldline"/>
  <circle cx="175.0" cy="473.84615384615387" r="4" class="worldline-dot"/>
  <circle cx="175.0" cy="461.7948717948718" r="4" class="worldline-dot"/>
  <circle cx="175.0" cy="449.7435897435897" r="4" class="worldline-dot"/>
  <circle cx="175.0" cy="437.6923076923077" r="4" class="worldline-dot"/>
  <circle cx="175.0" cy="425.64102564102564" r="4" class="worldline-dot"/>
  <circle cx="175.0" cy="413.5897435897436" r="4" class="worldline-dot"/>
  <path d="M 242.5 449.7435897435897 L 242.5 437.6923076923077 L 242.5 425.64102564102564 L 242.5 413.5897435897436" class="worldline"/>
  <circle cx="242.5" cy="449.7435897435897" r="4" class="worldline-dot"/>
  <circle cx="242.5" cy="437.6923076923077" r="4" class="worldline-dot"/>
  <circle cx="242.5" cy="425.64102564102564" r="4" class="worldline-dot"/>
  <circle cx="242.5" cy="413.5897435897436" r="4" class="worldline-dot"/>
  <path d="M 310.0 449.7435897435897 L 310.0 437.6923076923077 L 310.0 425.64102564102564 L 310.0 413.5897435897436 L 310.0 401.53846153846155 L 310.0 389.4871794871795 L 310.0 377.43589743589746 L 310.0 365.38461538461536 L 310.0 353.33333333333337 L 310.0 341.28205128205127 L 310.0 329.2307692307692 L 310.0 317.1794871794872 L 310.0 305.12820512820514 L 310.0 293.0769230769231 L 310.0 281.025641025641 L 310.0 268.974358974359 L 310.0 256.9230769230769 L 310.0 244.87179487179486 L 310.0 232.82051282051282 L 310.0 220.76923076923077 L 310.0 208.71794871794873 L 310.0 196.66666666666669 L 310.0 184.61538461538464 L 310.0 172.56410256410254 L 310.0 160.5128205128205 L 310.0 148.46153846153845 L 310.0 136.4102564102564 L 310.0 124.35897435897436 L 310.0 112.30769230769232 L 310.0 100.25641025641028 L 310.0 88.20512820512823 L 310.0 76.15384615384619 L 310.0 64.10256410256409 L 310.0 52.051282051282044 L 310.0 40.0" class="worldline"/>
  <circle cx="310.0" cy="449.7435897435897" r="4" class="worldline-dot"/>
  <circle cx="310.0" cy="437.6923076923077" r="4" class="worldline-dot"/>
  <circle cx="310.0" cy="425.64102564102564" r="4" class="worldline-dot"/>
  <circle cx="310.0" cy="413.5897435897436" r="4" class="worldline-dot"/>
  <circle cx="310.0" cy="401.53846153846155" r="4" class="worldline-dot"/>
  <circle cx="310.0" cy="389.4871794871795" r="4" class="worldline-dot"/>
  <circle cx="310.0" cy="377.43589743589746" r="4" class="worldline-dot"/>
  <circle cx="310.0" cy="365.38461538461536" r="4" class="worldline-dot"/>
  <circle cx="310.0" cy="353.33333333333337" r="4" class="worldline-dot"/>
  <circle cx="310.0" cy="341.28205128205127" r="4" class="worldline-dot"/>
  <circle cx="310.0" cy="329.2307692307692" r="4" class="worldline-dot"/>
  <circle cx="310.0" cy="317.1794871794872" r="4" class="worldline-dot"/>
  <circle cx="310.0" cy="305.12820512820514" r="4" class="worldline-dot"/>
  <circle cx="310.0" cy="293.0769230769231" r="4" class="worldline-dot"/>
  <circle cx="310.0" cy="281.025641025641" r="4" class="worldline-dot"/>
  <circle cx="310.0" cy="268.974358974359" r="4" class="worldline-dot"/>
  <circle cx="310.0" cy="256.9230769230769" r="4" class="worldline-dot"/>
  <circle cx="310.0" cy="244.87179487179486" r="4" class="worldline-dot"/>
  <circle cx="310.0" cy="232.82051282051282" r="4" class="worldline-dot"/>
  <circle cx="310.0" cy="220.76923076923077" r="4" class="worldline-dot"/>
  <circle cx="310.0" cy="208.71794871794873" r="4" class="worldline-dot"/>
  <circle cx="310.0" cy="196.66666666666669" r="4" class="worldline-dot"/>
  <circle cx="310.0" cy="184.61538461538464" r="4" class="worldline-dot"/>
  <circle cx="310.0" cy="172.56410256410254" r="4" class="worldline-dot"/>
  <circle cx="310.0" cy="160.5128205128205" r="4" class="worldline-dot"/>
  <circle cx="310.0" cy="148.46153846153845" r="4" class="worldline-dot"/>
  <circle cx="310.0" cy="136.4102564102564" r="4" class="worldline-dot"/>
  <circle cx="310.0" cy="124.35897435897436" r="4" class="worldline-dot"/>
  <circle cx="310.0" cy="112.30769230769232" r="4" class="worldline-dot"/>
  <circle cx="310.0" cy="100.25641025641028" r="4" class="worldline-dot"/>
  <circle cx="310.0" cy="88.20512820512823" r="4" class="worldline-dot"/>
  <circle cx="310.0" cy="76.15384615384619" r="4" class="worldline-dot"/>
  <circle cx="310.0" cy="64.10256410256409" r="4" class="worldline-dot"/>
  <circle cx="310.0" cy="52.051282051282044" r="4" class="worldline-dot"/>
  <circle cx="310.0" cy="40.0" r="4" class="worldline-dot"/>
  <path d="M 175.0 88.20512820512823 L 175.0 76.15384615384619 L 175.0 64.10256410256409 L 175.0 52.051282051282044 L 175.0 40.0" class="worldline"/>
  <circle cx="175.0" cy="88.20512820512823" r="4" class="worldline-dot"/>
  <circle cx="175.0" cy="76.15384615384619" r="4" class="worldline-dot"/>
  <circle cx="175.0" cy="64.10256410256409" r="4" class="worldline-dot"/>
  <circle cx="175.0" cy="52.051282051282044" r="4" class="worldline-dot"/>
  <circle cx="175.0" cy="40.0" r="4" class="worldline-dot"/>
  <path d="M 242.5 88.20512820512823 L 242.5 76.15384615384619 L 242.5 64.10256410256409 L 242.5 52.051282051282044 L 242.5 40.0" class="worldline"/>
  <circle cx="242.5" cy="88.20512820512823" r="4" class="worldline-dot"/>
  <circle cx="242.5" cy="76.15384615384619" r="4" class="worldline-dot"/>
  <circle cx="242.5" cy="64.10256410256409" r="4" class="worldline-dot"/>
  <circle cx="242.5" cy="52.051282051282044" r="4" class="worldline-dot"/>
  <circle cx="242.5" cy="40.0" r="4" class="worldline-dot"/>
  <path d="M 107.5 473.84615384615387 Q 141.25 467.8205128205129 175.0 473.84615384615387" class="vertex-cup"/>
  <path d="M 242.5 449.7435897435897 Q 276.25 443.71794871794873 310.0 449.7435897435897" class="vertex-cup"/>
  <path d="M 175.0 398.52564102564105 Q 208.75 404.5512820512821 242.5 398.52564102564105" class="vertex-cap"/>
  <path d="M 175.0 88.20512820512823 Q 208.75 82.17948717948721 242.5 88.20512820512823" class="vertex-cup"/>
  <line x1="30" y1="510" x2="320" y2="510" class="axis"/>
  <line x1="30" y1="510" x2="30" y2="30" class="axis"/>
  <text x="175.0" y="540" class="label" text-anchor="middle">site</text>
  <text x="15" y="275.0" class="label" transform="rotate(-90, 15, 275.0)">τ (imaginary time)</text>
  <text x="40.0" y="530" class="label" text-anchor="middle">1</text>
  <text x="107.5" y="530" class="label" text-anchor="middle">2</text>
  <text x="175.0" y="530" class="label" text-anchor="middle">3</text>
  <text x="242.5" y="530" class="label" text-anchor="middle">4</text>
  <text x="310.0" y="530" class="label" text-anchor="middle">5</text>
  <text x="20" y="514.0" class="label" text-anchor="end">1</text>
  <text x="20" y="417.5897435897436" class="label" text-anchor="end">9</text>
  <text x="20" y="321.1794871794872" class="label" text-anchor="end">17</text>
  <text x="20" y="224.76923076923077" class="label" text-anchor="end">25</text>
  <text x="20" y="128.35897435897436" class="label" text-anchor="end">33</text>
  <text x="175.0" y="25" class="label" text-anchor="middle" font-weight="bold">TL Spacetime (n=5, n_τ=40, δ=1.41)</text>
</svg>