<?xml version="1.0" encoding="UTF-8"?>
<svg xmlns="http://www.w3.org/2000/svg" width="400" height="500" viewBox="0 0 400 500">
  <style>
    .worldline { stroke: #2563eb; stroke-width: 2; fill: none; }
    .site-dot { fill: #94a3b8; }
    .worldline-dot { fill: #2563eb; }
    .vertex-cup { fill: none; stroke: #16a34a; stroke-width: 2; }
    .vertex-cap { fill: none; stroke: #dc2626; stroke-width: 2; }
    .axis { stroke: #334155; stroke-width: 1; }
    .label { font-family: monospace; font-size: 12px; fill: #334155; }
  </style>
  <rect width="100%" height="100%" fill="white"/>

  <circle cx="40.0" cy="460.0" r="2" class="site-dot"/>
  <circle cx="93.33333333333334" cy="460.0" r="2" class="site-dot"/>
  <circle cx="146.66666666666669" cy="460.0" r="2" class="site-dot"/>
  <circle cx="200.0" cy="460.0" r="2" class="site-dot"/>
  <circle cx="253.33333333333334" cy="460.0" r="2" class="site-dot"/>
  <circle cx="306.6666666666667" cy="460.0" r="2" class="site-dot"/>
  <circle cx="360.0" cy="460.0" r="2" class="site-dot"/>
  <circle cx="40.0" cy="447.6470588235294" r="2" class="site-dot"/>
  <circle cx="93.33333333333334" cy="447.6470588235294" r="2" class="site-dot"/>
  <circle cx="146.66666666666669" cy="447.6470588235294" r="2" class="site-dot"/>
  <circle cx="200.0" cy="447.6470588235294" r="2" class="site-dot"/>
  <circle cx="253.33333333333334" cy="447.6470588235294" r="2" class="site-dot"/>
  <circle cx="306.6666666666667" cy="447.6470588235294" r="2" class="site-dot"/>
  <circle cx="360.0" cy="447.6470588235294" r="2" class="site-dot"/>
  <circle cx="40.0" cy="435.29411764705884" r="2" class="site-dot"/>
  <circle cx="93.33333333333334" cy="435.29411764705884" r="2" class="site-dot"/>
  <circle cx="146.66666666666669" cy="435.29411764705884" r="2" class="site-dot"/>
  <circle cx="200.0" cy="435.29411764705884" r="2" class="site-dot"/>
  <circle cx="253.33333333333334" cy="435.29411764705884" r="2" class="site-dot"/>
  <circle cx="306.6666666666667" cy="435.29411764705884" r="2" class="site-dot"/>
  <circle cx="360.0" cy="435.29411764705884" r="2" class="site-dot"/>
  <circle cx="40.0" cy="422.94117647058823" r="2" class="site-dot"/>
  <circle cx="93.33333333333334" cy="422.94117647058823" r="2" class="site-dot"/>
  <circle cx="146.66666666666669" cy="422.94117647058823" r="2" class="site-dot"/>
  <circle cx="200.0" cy="422.94117647058823" r="2" class="site-dot"/>
  <circle cx="253.33333333333334" cy="422.94117647058823" r="2" class="site-dot"/>
  <circle cx="306.6666666666667" cy="422.94117647058823" r="2" class="site-dot"/>
  <circle cx="360.0" cy="422.94117647058823" r="2" class="site-dot"/>
  <circle cx="40.0" cy="410.5882352941176" r="2" class="site-dot"/>
  <circle cx="93.33333333333334" cy="410.5882352941176" r="2" class="site-dot"/>
  <circle cx="146.66666666666669" cy="410.5882352941176" r="2" class="site-dot"/>
  <circle cx="200.0" cy="410.5882352941176" r="2" class="site-dot"/>
  <circle cx="253.33333333333334" cy="410.5882352941176" r="2" class="site-dot"/>
  <circle cx="306.6666666666667" cy="410.5882352941176" r="2" class="site-dot"/>
  <circle cx="360.0" cy="410.5882352941176" r="2" class="site-dot"/>
  <circle cx="40.0" cy="398.2352941176471" r="2" class="site-dot"/>
  <circle cx="93.33333333333334" cy="398.2352941176471" r="2" class="site-dot"/>
  <circle cx="146.66666666666669" cy="398.2352941176471" r="2" class="site-dot"/>
  <circle cx="200.0" cy="398.2352941176471" r="2" class="site-dot"/>
  <circle cx="253.33333333333334" cy="398.2352941176471" r="2" class="site-dot"/>
  <circle cx="306.6666666666667" cy="398.2352941176471" r="2" class="site-dot"/>
  <circle cx="360.0" cy="398.2352941176471" r="2" class="site-dot"/>
  <circle cx="40.0" cy="385.88235294117646" r="2" class="site-dot"/>
  <circle cx="93.33333333333334" cy="385.88235294117646" r="2" class="site-dot"/>
  <circle cx="146.66666666666669" cy="385.88235294117646" r="2" class="site-dot"/>
  <circle cx="200.0" cy="385.88235294117646" r="2" class="site-dot"/>
  <circle cx="253.33333333333334" cy="385.88235294117646" r="2" class="site-dot"/>
  <circle cx="306.6666666666667" cy="385.88235294117646" r="2" class="site-dot"/>
  <circle cx="360.0" cy="385.88235294117646" r="2" class="site-dot"/>
  <circle cx="40.0" cy="373.52941176470586" r="2" class="site-dot"/>
  <circle cx="93.33333333333334" cy="373.52941176470586" r="2" class="site-dot"/>
  <circle cx="146.66666666666669" cy="373.52941176470586" r="2" class="site-dot"/>
  <circle cx="200.0" cy="373.52941176470586" r="2" class="site-dot"/>
  <circle cx="253.33333333333334" cy="373.52941176470586" r="2" class="site-dot"/>
  <circle cx="306.6666666666667" cy="373.52941176470586" r="2" class="site-dot"/>
  <circle cx="360.0" cy="373.52941176470586" r="2" class="site-dot"/>
  <circle cx="40.0" cy="361.1764705882353" r="2" class="site-dot"/>
  <circle cx="93.33333333333334" cy="361.1764705882353" r="2" class="site-dot"/>
  <circle cx="146.66666666666669" cy="361.1764705882353" r="2" class="site-dot"/>
  <circle cx="200.0" cy="361.1764705882353" r="2" class="site-dot"/>
  <circle cx="253.33333333333334" cy="361.1764705882353" r="2" class="site-dot"/>
  <circle cx="306.6666666666667" cy="361.1764705882353" r="2" class="site-dot"/>
  <circle cx="360.0" cy="361.1764705882353" r="2" class="site-dot"/>
  <circle cx="40.0" cy="348.8235294117647" r="2" class="site-dot"/>
  <circle cx="93.33333333333334" cy="348.8235294117647" r="2" class="site-dot"/>
  <circle cx="146.66666666666669" cy="348.8235294117647" r="2" class="site-dot"/>
  <circle cx="200.0" cy="348.8235294117647" r="2" class="site-dot"/>
  <circle cx="253.33333333333334" cy="348.8235294117647" r="2" class="site-dot"/>
  <circle cx="306.6666666666667" cy="348.8235294117647" r="2" class="site-dot"/>
  <circle cx="360.0" cy="348.8235294117647" r="2" class="site-dot"/>
  <circle cx="40.0" cy="336.47058823529414" r="2" class="site-dot"/>
  <circle cx="93.33333333333334" cy="336.47058823529414" r="2" class="site-dot"/>
  <circle cx="146.66666666666669" cy="336.47058823529414" r="2" class="site-dot"/>
  <circle cx="200.0" cy="336.47058823529414" r="2" class="site-dot"/>
  <circle cx="253.33333333333334" cy="336.47058823529414" r="2" class="site-dot"/>
  <circle cx="306.6666666666667" cy="336.47058823529414" r="2" class="site-dot"/>
  <circle cx="360.0" cy="336.47058823529414" r="2" class="site-dot"/>
  <circle cx="40.0" cy="324.11764705882354" r="2" class="site-dot"/>
  <circle cx="93.33333333333334" cy="324.11764705882354" r="2" class="site-dot"/>
  <circle cx="146.66666666666669" cy="324.11764705882354" r="2" class="site-dot"/>
  <circle cx="200.0" cy="324.11764705882354" r="2" class="site-dot"/>
  <circle cx="253.33333333333334" cy="324.11764705882354" r="2" class="site-dot"/>
  <circle cx="306.6666666666667" cy="324.11764705882354" r="2" class="site-dot"/>
  <circle cx="360.0" cy="324.11764705882354" r="2" class="site-dot"/>
  <circle cx="40.0" cy="311.7647058823529" r="2" class="site-dot"/>
  <circle cx="93.33333333333334" cy="311.7647058823529" r="2" class="site-dot"/>
  <circle cx="146.66666666666669" cy="311.7647058823529" r="2" class="site-dot"/>
  <circle cx="200.0" cy="311.7647058823529" r="2" class="site-dot"/>
  <circle cx="253.33333333333334" cy="311.7647058823529" r="2" class="site-dot"/>
  <circle cx="306.6666666666667" cy="311.7647058823529" r="2" class="site-dot"/>
  <circle cx="360.0" cy="311.7647058823529" r="2" class="site-dot"/>
  <circle cx="40.0" cy="299.4117647058823" r="2" class="site-dot"/>
  <circle cx="93.33333333333334" cy="299.4117647058823" r="2" class="site-dot"/>
  <circle cx="146.66666666666669" cy="299.4117647058823" r="2" class="site-dot"/>
  <circle cx="200.0" cy="299.4117647058823" r="2" class="site-dot"/>
  <circle cx="253.33333333333334" cy="299.4117647058823" r="2" class="site-dot"/>
  <circle cx="306.6666666666667" cy="299.4117647058823" r="2" class="site-dot"/>
  <circle cx="360.0" cy="299.4117647058823" r="2" class="site-dot"/>
  <circle cx="40.0" cy="287.05882352941177" r="2" class="site-dot"/>
  <circle cx="93.33333333333334" cy="287.05882352941177" r="2" class="site-dot"/>
  <circle cx="146.66666666666669" cy="287.05882352941177" r="2" class="site-dot"/>
  <circle cx="200.0" cy="287.05882352941177" r="2" class="site-dot"/>
  <circle cx="253.33333333333334" cy="287.05882352941177" r="2" class="site-dot"/>
  <circle cx="306.6666666666667" cy="287.05882352941177" r="2" class="site-dot"/>
  <circle cx="360.0" cy="287.05882352941177" r="2" class="site-dot"/>
  <circle cx="40.0" cy="274.70588235294116" r="2" class="site-dot"/>
  <circle cx="93.33333333333334" cy="274.70588235294116" r="2" class="site-dot"/>
  <circle cx="146.66666666666669" cy="274.70588235294116" r="2" class="site-dot"/>
  <circle cx="200.0" cy="274.70588235294116" r="2" class="site-dot"/>
  <circle cx="253.33333333333334" cy="274.70588235294116" r="2" class="site-dot"/>
  <circle cx="306.6666666666667" cy="274.70588235294116" r="2" class="site-dot"/>
  <circle cx="360.0" cy="274.70588235294116" r="2" class="site-dot"/>
  <circle cx="40.0" cy="262.3529411764706" r="2" class="site-dot"/>
  <circle cx="93.33333333333334" cy="262.3529411764706" r="2" class="site-dot"/>
  <circle cx="146.66666666666669" cy="262.3529411764706" r="2" class="site-dot"/>
  <circle cx="200.0" cy="262.3529411764706" r="2" class="site-dot"/>
  <circle cx="253.33333333333334" cy="262.3529411764706" r="2" class="site-dot"/>
  <circle cx="306.6666666666667" cy="262.3529411764706" r="2" class="site-dot"/>
  <circle cx="360.0" cy="262.3529411764706" r="2" class="site-dot"/>
  <circle cx="40.0" cy="250.0" r="2" class="site-dot"/>
  <circle cx="93.33333333333334" cy="250.0" r="2" class="site-dot"/>
  <circle cx="146.66666666666669" cy="250.0" r="2" class="site-dot"/>
  <circle cx="200.0" cy="250.0" r="2" class="site-dot"/>
  <circle cx="253.33333333333334" cy="250.0" r="2" class="site-dot"/>
  <circle cx="306.6666666666667" cy="250.0" r="2" class="site-dot"/>
  <circle cx="360.0" cy="250.0" r="2" class="site-dot"/>
  <circle cx="40.0" cy="237.6470588235294" r="2" class="site-dot"/>
  <circle cx="93.33333333333334" cy="237.6470588235294" r="2" class="site-dot"/>
  <circle cx="146.66666666666669" cy="237.6470588235294" r="2" class="site-dot"/>
  <circle cx="200.0" cy="237.6470588235294" r="2" class="site-dot"/>
  <circle cx="253.33333333333334" cy="237.6470588235294" r="2" class="site-dot"/>
  <circle cx="306.6666666666667" cy="237.6470588235294" r="2" class="site-dot"/>
  <circle cx="360.0" cy="237.6470588235294" r="2" class="site-dot"/>
  <circle cx="40.0" cy="225.2941176470588" r="2" class="site-dot"/>
  <circle cx="93.33333333333334" cy="225.2941176470588" r="2" class="site-dot"/>
  <circle cx="146.66666666666669" cy="225.2941176470588" r="2" class="site-dot"/>
  <circle cx="200.0" cy="225.2941176470588" r="2" class="site-dot"/>
  <circle cx="253.33333333333334" cy="225.2941176470588" r="2" class="site-dot"/>
  <circle cx="306.6666666666667" cy="225.2941176470588" r="2" class="site-dot"/>
  <circle cx="360.0" cy="225.2941176470588" r="2" class="site-dot"/>
  <circle cx="40.0" cy="212.94117647058823" r="2" class="site-dot"/>
  <circle cx="93.33333333333334" cy="212.94117647058823" r="2" class="site-dot"/>
  <circle cx="146.66666666666669" cy="212.94117647058823" r="2" class="site-dot"/>
  <circle cx="200.0" cy="212.94117647058823" r="2" class="site-dot"/>
  <circle cx="253.33333333333334" cy="212.94117647058823" r="2" class="site-dot"/>
  <circle cx="306.6666666666667" cy="212.94117647058823" r="2" class="site-dot"/>
  <circle cx="360.0" cy="212.94117647058823" r="2" class="site-dot"/>
  <circle cx="40.0" cy="200.58823529411762" r="2" class="site-dot"/>
  <circle cx="93.33333333333334" cy="200.58823529411762" r="2" class="site-dot"/>
  <circle cx="146.66666666666669" cy="200.58823529411762" r="2" class="site-dot"/>
  <circle cx="200.0" cy="200.58823529411762" r="2" class="site-dot"/>
  <circle cx="253.33333333333334" cy="200.58823529411762" r="2" class="site-dot"/>
  <circle cx="306.6666666666667" cy="200.58823529411762" r="2" class="site-dot"/>
  <circle cx="360.0" cy="200.58823529411762" r="2" class="site-dot"/>
  <circle cx="40.0" cy="188.23529411764707" r="2" class="site-dot"/>
  <circle cx="93.33333333333334" cy="188.23529411764707" r="2" class="site-dot"/>
  <circle cx="146.66666666666669" cy="188.23529411764707" r="2" class="site-dot"/>
  <circle cx="200.0" cy="188.23529411764707" r="2" class="site-dot"/>
  <circle cx="253.33333333333334" cy="188.23529411764707" r="2" class="site-dot"/>
  <circle cx="306.6666666666667" cy="188.23529411764707" r="2" class="site-dot"/>
  <circle cx="360.0" cy="188.23529411764707" r="2" class="site-dot"/>
  <circle cx="40.0" cy="175.88235294117646" r="2" class="site-dot"/>
  <circle cx="93.33333333333334" cy="175.88235294117646" r="2" class="site-dot"/>
  <circle cx="146.66666666666669" cy="175.88235294117646" r="2" class="site-dot"/>
  <circle cx="200.0" cy="175.88235294117646" r="2" class="site-dot"/>
  <circle cx="253.33333333333334" cy="175.88235294117646" r="2" class="site-dot"/>
  <circle cx="306.6666666666667" cy="175.88235294117646" r="2" class="site-dot"/>
  <circle cx="360.0" cy="175.88235294117646" r="2" class="site-dot"/>
  <circle cx="40.0" cy="163.52941176470586" r="2" class="site-dot"/>
  <circle cx="93.33333333333334" cy="163.52941176470586" r="2" class="site-dot"/>
  <circle cx="146.66666666666669" cy="163.52941176470586" r="2" class="site-dot"/>
  <circle cx="200.0" cy="163.52941176470586" r="2" class="site-dot"/>
  <circle cx="253.33333333333334" cy="163.52941176470586" r="2" class="site-dot"/>
  <circle cx="306.6666666666667" cy="163.52941176470586" r="2" class="site-dot"/>
  <circle cx="360.0" cy="163.52941176470586" r="2" class="site-dot"/>
  <circle cx="40.0" cy="151.1764705882353" r="2" class="site-dot"/>
  <circle cx="93.33333333333334" cy="151.1764705882353" r="2" class="site-dot"/>
  <circle cx="146.66666666666669" cy="151.1764705882353" r="2" class="site-dot"/>
  <circle cx="200.0" cy="151.1764705882353" r="2" class="site-dot"/>
  <circle cx="253.33333333333334" cy="151.1764705882353" r="2" class="site-dot"/>
  <circle cx="306.6666666666667" cy="151.1764705882353" r="2" class="site-dot"/>
  <circle cx="360.0" cy="151.1764705882353" r="2" class="site-dot"/>
  <circle cx="40.0" cy="138.8235294117647" r="2" class="site-dot"/>
  <circle cx="93.33333333333334" cy="138.8235294117647" r="2" class="site-dot"/>
  <circle cx="146.66666666666669" cy="138.8235294117647" r="2" class="site-dot"/>
  <circle cx="200.0" cy="138.8235294117647" r="2" class="site-dot"/>
  <circle cx="253.33333333333334" cy="138.8235294117647" r="2" class="site-dot"/>
  <circle cx="306.6666666666667" cy="138.8235294117647" r="2" class="site-dot"/>
  <circle cx="360.0" cy="138.8235294117647" r="2" class="site-dot"/>
  <circle cx="40.0" cy="126.47058823529409" r="2" class="site-dot"/>
  <circle cx="93.33333333333334" cy="126.47058823529409" r="2" class="site-dot"/>
  <circle cx="146.66666666666669" cy="126.47058823529409" r="2" class="site-dot"/>
  <circle cx="200.0" cy="126.47058823529409" r="2" class="site-dot"/>
  <circle cx="253.33333333333334" cy="126.47058823529409" r="2" class="site-dot"/>
  <circle cx="306.6666666666667" cy="126.47058823529409" r="2" class="site-dot"/>
  <circle cx="360.0" cy="126.47058823529409" r="2" class="site-dot"/>
  <circle cx="40.0" cy="114.11764705882354" r="2" class="site-dot"/>
  <circle cx="93.33333333333334" cy="114.11764705882354" r="2" class="site-dot"/>
  <circle cx="146.66666666666669" cy="114.11764705882354" r="2" class="site-dot"/>
  <circle cx="200.0" cy="114.11764705882354" r="2" class="site-dot"/>
  <circle cx="253.33333333333334" cy="114.11764705882354" r="2" class="site-dot"/>
  <circle cx="306.6666666666667" cy="114.11764705882354" r="2" class="site-dot"/>
  <circle cx="360.0" cy="114.11764705882354" r="2" class="site-dot"/>
  <circle cx="40.0" cy="101.76470588235293" r="2" class="site-dot"/>
  <circle cx="93.33333333333334" cy="101.76470588235293" r="2" class="site-dot"/>
  <circle cx="146.66666666666669" cy="101.76470588235293" r="2" class="site-dot"/>
  <circle cx="200.0" cy="101.76470588235293" r="2" class="site-dot"/>
  <circle cx="253.33333333333334" cy="101.76470588235293" r="2" class="site-dot"/>
  <circle cx="306.6666666666667" cy="101.76470588235293" r="2" class="site-dot"/>
  <circle cx="360.0" cy="101.76470588235293" r="2" class="site-dot"/>
  <circle cx="40.0" cy="89.41176470588232" r="2" class="site-dot"/>
  <circle cx="93.33333333333334" cy="89.41176470588232" r="2" class="site-dot"/>
  <circle cx="146.66666666666669" cy="89.41176470588232" r="2" class="site-dot"/>
  <circle cx="200.0" cy="89.41176470588232" r="2" class="site-dot"/>
  <circle cx="253.33333333333334" cy="89.41176470588232" r="2" class="site-dot"/>
  <circle cx="306.6666666666667" cy="89.41176470588232" r="2" class="site-dot"/>
  <circle cx="360.0" cy="89.41176470588232" r="2" class="site-dot"/>
  <circle cx="40.0" cy="77.05882352941177" r="2" class="site-dot"/>
  <circle cx="93.33333333333334" cy="77.05882352941177" r="2" class="site-dot"/>
  <circle cx="146.66666666666669" cy="77.05882352941177" r="2" class="site-dot"/>
  <circle cx="200.0" cy="77.05882352941177" r="2" class="site-dot"/>
  <circle cx="253.33333333333334" cy="77.05882352941177" r="2" class="site-dot"/>
  <circle cx="306.6666666666667" cy="77.05882352941177" r="2" class="site-dot"/>
  <circle cx="360.0" cy="77.05882352941177" r="2" class="site-dot"/>
  <circle cx="40.0" cy="64.70588235294116" r="2" class="site-dot"/>
  <circle cx="93.33333333333334" cy="64.70588235294116" r="2" class="site-dot"/>
  <circle cx="146.66666666666669" cy="64.70588235294116" r="2" class="site-dot"/>
  <circle cx="200.0" cy="64.70588235294116" r="2" class="site-dot"/>
  <circle cx="253.33333333333334" cy="64.70588235294116" r="2" class="site-dot"/>
  <circle cx="306.6666666666667" cy="64.70588235294116" r="2" class="site-dot"/>
  <circle cx="360.0" cy="64.70588235294116" r="2" class="site-dot"/>
  <circle cx="40.0" cy="52.35294117647055" r="2" class="site-dot"/>
  <circle cx="93.33333333333334" cy="52.35294117647055" r="2" class="site-dot"/>
  <circle cx="146.66666666666669" cy="52.35294117647055" r="2" class="site-dot"/>
  <circle cx="200.0" cy="52.35294117647055" r="2" class="site-dot"/>
  <circle cx="253.33333333333334" cy="52.35294117647055" r="2" class="site-dot"/>
  <circle cx="306.6666666666667" cy="52.35294117647055" r="2" class="site-dot"/>
  <circle cx="360.0" cy="52.35294117647055" r="2" class="site-dot"/>
  <circle cx="40.0" cy="40.0" r="2" class="site-dot"/>
  <circle cx="93.33333333333334" cy="40.0" r="2" class="site-dot"/>
  <circle cx="146.66666666666669" cy="40.0" r="2" class="site-dot"/>
  <circle cx="200.0" cy="40.0" r="2" class="site-dot"/>
  <circle cx="253.33333333333334" cy="40.0" r="2" class="site-dot"/>
  <circle cx="306.6666666666667" cy="40.0" r="2" class="site-dot"/>
  <circle cx="360.0" cy="40.0" r="2" class="site-dot"/>
  <path d="M 93.33333333333334 460.0" class="worldline"/>
  <circle cx="93.33333333333334" cy="460.0" r="4" class="worldline-dot"/>
  <path d="M 146.66666666666669 460.0" class="worldline"/>
  <circle cx="146.66666666666669" cy="460.0" r="4" class="worldline-dot"/>
  <path d="M 306.6666666666667 422.94117647058823 L 306.6666666666667 410.5882352941176 L 306.6666666666667 398.2352941176471 L 306.6666666666667 385.88235294117646 L 306.6666666666667 373.52941176470586 L 306.6666666666667 361.1764705882353 L 306.6666666666667 348.8235294117647 L 306.6666666666667 336.47058823529414 L 306.6666666666667 324.11764705882354 L 306.6666666666667 311.7647058823529 L 306.6666666666667 299.4117647058823 L 306.6666666666667 287.05882352941177 L 306.6666666666667 274.70588235294116 L 306.6666666666667 262.3529411764706 L 306.6666666666667 250.0 L 306.6666666666667 237.6470588235294 L 306.6666666666667 225.2941176470588 L 306.6666666666667 212.94117647058823 L 306.6666666666667 200.58823529411762 L 306.6666666666667 188.23529411764707 L 306.6666666666667 175.88235294117646 L 306.6666666666667 163.52941176470586 L 306.6666666666667 151.1764705882353 L 306.6666666666667 138.8235294117647 L 306.6666666666667 126.47058823529409 L 306.6666666666667 114.11764705882354 L 306.6666666666667 101.76470588235293 L 306.6666666666667 89.41176470588232 L 306.6666666666667 77.05882352941177 L 306.6666666666667 64.70588235294116 L 306.6666666666667 52.35294117647055 L 306.6666666666667 40.0" class="worldline"/>
  <circle cx="306.6666666666667" cy="422.94117647058823" r="4" class="worldline-dot"/>
  <circle cx="306.6666666666667" cy="410.5882352941176" r="4" class="worldline-dot"/>
  <circle cx="306.6666666666667" cy="398.2352941176471" r="4" class="worldline-dot"/>
  <circle cx="306.6666666666667" cy="385.88235294117646" r="4" class="worldline-dot"/>
  <circle cx="306.6666666666667" cy="373.52941176470586" r="4" class="worldline-dot"/>
  <circle cx="306.6666666666667" cy="361.1764705882353" r="4" class="worldline-dot"/>
  <circle cx="306.6666666666667" cy="348.8235294117647" r="4" class="worldline-dot"/>
  <circle cx="306.6666666666667" cy="336.47058823529414" r="4" class="worldline-dot"/>
  <circle cx="306.6666666666667" cy="324.11764705882354" r="4" class="worldline-dot"/>
  <circle cx="306.6666666666667" cy="311.7647058823529" r="4" class="worldline-dot"/>
  <circle cx="306.6666666666667" cy="299.4117647058823" r="4" class="worldline-dot"/>
  <circle cx="306.6666666666667" cy="287.05882352941177" r="4" class="worldline-dot"/>
  <circle cx="306.6666666666667" cy="274.70588235294116" r="4" class="worldline-dot"/>
  <circle cx="306.6666666666667" cy="262.3529411764706" r="4" class="worldline-dot"/>
  <circle cx="306.6666666666667" cy="250.0" r="4" class="worldline-dot"/>
  <circle cx="306.6666666666667" cy="237.6470588235294" r="4" class="worldline-dot"/>
  <circle cx="306.6666666666667" cy="225.2941176470588" r="4" class="worldline-dot"/>
  <circle cx="306.6666666666667" cy="212.94117647058823" r="4" class="worldline-dot"/>
  <circle cx="306.6666666666667" cy="200.58823529411762" r="4" class="worldline-dot"/>
  <circle cx="306.6666666666667" cy="188.23529411764707" r="4" class="worldline-dot"/>
  <circle cx="306.6666666666667" cy="175.88235294117646" r="4" class="worldline-dot"/>
  <circle cx="306.6666666666667" cy="163.52941176470586" r="4" class="worldline-dot"/>
  <circle cx="306.6666666666667" cy="151.1764705882353" r="4" class="worldline-dot"/>
  <circle cx="306.6666666666667" cy="138.8235294117647" r="4" class="worldline-dot"/>
  <circle cx="306.6666666666667" cy="126.47058823529409" r="4" class="worldline-dot"/>
  <circle cx="306.6666666666667" cy="114.11764705882354" r="4" class="worldline-dot"/>
  <circle cx="306.6666666666667" cy="101.76470588235293" r="4" class="worldline-dot"/>
  <circle cx="306.6666666666667" cy="89.41176470588232" r="4" class="worldline-dot"/>
  <circle cx="306.6666666666667" cy="77.05882352941177" r="4" class="worldline-dot"/>
  <circle cx="306.6666666666667" cy="64.70588235294116" r="4" class="worldline-dot"/>
  <circle cx="306.6666666666667" cy="52.35294117647055" r="4" class="worldline-dot"/>
  <circle cx="306.6666666666667" cy="40.0" r="4" class="worldline-dot"/>
  <path d="M 360.0 422.94117647058823 L 360.0 410.5882352941176 L 360.0 398.2352941176471 L 360.0 385.88235294117646 L 360.0 373.52941176470586 L 360.0 361.1764705882353 L 360.0 348.8235294117647 L 360.0 336.47058823529414 L 360.0 324.11764705882354 L 360.0 311.7647058823529 L 360.0 299.4117647058823 L 360.0 287.05882352941177 L 360.0 274.70588235294116 L 360.0 262.3529411764706 L 360.0 250.0 L 360.0 237.6470588235294 L 360.0 225.2941176470588 L 360.0 212.94117647058823 L 360.0 200.58823529411762 L 360.0 188.23529411764707 L 360.0 175.88235294117646 L 360.0 163.52941176470586 L 360.0 151.1764705882353 L 360.0 138.8235294117647 L 360.0 126.47058823529409 L 360.0 114.11764705882354 L 360.0 101.76470588235293 L 360.0 89.41176470588232 L 360.0 77.05882352941177 L 360.0 64.70588235294116 L 360.0 52.35294117647055 L 360.0 40.0" class="worldline"/>
  <circle cx="360.0" cy="422.94117647058823" r="4" class="worldline-dot"/>
  <circle cx="360.0" cy="410.5882352941176" r="4" class="worldline-dot"/>
  <circle cx="360.0" cy="398.2352941176471" r="4" class="worldline-dot"/>
  <circle cx="360.0" cy="385.88235294117646" r="4" class="worldline-dot"/>
  <circle cx="360.0" cy="373.52941176470586" r="4" class="worldline-dot"/>
  <circle cx="360.0" cy="361.1764705882353" r="4" class="worldline-dot"/>
  <circle cx="360.0" cy="348.8235294117647" r="4" class="worldline-dot"/>
  <circle cx="360.0" cy="336.47058823529414" r="4" class="worldline-dot"/>
  <circle cx="360.0" cy="324.11764705882354" r="4" class="worldline-dot"/>
  <circle cx="360.0" cy="311.7647058823529" r="4" class="worldline-dot"/>
  <circle cx="360.0" cy="299.4117647058823" r="4" class="worldline-dot"/>
  <circle cx="360.0" cy="287.05882352941177" r="4" class="worldline-dot"/>
  <circle cx="360.0" cy="274.70588235294116" r="4" class="worldline-dot"/>
  <circle cx="360.0" cy="262.3529411764706" r="4" class="worldline-dot"/>
  <circle cx="360.0" cy="250.0" r="4" class="worldline-dot"/>
  <circle cx="360.0" cy="237.6470588235294" r="4" class="worldline-dot"/>
  <circle cx="360.0" cy="225.2941176470588" r="4" class="worldline-dot"/>
  <circle cx="360.0" cy="212.94117647058823" r="4" class="worldline-dot"/>
  <circle cx="360.0" cy="200.58823529411762" r="4" class="worldline-dot"/>
  <circle cx="360.0" cy="188.23529411764707" r="4" class="worldline-dot"/>
  <circle cx="360.0" cy="175.88235294117646" r="4" class="worldline-dot"/>
  <circle cx="360.0" cy="163.52941176470586" r="4" class="worldline-dot"/>
  <circle cx="360.0" cy="151.1764705882353" r="4" class="worldline-dot"/>
  <circle cx="360.0" cy="138.8235294117647" r="4" class="worldline-dot"/>
  <circle cx="360.0" cy="126.47058823529409" r="4" class="worldline-dot"/>
  <circle cx="360.0" cy="114.11764705882354" r="4" class="worldline-dot"/>
  <circle cx="360.0" cy="101.76470588235293" r="4" class="worldline-dot"/>
  <circle cx="360.0" cy="89.41176470588232" r="4" class="worldline-dot"/>
  <circle cx="360.0" cy="77.05882352941177" r="4" class="worldline-dot"/>
  <circle cx="360.0" cy="64.70588235294116" r="4" class="worldline-dot"/>
  <circle cx="360.0" cy="52.35294117647055" r="4" class="worldline-dot"/>
  <circle cx="360.0" cy="40.0" r="4" class="worldline-dot"/>
  <path d="M 93.33333333333334 444.55882352941177 Q 120.00000000000001 450.7352941176471 146.66666666666669 444.55882352941177" class="vertex-cap"/>
  <path d="M 306.6666666666667 422.94117647058823 Q 333.33333333333337 416.764705882353 360.0 422.94117647058823" class="vertex-cup"/>
  <line x1="30" y1="460" x2="370" y2="460" class="axis"/>
  <line x1="30" y1="460" x2="30" y2="30" class="axis"/>
  <text x="200.0" y="490" class="label" text-anchor="middle">site</text>
  <text x="15" y="250.0" class="label" transform="rotate(-90, 15, 250.0)">τ (imaginary time)</text>
  <text x="40.0" y="480" class="label" text-anchor="middle">1</text>
  <text x="93.33333333333334" y="480" class="label" text-anchor="middle">2</text>
  <text x="146.66666666666669" y="480" class="label" text-anchor="middle">3</text>
  <text x="200.0" y="480" class="label" text-anchor="middle">4</text>
  <text x="253.33333333333334" y="480" class="label" text-anchor="middle">5</text>
  <text x="306.6666666666667" y="480" class="label" text-anchor="middle">6</text>
  <text x="360.0" y="480" class="label" text-anchor="middle">7</text>
  <text x="20" y="464.0" class="label" text-anchor="end">1</text>
  <text x="20" y="377.52941176470586" class="label" text-anchor="end">8</text>
  <text x="20" y="291.05882352941177" class="label" text-anchor="end">15</text>
  <text x="20" y="204.58823529411762" class="label" text-anchor="end">22</text>
  <text x="20" y="118.11764705882354" class="label" text-anchor="end">29</text>
  <text x="200.0" y="25" class="label" text-anchor="middle" font-weight="bold">TL Spacetime (n=7, n_τ=35, δ=1.62)</text>
</svg>