<?xml version="1.0" encoding="UTF-8"?>
<svg xmlns="http://www.w3.org/2000/svg" width="350" height="450" viewBox="0 0 350 450">
  <style>
    .worldline { stroke: #2563eb; stroke-width: 2; fill: none; }
    .site-dot { fill: #94a3b8; }
    .worldline-dot { fill: #2563eb; }
    .vertex-cup { fill: none; stroke: #16a34a; stroke-width: 2; }
    .vertex-cap { fill: none; stroke: #dc2626; stroke-width: 2; }
    .axis { stroke: #334155; stroke-width: 1; }
    .label { font-family: monospace; font-size: 12px; fill: #334155; }
  </style>
  <rect width="100%" height="100%" fill="white"/>

  <circle cx="40.0" cy="410.0" r="2" class="site-dot"/>
  <circle cx="94.0" cy="410.0" r="2" class="site-dot"/>
  <circle cx="148.0" cy="410.0" r="2" class="site-dot"/>
  <circle cx="202.0" cy="410.0" r="2" class="site-dot"/>
  <circle cx="256.0" cy="410.0" r="2" class="site-dot"/>
  <circle cx="310.0" cy="410.0" r="2" class="site-dot"/>
  <circle cx="40.0" cy="397.2413793103448" r="2" class="site-dot"/>
  <circle cx="94.0" cy="397.2413793103448" r="2" class="site-dot"/>
  <circle cx="148.0" cy="397.2413793103448" r="2" class="site-dot"/>
  <circle cx="202.0" cy="397.2413793103448" r="2" class="site-dot"/>
  <circle cx="256.0" cy="397.2413793103448" r="2" class="site-dot"/>
  <circle cx="310.0" cy="397.2413793103448" r="2" class="site-dot"/>
  <circle cx="40.0" cy="384.48275862068965" r="2" class="site-dot"/>
  <circle cx="94.0" cy="384.48275862068965" r="2" class="site-dot"/>
  <circle cx="148.0" cy="384.48275862068965" r="2" class="site-dot"/>
  <circle cx="202.0" cy="384.48275862068965" r="2" class="site-dot"/>
  <circle cx="256.0" cy="384.48275862068965" r="2" class="site-dot"/>
  <circle cx="310.0" cy="384.48275862068965" r="2" class="site-dot"/>
  <circle cx="40.0" cy="371.7241379310345" r="2" class="site-dot"/>
  <circle cx="94.0" cy="371.7241379310345" r="2" class="site-dot"/>
  <circle cx="148.0" cy="371.7241379310345" r="2" class="site-dot"/>
  <circle cx="202.0" cy="371.7241379310345" r="2" class="site-dot"/>
  <circle cx="256.0" cy="371.7241379310345" r="2" class="site-dot"/>
  <circle cx="310.0" cy="371.7241379310345" r="2" class="site-dot"/>
  <circle cx="40.0" cy="358.9655172413793" r="2" class="site-dot"/>
  <circle cx="94.0" cy="358.9655172413793" r="2" class="site-dot"/>
  <circle cx="148.0" cy="358.9655172413793" r="2" class="site-dot"/>
  <circle cx="202.0" cy="358.9655172413793" r="2" class="site-dot"/>
  <circle cx="256.0" cy="358.9655172413793" r="2" class="site-dot"/>
  <circle cx="310.0" cy="358.9655172413793" r="2" class="site-dot"/>
  <circle cx="40.0" cy="346.2068965517241" r="2" class="site-dot"/>
  <circle cx="94.0" cy="346.2068965517241" r="2" class="site-dot"/>
  <circle cx="148.0" cy="346.2068965517241" r="2" class="site-dot"/>
  <circle cx="202.0" cy="346.2068965517241" r="2" class="site-dot"/>
  <circle cx="256.0" cy="346.2068965517241" r="2" class="site-dot"/>
  <circle cx="310.0" cy="346.2068965517241" r="2" class="site-dot"/>
  <circle cx="40.0" cy="333.44827586206895" r="2" class="site-dot"/>
  <circle cx="94.0" cy="333.44827586206895" r="2" class="site-dot"/>
  <circle cx="148.0" cy="333.44827586206895" r="2" class="site-dot"/>
  <circle cx="202.0" cy="333.44827586206895" r="2" class="site-dot"/>
  <circle cx="256.0" cy="333.44827586206895" r="2" class="site-dot"/>
  <circle cx="310.0" cy="333.44827586206895" r="2" class="site-dot"/>
  <circle cx="40.0" cy="320.6896551724138" r="2" class="site-dot"/>
  <circle cx="94.0" cy="320.6896551724138" r="2" class="site-dot"/>
  <circle cx="148.0" cy="320.6896551724138" r="2" class="site-dot"/>
  <circle cx="202.0" cy="320.6896551724138" r="2" class="site-dot"/>
  <circle cx="256.0" cy="320.6896551724138" r="2" class="site-dot"/>
  <circle cx="310.0" cy="320.6896551724138" r="2" class="site-dot"/>
  <circle cx="40.0" cy="307.9310344827586" r="2" class="site-dot"/>
  <circle cx="94.0" cy="307.9310344827586" r="2" class="site-dot"/>
  <circle cx="148.0" cy="307.9310344827586" r="2" class="site-dot"/>
  <circle cx="202.0" cy="307.9310344827586" r="2" class="site-dot"/>
  <circle cx="256.0" cy="307.9310344827586" r="2" class="site-dot"/>
  <circle cx="310.0" cy="307.9310344827586" r="2" class="site-dot"/>
  <circle cx="40.0" cy="295.17241379310343" r="2" class="site-dot"/>
  <circle cx="94.0" cy="295.17241379310343" r="2" class="site-dot"/>
  <circle cx="148.0" cy="295.17241379310343" r="2" class="site-dot"/>
  <circle cx="202.0" cy="295.17241379310343" r="2" class="site-dot"/>
  <circle cx="256.0" cy="295.17241379310343" r="2" class="site-dot"/>
  <circle cx="310.0" cy="295.17241379310343" r="2" class="site-dot"/>
  <circle cx="40.0" cy="282.41379310344826" r="2" class="site-dot"/>
  <circle cx="94.0" cy="282.41379310344826" r="2" class="site-dot"/>
  <circle cx="148.0" cy="282.41379310344826" r="2" class="site-dot"/>
  <circle cx="202.0" cy="282.41379310344826" r="2" class="site-dot"/>
  <circle cx="256.0" cy="282.41379310344826" r="2" class="site-dot"/>
  <circle cx="310.0" cy="282.41379310344826" r="2" class="site-dot"/>
  <circle cx="40.0" cy="269.65517241379314" r="2" class="site-dot"/>
  <circle cx="94.0" cy="269.65517241379314" r="2" class="site-dot"/>
  <circle cx="148.0" cy="269.65517241379314" r="2" class="site-dot"/>
  <circle cx="202.0" cy="269.65517241379314" r="2" class="site-dot"/>
  <circle cx="256.0" cy="269.65517241379314" r="2" class="site-dot"/>
  <circle cx="310.0" cy="269.65517241379314" r="2" class="site-dot"/>
  <circle cx="40.0" cy="256.8965517241379" r="2" class="site-dot"/>
  <circle cx="94.0" cy="256.8965517241379" r="2" class="site-dot"/>
  <circle cx="148.0" cy="256.8965517241379" r="2" class="site-dot"/>
  <circle cx="202.0" cy="256.8965517241379" r="2" class="site-dot"/>
  <circle cx="256.0" cy="256.8965517241379" r="2" class="site-dot"/>
  <circle cx="310.0" cy="256.8965517241379" r="2" class="site-dot"/>
  <circle cx="40.0" cy="244.13793103448276" r="2" class="site-dot"/>
  <circle cx="94.0" cy="244.13793103448276" r="2" class="site-dot"/>
  <circle cx="148.0" cy="244.13793103448276" r="2" class="site-dot"/>
  <circle cx="202.0" cy="244.13793103448276" r="2" class="site-dot"/>
  <circle cx="256.0" cy="244.13793103448276" r="2" class="site-dot"/>
  <circle cx="310.0" cy="244.13793103448276" r="2" class="site-dot"/>
  <circle cx="40.0" cy="231.3793103448276" r="2" class="site-dot"/>
  <circle cx="94.0" cy="231.3793103448276" r="2" class="site-dot"/>
  <circle cx="148.0" cy="231.3793103448276" r="2" class="site-dot"/>
  <circle cx="202.0" cy="231.3793103448276" r="2" class="site-dot"/>
  <circle cx="256.0" cy="231.3793103448276" r="2" class="site-dot"/>
  <circle cx="310.0" cy="231.3793103448276" r="2" class="site-dot"/>
  <circle cx="40.0" cy="218.6206896551724" r="2" class="site-dot"/>
  <circle cx="94.0" cy="218.6206896551724" r="2" class="site-dot"/>
  <circle cx="148.0" cy="218.6206896551724" r="2" class="site-dot"/>
  <circle cx="202.0" cy="218.6206896551724" r="2" class="site-dot"/>
  <circle cx="256.0" cy="218.6206896551724" r="2" class="site-dot"/>
  <circle cx="310.0" cy="218.6206896551724" r="2" class="site-dot"/>
  <circle cx="40.0" cy="205.86206896551724" r="2" class="site-dot"/>
  <circle cx="94.0" cy="205.86206896551724" r="2" class="site-dot"/>
  <circle cx="148.0" cy="205.86206896551724" r="2" class="site-dot"/>
  <circle cx="202.0" cy="205.86206896551724" r="2" class="site-dot"/>
  <circle cx="256.0" cy="205.86206896551724" r="2" class="site-dot"/>
  <circle cx="310.0" cy="205.86206896551724" r="2" class="site-dot"/>
  <circle cx="40.0" cy="193.10344827586206" r="2" class="site-dot"/>
  <circle cx="94.0" cy="193.10344827586206" r="2" class="site-dot"/>
  <circle cx="148.0" cy="193.10344827586206" r="2" class="site-dot"/>
  <circle cx="202.0" cy="193.10344827586206" r="2" class="site-dot"/>
  <circle cx="256.0" cy="193.10344827586206" r="2" class="site-dot"/>
  <circle cx="310.0" cy="193.10344827586206" r="2" class="site-dot"/>
  <circle cx="40.0" cy="180.3448275862069" r="2" class="site-dot"/>
  <circle cx="94.0" cy="180.3448275862069" r="2" class="site-dot"/>
  <circle cx="148.0" cy="180.3448275862069" r="2" class="site-dot"/>
  <circle cx="202.0" cy="180.3448275862069" r="2" class="site-dot"/>
  <circle cx="256.0" cy="180.3448275862069" r="2" class="site-dot"/>
  <circle cx="310.0" cy="180.3448275862069" r="2" class="site-dot"/>
  <circle cx="40.0" cy="167.58620689655172" r="2" class="site-dot"/>
  <circle cx="94.0" cy="167.58620689655172" r="2" class="site-dot"/>
  <circle cx="148.0" cy="167.58620689655172" r="2" class="site-dot"/>
  <circle cx="202.0" cy="167.58620689655172" r="2" class="site-dot"/>
  <circle cx="256.0" cy="167.58620689655172" r="2" class="site-dot"/>
  <circle cx="310.0" cy="167.58620689655172" r="2" class="site-dot"/>
  <circle cx="40.0" cy="154.82758620689654" r="2" class="site-dot"/>
  <circle cx="94.0" cy="154.82758620689654" r="2" class="site-dot"/>
  <circle cx="148.0" cy="154.82758620689654" r="2" class="site-dot"/>
  <circle cx="202.0" cy="154.82758620689654" r="2" class="site-dot"/>
  <circle cx="256.0" cy="154.82758620689654" r="2" class="site-dot"/>
  <circle cx="310.0" cy="154.82758620689654" r="2" class="site-dot"/>
  <circle cx="40.0" cy="142.0689655172414" r="2" class="site-dot"/>
  <circle cx="94.0" cy="142.0689655172414" r="2" class="site-dot"/>
  <circle cx="148.0" cy="142.0689655172414" r="2" class="site-dot"/>
  <circle cx="202.0" cy="142.0689655172414" r="2" class="site-dot"/>
  <circle cx="256.0" cy="142.0689655172414" r="2" class="site-dot"/>
  <circle cx="310.0" cy="142.0689655172414" r="2" class="site-dot"/>
  <circle cx="40.0" cy="129.31034482758622" r="2" class="site-dot"/>
  <circle cx="94.0" cy="129.31034482758622" r="2" class="site-dot"/>
  <circle cx="148.0" cy="129.31034482758622" r="2" class="site-dot"/>
  <circle cx="202.0" cy="129.31034482758622" r="2" class="site-dot"/>
  <circle cx="256.0" cy="129.31034482758622" r="2" class="site-dot"/>
  <circle cx="310.0" cy="129.31034482758622" r="2" class="site-dot"/>
  <circle cx="40.0" cy="116.55172413793105" r="2" class="site-dot"/>
  <circle cx="94.0" cy="116.55172413793105" r="2" class="site-dot"/>
  <circle cx="148.0" cy="116.55172413793105" r="2" class="site-dot"/>
  <circle cx="202.0" cy="116.55172413793105" r="2" class="site-dot"/>
  <circle cx="256.0" cy="116.55172413793105" r="2" class="site-dot"/>
  <circle cx="310.0" cy="116.55172413793105" r="2" class="site-dot"/>
  <circle cx="40.0" cy="103.79310344827587" r="2" class="site-dot"/>
  <circle cx="94.0" cy="103.79310344827587" r="2" class="site-dot"/>
  <circle cx="148.0" cy="103.79310344827587" r="2" class="site-dot"/>
  <circle cx="202.0" cy="103.79310344827587" r="2" class="site-dot"/>
  <circle cx="256.0" cy="103.79310344827587" r="2" class="site-dot"/>
  <circle cx="310.0" cy="103.79310344827587" r="2" class="site-dot"/>
  <circle cx="40.0" cy="91.0344827586207" r="2" class="site-dot"/>
  <circle cx="94.0" cy="91.0344827586207" r="2" class="site-dot"/>
  <circle cx="148.0" cy="91.0344827586207" r="2" class="site-dot"/>
  <circle cx="202.0" cy="91.0344827586207" r="2" class="site-dot"/>
  <circle cx="256.0" cy="91.0344827586207" r="2" class="site-dot"/>
  <circle cx="310.0" cy="91.0344827586207" r="2" class="site-dot"/>
  <circle cx="40.0" cy="78.27586206896552" r="2" class="site-dot"/>
  <circle cx="94.0" cy="78.27586206896552" r="2" class="site-dot"/>
  <circle cx="148.0" cy="78.27586206896552" r="2" class="site-dot"/>
  <circle cx="202.0" cy="78.27586206896552" r="2" class="site-dot"/>
  <circle cx="256.0" cy="78.27586206896552" r="2" class="site-dot"/>
  <circle cx="310.0" cy="78.27586206896552" r="2" class="site-dot"/>
  <circle cx="40.0" cy="65.51724137931035" r="2" class="site-dot"/>
  <circle cx="94.0" cy="65.51724137931035" r="2" class="site-dot"/>
  <circle cx="148.0" cy="65.51724137931035" r="2" class="site-dot"/>
  <circle cx="202.0" cy="65.51724137931035" r="2" class="site-dot"/>
  <circle cx="256.0" cy="65.51724137931035" r="2" class="site-dot"/>
  <circle cx="310.0" cy="65.51724137931035" r="2" class="site-dot"/>
  <circle cx="40.0" cy="52.758620689655174" r="2" class="site-dot"/>
  <circle cx="94.0" cy="52.758620689655174" r="2" class="site-dot"/>
  <circle cx="148.0" cy="52.758620689655174" r="2" class="site-dot"/>
  <circle cx="202.0" cy="52.758620689655174" r="2" class="site-dot"/>
  <circle cx="256.0" cy="52.758620689655174" r="2" class="site-dot"/>
  <circle cx="310.0" cy="52.758620689655174" r="2" class="site-dot"/>
  <circle cx="40.0" cy="40.0" r="2" class="site-dot"/>
  <circle cx="94.0" cy="40.0" r="2" class="site-dot"/>
  <circle cx="148.0" cy="40.0" r="2" class="site-dot"/>
  <circle cx="202.0" cy="40.0" r="2" class="site-dot"/>
  <circle cx="256.0" cy="40.0" r="2" class="site-dot"/>
  <circle cx="310.0" cy="40.0" r="2" class="site-dot"/>
  <path d="M 94.0 91.0344827586207 L 94.0 78.27586206896552 L 94.0 65.51724137931035 L 94.0 52.758620689655174 L 94.0 40.0" class="worldline"/>
  <circle cx="94.0" cy="91.0344827586207" r="4" class="worldline-dot"/>
  <circle cx="94.0" cy="78.27586206896552" r="4" class="worldline-dot"/>
  <circle cx="94.0" cy="65.51724137931035" r="4" class="worldline-dot"/>
  <circle cx="94.0" cy="52.758620689655174" r="4" class="worldline-dot"/>
  <circle cx="94.0" cy="40.0" r="4" class="worldline-dot"/>
  <path d="M 148.0 91.0344827586207 L 148.0 78.27586206896552 L 148.0 65.51724137931035 L 148.0 52.758620689655174 L 148.0 40.0" class="worldline"/>
  <circle cx="148.0" cy="91.0344827586207" r="4" class="worldline-dot"/>
  <circle cx="148.0" cy="78.27586206896552" r="4" class="worldline-dot"/>
  <circle cx="148.0" cy="65.51724137931035" r="4" class="worldline-dot"/>
  <circle cx="148.0" cy="52.758620689655174" r="4" class="worldline-dot"/>
  <circle cx="148.0" cy="40.0" r="4" class="worldline-dot"/>
  <path d="M 94.0 91.0344827586207 Q 121.0 84.65517241379311 148.0 91.0344827586207" class="vertex-cup"/>
  <line x1="30" y1="410" x2="320" y2="410" class="axis"/>
  <line x1="30" y1="410" x2="30" y2="30" class="axis"/>
  <text x="175.0" y="440" class="label" text-anchor="middle">site</text>
  <text x="15" y="225.0" class="label" transform="rotate(-90, 15, 225.0)">τ (imaginary time)</text>
  <text x="40.0" y="430" class="label" text-anchor="middle">1</text>
  <text x="94.0" y="430" class="label" text-anchor="middle">2</text>
  <text x="148.0" y="430" class="label" text-anchor="middle">3</text>
  <text x="202.0" y="430" class="label" text-anchor="middle">4</text>
  <text x="256.0" y="430" class="label" text-anchor="middle">5</text>
  <text x="310.0" y="430" class="label" text-anchor="middle">6</text>
  <text x="20" y="414.0" class="label" text-anchor="end">1</text>
  <text x="20" y="337.44827586206895" class="label" text-anchor="end">7</text>
  <text x="20" y="260.8965517241379" class="label" text-anchor="end">13</text>
  <text x="20" y="184.3448275862069" class="label" text-anchor="end">19</text>
  <text x="20" y="107.79310344827587" class="label" text-anchor="end">25</text>
  <text x="175.0" y="25" class="label" text-anchor="middle" font-weight="bold">TL Spacetime (n=6, n_τ=30, δ=1.62)</text>
</svg>