<?xml version="1.0" encoding="UTF-8"?>
<svg xmlns="http://www.w3.org/2000/svg" width="300" height="400" viewBox="0 0 300 400">
  <style>
    .worldline { stroke: #2563eb; stroke-width: 2; fill: none; }
    .site-dot { fill: #94a3b8; }
    .worldline-dot { fill: #2563eb; }
    .vertex-cup { fill: none; stroke: #16a34a; stroke-width: 2; }
    .vertex-cap { fill: none; stroke: #dc2626; stroke-width: 2; }
    .axis { stroke: #334155; stroke-width: 1; }
    .label { font-family: monospace; font-size: 12px; fill: #334155; }
  </style>
  <rect width="100%" height="100%" fill="white"/>

  <circle cx="40.0" cy="360.0" r="2" class="site-dot"/>
  <circle cx="95.0" cy="360.0" r="2" class="site-dot"/>
  <circle cx="150.0" cy="360.0" r="2" class="site-dot"/>
  <circle cx="205.0" cy="360.0" r="2" class="site-dot"/>
  <circle cx="260.0" cy="360.0" r="2" class="site-dot"/>
  <circle cx="40.0" cy="346.6666666666667" r="2" class="site-dot"/>
  <circle cx="95.0" cy="346.6666666666667" r="2" class="site-dot"/>
  <circle cx="150.0" cy="346.6666666666667" r="2" class="site-dot"/>
  <circle cx="205.0" cy="346.6666666666667" r="2" class="site-dot"/>
  <circle cx="260.0" cy="346.6666666666667" r="2" class="site-dot"/>
  <circle cx="40.0" cy="333.3333333333333" r="2" class="site-dot"/>
  <circle cx="95.0" cy="333.3333333333333" r="2" class="site-dot"/>
  <circle cx="150.0" cy="333.3333333333333" r="2" class="site-dot"/>
  <circle cx="205.0" cy="333.3333333333333" r="2" class="site-dot"/>
  <circle cx="260.0" cy="333.3333333333333" r="2" class="site-dot"/>
  <circle cx="40.0" cy="320.0" r="2" class="site-dot"/>
  <circle cx="95.0" cy="320.0" r="2" class="site-dot"/>
  <circle cx="150.0" cy="320.0" r="2" class="site-dot"/>
  <circle cx="205.0" cy="320.0" r="2" class="site-dot"/>
  <circle cx="260.0" cy="320.0" r="2" class="site-dot"/>
  <circle cx="40.0" cy="306.6666666666667" r="2" class="site-dot"/>
  <circle cx="95.0" cy="306.6666666666667" r="2" class="site-dot"/>
  <circle cx="150.0" cy="306.6666666666667" r="2" class="site-dot"/>
  <circle cx="205.0" cy="306.6666666666667" r="2" class="site-dot"/>
  <circle cx="260.0" cy="306.6666666666667" r="2" class="site-dot"/>
  <circle cx="40.0" cy="293.3333333333333" r="2" class="site-dot"/>
  <circle cx="95.0" cy="293.3333333333333" r="2" class="site-dot"/>
  <circle cx="150.0" cy="293.3333333333333" r="2" class="site-dot"/>
  <circle cx="205.0" cy="293.3333333333333" r="2" class="site-dot"/>
  <circle cx="260.0" cy="293.3333333333333" r="2" class="site-dot"/>
  <circle cx="40.0" cy="280.0" r="2" class="site-dot"/>
  <circle cx="95.0" cy="280.0" r="2" class="site-dot"/>
  <circle cx="150.0" cy="280.0" r="2" class="site-dot"/>
  <circle cx="205.0" cy="280.0" r="2" class="site-dot"/>
  <circle cx="260.0" cy="280.0" r="2" class="site-dot"/>
  <circle cx="40.0" cy="266.66666666666663" r="2" class="site-dot"/>
  <circle cx="95.0" cy="266.66666666666663" r="2" class="site-dot"/>
  <circle cx="150.0" cy="266.66666666666663" r="2" class="site-dot"/>
  <circle cx="205.0" cy="266.66666666666663" r="2" class="site-dot"/>
  <circle cx="260.0" cy="266.66666666666663" r="2" class="site-dot"/>
  <circle cx="40.0" cy="253.33333333333331" r="2" class="site-dot"/>
  <circle cx="95.0" cy="253.33333333333331" r="2" class="site-dot"/>
  <circle cx="150.0" cy="253.33333333333331" r="2" class="site-dot"/>
  <circle cx="205.0" cy="253.33333333333331" r="2" class="site-dot"/>
  <circle cx="260.0" cy="253.33333333333331" r="2" class="site-dot"/>
  <circle cx="40.0" cy="240.0" r="2" class="site-dot"/>
  <circle cx="95.0" cy="240.0" r="2" class="site-dot"/>
  <circle cx="150.0" cy="240.0" r="2" class="site-dot"/>
  <circle cx="205.0" cy="240.0" r="2" class="site-dot"/>
  <circle cx="260.0" cy="240.0" r="2" class="site-dot"/>
  <circle cx="40.0" cy="226.66666666666666" r="2" class="site-dot"/>
  <circle cx="95.0" cy="226.66666666666666" r="2" class="site-dot"/>
  <circle cx="150.0" cy="226.66666666666666" r="2" class="site-dot"/>
  <circle cx="205.0" cy="226.66666666666666" r="2" class="site-dot"/>
  <circle cx="260.0" cy="226.66666666666666" r="2" class="site-dot"/>
  <circle cx="40.0" cy="213.33333333333331" r="2" class="site-dot"/>
  <circle cx="95.0" cy="213.33333333333331" r="2" class="site-dot"/>
  <circle cx="150.0" cy="213.33333333333331" r="2" class="site-dot"/>
  <circle cx="205.0" cy="213.33333333333331" r="2" class="site-dot"/>
  <circle cx="260.0" cy="213.33333333333331" r="2" class="site-dot"/>
  <circle cx="40.0" cy="200.0" r="2" class="site-dot"/>
  <circle cx="95.0" cy="200.0" r="2" class="site-dot"/>
  <circle cx="150.0" cy="200.0" r="2" class="site-dot"/>
  <circle cx="205.0" cy="200.0" r="2" class="site-dot"/>
  <circle cx="260.0" cy="200.0" r="2" class="site-dot"/>
  <circle cx="40.0" cy="186.66666666666666" r="2" class="site-dot"/>
  <circle cx="95.0" cy="186.66666666666666" r="2" class="site-dot"/>
  <circle cx="150.0" cy="186.66666666666666" r="2" class="site-dot"/>
  <circle cx="205.0" cy="186.66666666666666" r="2" class="site-dot"/>
  <circle cx="260.0" cy="186.66666666666666" r="2" class="site-dot"/>
  <circle cx="40.0" cy="173.33333333333331" r="2" class="site-dot"/>
  <circle cx="95.0" cy="173.33333333333331" r="2" class="site-dot"/>
  <circle cx="150.0" cy="173.33333333333331" r="2" class="site-dot"/>
  <circle cx="205.0" cy="173.33333333333331" r="2" class="site-dot"/>
  <circle cx="260.0" cy="173.33333333333331" r="2" class="site-dot"/>
  <circle cx="40.0" cy="160.0" r="2" class="site-dot"/>
  <circle cx="95.0" cy="160.0" r="2" class="site-dot"/>
  <circle cx="150.0" cy="160.0" r="2" class="site-dot"/>
  <circle cx="205.0" cy="160.0" r="2" class="site-dot"/>
  <circle cx="260.0" cy="160.0" r="2" class="site-dot"/>
  <circle cx="40.0" cy="146.66666666666666" r="2" class="site-dot"/>
  <circle cx="95.0" cy="146.66666666666666" r="2" class="site-dot"/>
  <circle cx="150.0" cy="146.66666666666666" r="2" class="site-dot"/>
  <circle cx="205.0" cy="146.66666666666666" r="2" class="site-dot"/>
  <circle cx="260.0" cy="146.66666666666666" r="2" class="site-dot"/>
  <circle cx="40.0" cy="133.33333333333331" r="2" class="site-dot"/>
  <circle cx="95.0" cy="133.33333333333331" r="2" class="site-dot"/>
  <circle cx="150.0" cy="133.33333333333331" r="2" class="site-dot"/>
  <circle cx="205.0" cy="133.33333333333331" r="2" class="site-dot"/>
  <circle cx="260.0" cy="133.33333333333331" r="2" class="site-dot"/>
  <circle cx="40.0" cy="120.0" r="2" class="site-dot"/>
  <circle cx="95.0" cy="120.0" r="2" class="site-dot"/>
  <circle cx="150.0" cy="120.0" r="2" class="site-dot"/>
  <circle cx="205.0" cy="120.0" r="2" class="site-dot"/>
  <circle cx="260.0" cy="120.0" r="2" class="site-dot"/>
  <circle cx="40.0" cy="106.66666666666666" r="2" class="site-dot"/>
  <circle cx="95.0" cy="106.66666666666666" r="2" class="site-dot"/>
  <circle cx="150.0" cy="106.66666666666666" r="2" class="site-dot"/>
  <circle cx="205.0" cy="106.66666666666666" r="2" class="site-dot"/>
  <circle cx="260.0" cy="106.66666666666666" r="2" class="site-dot"/>
  <circle cx="40.0" cy="93.33333333333331" r="2" class="site-dot"/>
  <circle cx="95.0" cy="93.33333333333331" r="2" class="site-dot"/>
  <circle cx="150.0" cy="93.33333333333331" r="2" class="site-dot"/>
  <circle cx="205.0" cy="93.33333333333331" r="2" class="site-dot"/>
  <circle cx="260.0" cy="93.33333333333331" r="2" class="site-dot"/>
  <circle cx="40.0" cy="80.0" r="2" class="site-dot"/>
  <circle cx="95.0" cy="80.0" r="2" class="site-dot"/>
  <circle cx="150.0" cy="80.0" r="2" class="site-dot"/>
  <circle cx="205.0" cy="80.0" r="2" class="site-dot"/>
  <circle cx="260.0" cy="80.0" r="2" class="site-dot"/>
  <circle cx="40.0" cy="66.66666666666663" r="2" class="site-dot"/>
  <circle cx="95.0" cy="66.66666666666663" r="2" class="site-dot"/>
  <circle cx="150.0" cy="66.66666666666663" r="2" class="site-dot"/>
  <circle cx="205.0" cy="66.66666666666663" r="2" class="site-dot"/>
  <circle cx="260.0" cy="66.66666666666663" r="2" class="site-dot"/>
  <circle cx="40.0" cy="53.333333333333314" r="2" class="site-dot"/>
  <circle cx="95.0" cy="53.333333333333314" r="2" class="site-dot"/>
  <circle cx="150.0" cy="53.333333333333314" r="2" class="site-dot"/>
  <circle cx="205.0" cy="53.333333333333314" r="2" class="site-dot"/>
  <circle cx="260.0" cy="53.333333333333314" r="2" class="site-dot"/>
  <circle cx="40.0" cy="40.0" r="2" class="site-dot"/>
  <circle cx="95.0" cy="40.0" r="2" class="site-dot"/>
  <circle cx="150.0" cy="40.0" r="2" class="site-dot"/>
  <circle cx="205.0" cy="40.0" r="2" class="site-dot"/>
  <circle cx="260.0" cy="40.0" r="2" class="site-dot"/>
  <path d="M 40.0 360.0 L 40.0 346.6666666666667 L 40.0 333.3333333333333 L 40.0 320.0 L 40.0 306.6666666666667 L 40.0 293.3333333333333 L 40.0 280.0 L 40.0 266.66666666666663 L 40.0 253.33333333333331 L 40.0 240.0 L 40.0 226.66666666666666 L 40.0 213.33333333333331 L 40.0 200.0 L 40.0 186.66666666666666 L 40.0 173.33333333333331 L 40.0 160.0 L 40.0 146.66666666666666 L 40.0 133.33333333333331 L 40.0 120.0 L 40.0 106.66666666666666 L 40.0 93.33333333333331 L 40.0 80.0 L 40.0 66.66666666666663 L 40.0 53.333333333333314 L 40.0 40.0" class="worldline"/>
  <circle cx="40.0" cy="360.0" r="4" class="worldline-dot"/>
  <circle cx="40.0" cy="346.6666666666667" r="4" class="worldline-dot"/>
  <circle cx="40.0" cy="333.3333333333333" r="4" class="worldline-dot"/>
  <circle cx="40.0" cy="320.0" r="4" class="worldline-dot"/>
  <circle cx="40.0" cy="306.6666666666667" r="4" class="worldline-dot"/>
  <circle cx="40.0" cy="293.3333333333333" r="4" class="worldline-dot"/>
  <circle cx="40.0" cy="280.0" r="4" class="worldline-dot"/>
  <circle cx="40.0" cy="266.66666666666663" r="4" class="worldline-dot"/>
  <circle cx="40.0" cy="253.33333333333331" r="4" class="worldline-dot"/>
  <circle cx="40.0" cy="240.0" r="4" class="worldline-dot"/>
  <circle cx="40.0" cy="226.66666666666666" r="4" class="worldline-dot"/>
  <circle cx="40.0" cy="213.33333333333331" r="4" class="worldline-dot"/>
  <circle cx="40.0" cy="200.0" r="4" class="worldline-dot"/>
  <circle cx="40.0" cy="186.66666666666666" r="4" class="worldline-dot"/>
  <circle cx="40.0" cy="173.33333333333331" r="4" class="worldline-dot"/>
  <circle cx="40.0" cy="160.0" r="4" class="worldline-dot"/>
  <circle cx="40.0" cy="146.66666666666666" r="4" class="worldline-dot"/>
  <circle cx="40.0" cy="133.33333333333331" r="4" class="worldline-dot"/>
  <circle cx="40.0" cy="120.0" r="4" class="worldline-dot"/>
  <circle cx="40.0" cy="106.66666666666666" r="4" class="worldline-dot"/>
  <circle cx="40.0" cy="93.33333333333331" r="4" class="worldline-dot"/>
  <circle cx="40.0" cy="80.0" r="4" class="worldline-dot"/>
  <circle cx="40.0" cy="66.66666666666663" r="4" class="worldline-dot"/>
  <circle cx="40.0" cy="53.333333333333314" r="4" class="worldline-dot"/>
  <circle cx="40.0" cy="40.0" r="4" class="worldline-dot"/>
  <path d="M 95.0 360.0 L 95.0 346.6666666666667 L 95.0 333.3333333333333 L 95.0 320.0 L 95.0 306.6666666666667 L 95.0 293.3333333333333 L 95.0 280.0 L 95.0 266.66666666666663 L 95.0 253.33333333333331 L 95.0 240.0 L 95.0 226.66666666666666 L 95.0 213.33333333333331 L 95.0 200.0 L 95.0 186.66666666666666 L 95.0 173.33333333333331 L 95.0 160.0 L 95.0 146.66666666666666 L 95.0 133.33333333333331 L 95.0 120.0 L 95.0 106.66666666666666 L 95.0 93.33333333333331 L 95.0 80.0 L 95.0 66.66666666666663 L 95.0 53.333333333333314 L 95.0 40.0" class="worldline"/>
  <circle cx="95.0" cy="360.0" r="4" class="worldline-dot"/>
  <circle cx="95.0" cy="346.6666666666667" r="4" class="worldline-dot"/>
  <circle cx="95.0" cy="333.3333333333333" r="4" class="worldline-dot"/>
  <circle cx="95.0" cy="320.0" r="4" class="worldline-dot"/>
  <circle cx="95.0" cy="306.6666666666667" r="4" class="worldline-dot"/>
  <circle cx="95.0" cy="293.3333333333333" r="4" class="worldline-dot"/>
  <circle cx="95.0" cy="280.0" r="4" class="worldline-dot"/>
  <circle cx="95.0" cy="266.66666666666663" r="4" class="worldline-dot"/>
  <circle cx="95.0" cy="253.33333333333331" r="4" class="worldline-dot"/>
  <circle cx="95.0" cy="240.0" r="4" class="worldline-dot"/>
  <circle cx="95.0" cy="226.66666666666666" r="4" class="worldline-dot"/>
  <circle cx="95.0" cy="213.33333333333331" r="4" class="worldline-dot"/>
  <circle cx="95.0" cy="200.0" r="4" class="worldline-dot"/>
  <circle cx="95.0" cy="186.66666666666666" r="4" class="worldline-dot"/>
  <circle cx="95.0" cy="173.33333333333331" r="4" class="worldline-dot"/>
  <circle cx="95.0" cy="160.0" r="4" class="worldline-dot"/>
  <circle cx="95.0" cy="146.66666666666666" r="4" class="worldline-dot"/>
  <circle cx="95.0" cy="133.33333333333331" r="4" class="worldline-dot"/>
  <circle cx="95.0" cy="120.0" r="4" class="worldline-dot"/>
  <circle cx="95.0" cy="106.66666666666666" r="4" class="worldline-dot"/>
  <circle cx="95.0" cy="93.33333333333331" r="4" class="worldline-dot"/>
  <circle cx="95.0" cy="80.0" r="4" class="worldline-dot"/>
  <circle cx="95.0" cy="66.66666666666663" r="4" class="worldline-dot"/>
  <circle cx="95.0" cy="53.333333333333314" r="4" class="worldline-dot"/>
  <circle cx="95.0" cy="40.0" r="4" class="worldline-dot"/>
  <line x1="30" y1="360" x2="270" y2="360" class="axis"/>
  <line x1="30" y1="360" x2="30" y2="30" class="axis"/>
  <text x="150.0" y="390" class="label" text-anchor="middle">site</text>
  <text x="15" y="200.0" class="label" transform="rotate(-90, 15, 200.0)">τ (imaginary time)</text>
  <text x="40.0" y="380" class="label" text-anchor="middle">1</text>
  <text x="95.0" y="380" class="label" text-anchor="middle">2</text>
  <text x="150.0" y="380" class="label" text-anchor="middle">3</text>
  <text x="205.0" y="380" class="label" text-anchor="middle">4</text>
  <text x="260.0" y="380" class="label" text-anchor="middle">5</text>
  <text x="20" y="364.0" class="label" text-anchor="end">1</text>
  <text x="20" y="297.3333333333333" class="label" text-anchor="end">6</text>
  <text x="20" y="230.66666666666666" class="label" text-anchor="end">11</text>
  <text x="20" y="164.0" class="label" text-anchor="end">16</text>
  <text x="20" y="97.33333333333331" class="label" text-anchor="end">21</text>
  <text x="150.0" y="25" class="label" text-anchor="middle" font-weight="bold">TL Spacetime (n=5, n_τ=25, δ=1.0)</text>
</svg>