<?xml version="1.0" encoding="UTF-8"?>
<svg xmlns="http://www.w3.org/2000/svg" width="400" height="500" viewBox="0 0 400 500">
  <style>
    .worldline { stroke: #2563eb; stroke-width: 2; fill: none; }
    .site-dot { fill: #94a3b8; }
    .worldline-dot { fill: #2563eb; }
    .vertex-cup { fill: none; stroke: #16a34a; stroke-width: 2; }
    .vertex-cap { fill: none; stroke: #dc2626; stroke-width: 2; }
    .axis { stroke: #334155; stroke-width: 1; }
    .label { font-family: monospace; font-size: 12px; fill: #334155; }
  </style>
  <rect width="100%" height="100%" fill="white"/>

  <circle cx="40.0" cy="460.0" r="2" class="site-dot"/>
  <circle cx="104.0" cy="460.0" r="2" class="site-dot"/>
  <circle cx="168.0" cy="460.0" r="2" class="site-dot"/>
  <circle cx="232.0" cy="460.0" r="2" class="site-dot"/>
  <circle cx="296.0" cy="460.0" r="2" class="site-dot"/>
  <circle cx="360.0" cy="460.0" r="2" class="site-dot"/>
  <circle cx="40.0" cy="437.89473684210526" r="2" class="site-dot"/>
  <circle cx="104.0" cy="437.89473684210526" r="2" class="site-dot"/>
  <circle cx="168.0" cy="437.89473684210526" r="2" class="site-dot"/>
  <circle cx="232.0" cy="437.89473684210526" r="2" class="site-dot"/>
  <circle cx="296.0" cy="437.89473684210526" r="2" class="site-dot"/>
  <circle cx="360.0" cy="437.89473684210526" r="2" class="site-dot"/>
  <circle cx="40.0" cy="415.7894736842105" r="2" class="site-dot"/>
  <circle cx="104.0" cy="415.7894736842105" r="2" class="site-dot"/>
  <circle cx="168.0" cy="415.7894736842105" r="2" class="site-dot"/>
  <circle cx="232.0" cy="415.7894736842105" r="2" class="site-dot"/>
  <circle cx="296.0" cy="415.7894736842105" r="2" class="site-dot"/>
  <circle cx="360.0" cy="415.7894736842105" r="2" class="site-dot"/>
  <circle cx="40.0" cy="393.6842105263158" r="2" class="site-dot"/>
  <circle cx="104.0" cy="393.6842105263158" r="2" class="site-dot"/>
  <circle cx="168.0" cy="393.6842105263158" r="2" class="site-dot"/>
  <circle cx="232.0" cy="393.6842105263158" r="2" class="site-dot"/>
  <circle cx="296.0" cy="393.6842105263158" r="2" class="site-dot"/>
  <circle cx="360.0" cy="393.6842105263158" r="2" class="site-dot"/>
  <circle cx="40.0" cy="371.57894736842104" r="2" class="site-dot"/>
  <circle cx="104.0" cy="371.57894736842104" r="2" class="site-dot"/>
  <circle cx="168.0" cy="371.57894736842104" r="2" class="site-dot"/>
  <circle cx="232.0" cy="371.57894736842104" r="2" class="site-dot"/>
  <circle cx="296.0" cy="371.57894736842104" r="2" class="site-dot"/>
  <circle cx="360.0" cy="371.57894736842104" r="2" class="site-dot"/>
  <circle cx="40.0" cy="349.4736842105263" r="2" class="site-dot"/>
  <circle cx="104.0" cy="349.4736842105263" r="2" class="site-dot"/>
  <circle cx="168.0" cy="349.4736842105263" r="2" class="site-dot"/>
  <circle cx="232.0" cy="349.4736842105263" r="2" class="site-dot"/>
  <circle cx="296.0" cy="349.4736842105263" r="2" class="site-dot"/>
  <circle cx="360.0" cy="349.4736842105263" r="2" class="site-dot"/>
  <circle cx="40.0" cy="327.36842105263156" r="2" class="site-dot"/>
  <circle cx="104.0" cy="327.36842105263156" r="2" class="site-dot"/>
  <circle cx="168.0" cy="327.36842105263156" r="2" class="site-dot"/>
  <circle cx="232.0" cy="327.36842105263156" r="2" class="site-dot"/>
  <circle cx="296.0" cy="327.36842105263156" r="2" class="site-dot"/>
  <circle cx="360.0" cy="327.36842105263156" r="2" class="site-dot"/>
  <circle cx="40.0" cy="305.2631578947369" r="2" class="site-dot"/>
  <circle cx="104.0" cy="305.2631578947369" r="2" class="site-dot"/>
  <circle cx="168.0" cy="305.2631578947369" r="2" class="site-dot"/>
  <circle cx="232.0" cy="305.2631578947369" r="2" class="site-dot"/>
  <circle cx="296.0" cy="305.2631578947369" r="2" class="site-dot"/>
  <circle cx="360.0" cy="305.2631578947369" r="2" class="site-dot"/>
  <circle cx="40.0" cy="283.1578947368421" r="2" class="site-dot"/>
  <circle cx="104.0" cy="283.1578947368421" r="2" class="site-dot"/>
  <circle cx="168.0" cy="283.1578947368421" r="2" class="site-dot"/>
  <circle cx="232.0" cy="283.1578947368421" r="2" class="site-dot"/>
  <circle cx="296.0" cy="283.1578947368421" r="2" class="site-dot"/>
  <circle cx="360.0" cy="283.1578947368421" r="2" class="site-dot"/>
  <circle cx="40.0" cy="261.0526315789474" r="2" class="site-dot"/>
  <circle cx="104.0" cy="261.0526315789474" r="2" class="site-dot"/>
  <circle cx="168.0" cy="261.0526315789474" r="2" class="site-dot"/>
  <circle cx="232.0" cy="261.0526315789474" r="2" class="site-dot"/>
  <circle cx="296.0" cy="261.0526315789474" r="2" class="site-dot"/>
  <circle cx="360.0" cy="261.0526315789474" r="2" class="site-dot"/>
  <circle cx="40.0" cy="238.94736842105263" r="2" class="site-dot"/>
  <circle cx="104.0" cy="238.94736842105263" r="2" class="site-dot"/>
  <circle cx="168.0" cy="238.94736842105263" r="2" class="site-dot"/>
  <circle cx="232.0" cy="238.94736842105263" r="2" class="site-dot"/>
  <circle cx="296.0" cy="238.94736842105263" r="2" class="site-dot"/>
  <circle cx="360.0" cy="238.94736842105263" r="2" class="site-dot"/>
  <circle cx="40.0" cy="216.8421052631579" r="2" class="site-dot"/>
  <circle cx="104.0" cy="216.8421052631579" r="2" class="site-dot"/>
  <circle cx="168.0" cy="216.8421052631579" r="2" class="site-dot"/>
  <circle cx="232.0" cy="216.8421052631579" r="2" class="site-dot"/>
  <circle cx="296.0" cy="216.8421052631579" r="2" class="site-dot"/>
  <circle cx="360.0" cy="216.8421052631579" r="2" class="site-dot"/>
  <circle cx="40.0" cy="194.73684210526318" r="2" class="site-dot"/>
  <circle cx="104.0" cy="194.73684210526318" r="2" class="site-dot"/>
  <circle cx="168.0" cy="194.73684210526318" r="2" class="site-dot"/>
  <circle cx="232.0" cy="194.73684210526318" r="2" class="site-dot"/>
  <circle cx="296.0" cy="194.73684210526318" r="2" class="site-dot"/>
  <circle cx="360.0" cy="194.73684210526318" r="2" class="site-dot"/>
  <circle cx="40.0" cy="172.63157894736844" r="2" class="site-dot"/>
  <circle cx="104.0" cy="172.63157894736844" r="2" class="site-dot"/>
  <circle cx="168.0" cy="172.63157894736844" r="2" class="site-dot"/>
  <circle cx="232.0" cy="172.63157894736844" r="2" class="site-dot"/>
  <circle cx="296.0" cy="172.63157894736844" r="2" class="site-dot"/>
  <circle cx="360.0" cy="172.63157894736844" r="2" class="site-dot"/>
  <circle cx="40.0" cy="150.5263157894737" r="2" class="site-dot"/>
  <circle cx="104.0" cy="150.5263157894737" r="2" class="site-dot"/>
  <circle cx="168.0" cy="150.5263157894737" r="2" class="site-dot"/>
  <circle cx="232.0" cy="150.5263157894737" r="2" class="site-dot"/>
  <circle cx="296.0" cy="150.5263157894737" r="2" class="site-dot"/>
  <circle cx="360.0" cy="150.5263157894737" r="2" class="site-dot"/>
  <circle cx="40.0" cy="128.42105263157896" r="2" class="site-dot"/>
  <circle cx="104.0" cy="128.42105263157896" r="2" class="site-dot"/>
  <circle cx="168.0" cy="128.42105263157896" r="2" class="site-dot"/>
  <circle cx="232.0" cy="128.42105263157896" r="2" class="site-dot"/>
  <circle cx="296.0" cy="128.42105263157896" r="2" class="site-dot"/>
  <circle cx="360.0" cy="128.42105263157896" r="2" class="site-dot"/>
  <circle cx="40.0" cy="106.31578947368422" r="2" class="site-dot"/>
  <circle cx="104.0" cy="106.31578947368422" r="2" class="site-dot"/>
  <circle cx="168.0" cy="106.31578947368422" r="2" class="site-dot"/>
  <circle cx="232.0" cy="106.31578947368422" r="2" class="site-dot"/>
  <circle cx="296.0" cy="106.31578947368422" r="2" class="site-dot"/>
  <circle cx="360.0" cy="106.31578947368422" r="2" class="site-dot"/>
  <circle cx="40.0" cy="84.21052631578948" r="2" class="site-dot"/>
  <circle cx="104.0" cy="84.21052631578948" r="2" class="site-dot"/>
  <circle cx="168.0" cy="84.21052631578948" r="2" class="site-dot"/>
  <circle cx="232.0" cy="84.21052631578948" r="2" class="site-dot"/>
  <circle cx="296.0" cy="84.21052631578948" r="2" class="site-dot"/>
  <circle cx="360.0" cy="84.21052631578948" r="2" class="site-dot"/>
  <circle cx="40.0" cy="62.10526315789474" r="2" class="site-dot"/>
  <circle cx="104.0" cy="62.10526315789474" r="2" class="site-dot"/>
  <circle cx="168.0" cy="62.10526315789474" r="2" class="site-dot"/>
  <circle cx="232.0" cy="62.10526315789474" r="2" class="site-dot"/>
  <circle cx="296.0" cy="62.10526315789474" r="2" class="site-dot"/>
  <circle cx="360.0" cy="62.10526315789474" r="2" class="site-dot"/>
  <circle cx="40.0" cy="40.0" r="2" class="site-dot"/>
  <circle cx="104.0" cy="40.0" r="2" class="site-dot"/>
  <circle cx="168.0" cy="40.0" r="2" class="site-dot"/>
  <circle cx="232.0" cy="40.0" r="2" class="site-dot"/>
  <circle cx="296.0" cy="40.0" r="2" class="site-dot"/>
  <circle cx="360.0" cy="40.0" r="2" class="site-dot"/>
  <path d="M 40.0 460.0 L 40.0 437.89473684210526 L 40.0 415.7894736842105 L 40.0 393.6842105263158 L 104.0 371.57894736842104 L 104.0 349.4736842105263 L 40.0 327.36842105263156 L 40.0 305.2631578947369 L 40.0 283.1578947368421 L 40.0 261.0526315789474 L 104.0 238.94736842105263 L 104.0 216.8421052631579 L 104.0 194.73684210526318 L 104.0 172.63157894736844 L 104.0 150.5263157894737 L 104.0 128.42105263157896 L 104.0 106.31578947368422 L 104.0 84.21052631578948 L 104.0 62.10526315789474 L 104.0 40.0" class="worldline"/>
  <circle cx="40.0" cy="460.0" r="4" class="worldline-dot"/>
  <circle cx="40.0" cy="437.89473684210526" r="4" class="worldline-dot"/>
  <circle cx="40.0" cy="415.7894736842105" r="4" class="worldline-dot"/>
  <circle cx="40.0" cy="393.6842105263158" r="4" class="worldline-dot"/>
  <circle cx="104.0" cy="371.57894736842104" r="4" class="worldline-dot"/>
  <circle cx="104.0" cy="349.4736842105263" r="4" class="worldline-dot"/>
  <circle cx="40.0" cy="327.36842105263156" r="4" class="worldline-dot"/>
  <circle cx="40.0" cy="305.2631578947369" r="4" class="worldline-dot"/>
  <circle cx="40.0" cy="283.1578947368421" r="4" class="worldline-dot"/>
  <circle cx="40.0" cy="261.0526315789474" r="4" class="worldline-dot"/>
  <circle cx="104.0" cy="238.94736842105263" r="4" class="worldline-dot"/>
  <circle cx="104.0" cy="216.8421052631579" r="4" class="worldline-dot"/>
  <circle cx="104.0" cy="194.73684210526318" r="4" class="worldline-dot"/>
  <circle cx="104.0" cy="172.63157894736844" r="4" class="worldline-dot"/>
  <circle cx="104.0" cy="150.5263157894737" r="4" class="worldline-dot"/>
  <circle cx="104.0" cy="128.42105263157896" r="4" class="worldline-dot"/>
  <circle cx="104.0" cy="106.31578947368422" r="4" class="worldline-dot"/>
  <circle cx="104.0" cy="84.21052631578948" r="4" class="worldline-dot"/>
  <circle cx="104.0" cy="62.10526315789474" r="4" class="worldline-dot"/>
  <circle cx="104.0" cy="40.0" r="4" class="worldline-dot"/>
  <path d="M 296.0 460.0 L 296.0 437.89473684210526 L 296.0 415.7894736842105 L 296.0 393.6842105263158 L 296.0 371.57894736842104 L 296.0 349.4736842105263 L 296.0 327.36842105263156 L 296.0 305.2631578947369 L 296.0 283.1578947368421 L 296.0 261.0526315789474 L 296.0 238.94736842105263 L 296.0 216.8421052631579 L 296.0 194.73684210526318 L 296.0 172.63157894736844 L 296.0 150.5263157894737 L 296.0 128.42105263157896 L 296.0 106.31578947368422 L 296.0 84.21052631578948 L 296.0 62.10526315789474 L 296.0 40.0" class="worldline"/>
  <circle cx="296.0" cy="460.0" r="4" class="worldline-dot"/>
  <circle cx="296.0" cy="437.89473684210526" r="4" class="worldline-dot"/>
  <circle cx="296.0" cy="415.7894736842105" r="4" class="worldline-dot"/>
  <circle cx="296.0" cy="393.6842105263158" r="4" class="worldline-dot"/>
  <circle cx="296.0" cy="371.57894736842104" r="4" class="worldline-dot"/>
  <circle cx="296.0" cy="349.4736842105263" r="4" class="worldline-dot"/>
  <circle cx="296.0" cy="327.36842105263156" r="4" class="worldline-dot"/>
  <circle cx="296.0" cy="305.2631578947369" r="4" class="worldline-dot"/>
  <circle cx="296.0" cy="283.1578947368421" r="4" class="worldline-dot"/>
  <circle cx="296.0" cy="261.0526315789474" r="4" class="worldline-dot"/>
  <circle cx="296.0" cy="238.94736842105263" r="4" class="worldline-dot"/>
  <circle cx="296.0" cy="216.8421052631579" r="4" class="worldline-dot"/>
  <circle cx="296.0" cy="194.73684210526318" r="4" class="worldline-dot"/>
  <circle cx="296.0" cy="172.63157894736844" r="4" class="worldline-dot"/>
  <circle cx="296.0" cy="150.5263157894737" r="4" class="worldline-dot"/>
  <circle cx="296.0" cy="128.42105263157896" r="4" class="worldline-dot"/>
  <circle cx="296.0" cy="106.31578947368422" r="4" class="worldline-dot"/>
  <circle cx="296.0" cy="84.21052631578948" r="4" class="worldline-dot"/>
  <circle cx="296.0" cy="62.10526315789474" r="4" class="worldline-dot"/>
  <circle cx="296.0" cy="40.0" r="4" class="worldline-dot"/>
  <line x1="30" y1="460" x2="370" y2="460" class="axis"/>
  <line x1="30" y1="460" x2="30" y2="30" class="axis"/>
  <text x="200.0" y="490" class="label" text-anchor="middle">site</text>
  <text x="15" y="250.0" class="label" transform="rotate(-90, 15, 250.0)">τ (imaginary time)</text>
  <text x="40.0" y="480" class="label" text-anchor="middle">1</text>
  <text x="104.0" y="480" class="label" text-anchor="middle">2</text>
  <text x="168.0" y="480" class="label" text-anchor="middle">3</text>
  <text x="232.0" y="480" class="label" text-anchor="middle">4</text>
  <text x="296.0" y="480" class="label" text-anchor="middle">5</text>
  <text x="360.0" y="480" class="label" text-anchor="middle">6</text>
  <text x="20" y="464.0" class="label" text-anchor="end">1</text>
  <text x="20" y="375.57894736842104" class="label" text-anchor="end">5</text>
  <text x="20" y="287.1578947368421" class="label" text-anchor="end">9</text>
  <text x="20" y="198.73684210526318" class="label" text-anchor="end">13</text>
  <text x="20" y="110.31578947368422" class="label" text-anchor="end">17</text>
  <text x="200.0" y="25" class="label" text-anchor="middle" font-weight="bold">TL Spacetime (n=6, n_τ=20, δ=1.62)</text>
</svg>