<?xml version="1.0" encoding="UTF-8"?>
<svg xmlns="http://www.w3.org/2000/svg" width="400" height="500" viewBox="0 0 400 500">
  <style>
    .worldline { stroke: #2563eb; stroke-width: 2; fill: none; }
    .site-dot { fill: #94a3b8; }
    .worldline-dot { fill: #2563eb; }
    .vertex-cup { fill: none; stroke: #16a34a; stroke-width: 2; }
    .vertex-cap { fill: none; stroke: #dc2626; stroke-width: 2; }
    .axis { stroke: #334155; stroke-width: 1; }
    .label { font-family: monospace; font-size: 12px; fill: #334155; }
  </style>
  <rect width="100%" height="100%" fill="white"/>

  <circle cx="40.0" cy="460.0" r="2" class="site-dot"/>
  <circle cx="104.0" cy="460.0" r="2" class="site-dot"/>
  <circle cx="168.0" cy="460.0" r="2" class="site-dot"/>
  <circle cx="232.0" cy="460.0" r="2" class="site-dot"/>
  <circle cx="296.0" cy="460.0" r="2" class="site-dot"/>
  <circle cx="360.0" cy="460.0" r="2" class="site-dot"/>
  <circle cx="40.0" cy="435.29411764705884" r="2" class="site-dot"/>
  <circle cx="104.0" cy="435.29411764705884" r="2" class="site-dot"/>
  <circle cx="168.0" cy="435.29411764705884" r="2" class="site-dot"/>
  <circle cx="232.0" cy="435.29411764705884" r="2" class="site-dot"/>
  <circle cx="296.0" cy="435.29411764705884" r="2" class="site-dot"/>
  <circle cx="360.0" cy="435.29411764705884" r="2" class="site-dot"/>
  <circle cx="40.0" cy="410.5882352941176" r="2" class="site-dot"/>
  <circle cx="104.0" cy="410.5882352941176" r="2" class="site-dot"/>
  <circle cx="168.0" cy="410.5882352941176" r="2" class="site-dot"/>
  <circle cx="232.0" cy="410.5882352941176" r="2" class="site-dot"/>
  <circle cx="296.0" cy="410.5882352941176" r="2" class="site-dot"/>
  <circle cx="360.0" cy="410.5882352941176" r="2" class="site-dot"/>
  <circle cx="40.0" cy="385.88235294117646" r="2" class="site-dot"/>
  <circle cx="104.0" cy="385.88235294117646" r="2" class="site-dot"/>
  <circle cx="168.0" cy="385.88235294117646" r="2" class="site-dot"/>
  <circle cx="232.0" cy="385.88235294117646" r="2" class="site-dot"/>
  <circle cx="296.0" cy="385.88235294117646" r="2" class="site-dot"/>
  <circle cx="360.0" cy="385.88235294117646" r="2" class="site-dot"/>
  <circle cx="40.0" cy="361.1764705882353" r="2" class="site-dot"/>
  <circle cx="104.0" cy="361.1764705882353" r="2" class="site-dot"/>
  <circle cx="168.0" cy="361.1764705882353" r="2" class="site-dot"/>
  <circle cx="232.0" cy="361.1764705882353" r="2" class="site-dot"/>
  <circle cx="296.0" cy="361.1764705882353" r="2" class="site-dot"/>
  <circle cx="360.0" cy="361.1764705882353" r="2" class="site-dot"/>
  <circle cx="40.0" cy="336.47058823529414" r="2" class="site-dot"/>
  <circle cx="104.0" cy="336.47058823529414" r="2" class="site-dot"/>
  <circle cx="168.0" cy="336.47058823529414" r="2" class="site-dot"/>
  <circle cx="232.0" cy="336.47058823529414" r="2" class="site-dot"/>
  <circle cx="296.0" cy="336.47058823529414" r="2" class="site-dot"/>
  <circle cx="360.0" cy="336.47058823529414" r="2" class="site-dot"/>
  <circle cx="40.0" cy="311.7647058823529" r="2" class="site-dot"/>
  <circle cx="104.0" cy="311.7647058823529" r="2" class="site-dot"/>
  <circle cx="168.0" cy="311.7647058823529" r="2" class="site-dot"/>
  <circle cx="232.0" cy="311.7647058823529" r="2" class="site-dot"/>
  <circle cx="296.0" cy="311.7647058823529" r="2" class="site-dot"/>
  <circle cx="360.0" cy="311.7647058823529" r="2" class="site-dot"/>
  <circle cx="40.0" cy="287.05882352941177" r="2" class="site-dot"/>
  <circle cx="104.0" cy="287.05882352941177" r="2" class="site-dot"/>
  <circle cx="168.0" cy="287.05882352941177" r="2" class="site-dot"/>
  <circle cx="232.0" cy="287.05882352941177" r="2" class="site-dot"/>
  <circle cx="296.0" cy="287.05882352941177" r="2" class="site-dot"/>
  <circle cx="360.0" cy="287.05882352941177" r="2" class="site-dot"/>
  <circle cx="40.0" cy="262.3529411764706" r="2" class="site-dot"/>
  <circle cx="104.0" cy="262.3529411764706" r="2" class="site-dot"/>
  <circle cx="168.0" cy="262.3529411764706" r="2" class="site-dot"/>
  <circle cx="232.0" cy="262.3529411764706" r="2" class="site-dot"/>
  <circle cx="296.0" cy="262.3529411764706" r="2" class="site-dot"/>
  <circle cx="360.0" cy="262.3529411764706" r="2" class="site-dot"/>
  <circle cx="40.0" cy="237.6470588235294" r="2" class="site-dot"/>
  <circle cx="104.0" cy="237.6470588235294" r="2" class="site-dot"/>
  <circle cx="168.0" cy="237.6470588235294" r="2" class="site-dot"/>
  <circle cx="232.0" cy="237.6470588235294" r="2" class="site-dot"/>
  <circle cx="296.0" cy="237.6470588235294" r="2" class="site-dot"/>
  <circle cx="360.0" cy="237.6470588235294" r="2" class="site-dot"/>
  <circle cx="40.0" cy="212.94117647058823" r="2" class="site-dot"/>
  <circle cx="104.0" cy="212.94117647058823" r="2" class="site-dot"/>
  <circle cx="168.0" cy="212.94117647058823" r="2" class="site-dot"/>
  <circle cx="232.0" cy="212.94117647058823" r="2" class="site-dot"/>
  <circle cx="296.0" cy="212.94117647058823" r="2" class="site-dot"/>
  <circle cx="360.0" cy="212.94117647058823" r="2" class="site-dot"/>
  <circle cx="40.0" cy="188.23529411764707" r="2" class="site-dot"/>
  <circle cx="104.0" cy="188.23529411764707" r="2" class="site-dot"/>
  <circle cx="168.0" cy="188.23529411764707" r="2" class="site-dot"/>
  <circle cx="232.0" cy="188.23529411764707" r="2" class="site-dot"/>
  <circle cx="296.0" cy="188.23529411764707" r="2" class="site-dot"/>
  <circle cx="360.0" cy="188.23529411764707" r="2" class="site-dot"/>
  <circle cx="40.0" cy="163.52941176470586" r="2" class="site-dot"/>
  <circle cx="104.0" cy="163.52941176470586" r="2" class="site-dot"/>
  <circle cx="168.0" cy="163.52941176470586" r="2" class="site-dot"/>
  <circle cx="232.0" cy="163.52941176470586" r="2" class="site-dot"/>
  <circle cx="296.0" cy="163.52941176470586" r="2" class="site-dot"/>
  <circle cx="360.0" cy="163.52941176470586" r="2" class="site-dot"/>
  <circle cx="40.0" cy="138.8235294117647" r="2" class="site-dot"/>
  <circle cx="104.0" cy="138.8235294117647" r="2" class="site-dot"/>
  <circle cx="168.0" cy="138.8235294117647" r="2" class="site-dot"/>
  <circle cx="232.0" cy="138.8235294117647" r="2" class="site-dot"/>
  <circle cx="296.0" cy="138.8235294117647" r="2" class="site-dot"/>
  <circle cx="360.0" cy="138.8235294117647" r="2" class="site-dot"/>
  <circle cx="40.0" cy="114.11764705882354" r="2" class="site-dot"/>
  <circle cx="104.0" cy="114.11764705882354" r="2" class="site-dot"/>
  <circle cx="168.0" cy="114.11764705882354" r="2" class="site-dot"/>
  <circle cx="232.0" cy="114.11764705882354" r="2" class="site-dot"/>
  <circle cx="296.0" cy="114.11764705882354" r="2" class="site-dot"/>
  <circle cx="360.0" cy="114.11764705882354" r="2" class="site-dot"/>
  <circle cx="40.0" cy="89.41176470588232" r="2" class="site-dot"/>
  <circle cx="104.0" cy="89.41176470588232" r="2" class="site-dot"/>
  <circle cx="168.0" cy="89.41176470588232" r="2" class="site-dot"/>
  <circle cx="232.0" cy="89.41176470588232" r="2" class="site-dot"/>
  <circle cx="296.0" cy="89.41176470588232" r="2" class="site-dot"/>
  <circle cx="360.0" cy="89.41176470588232" r="2" class="site-dot"/>
  <circle cx="40.0" cy="64.70588235294116" r="2" class="site-dot"/>
  <circle cx="104.0" cy="64.70588235294116" r="2" class="site-dot"/>
  <circle cx="168.0" cy="64.70588235294116" r="2" class="site-dot"/>
  <circle cx="232.0" cy="64.70588235294116" r="2" class="site-dot"/>
  <circle cx="296.0" cy="64.70588235294116" r="2" class="site-dot"/>
  <circle cx="360.0" cy="64.70588235294116" r="2" class="site-dot"/>
  <circle cx="40.0" cy="40.0" r="2" class="site-dot"/>
  <circle cx="104.0" cy="40.0" r="2" class="site-dot"/>
  <circle cx="168.0" cy="40.0" r="2" class="site-dot"/>
  <circle cx="232.0" cy="40.0" r="2" class="site-dot"/>
  <circle cx="296.0" cy="40.0" r="2" class="site-dot"/>
  <circle cx="360.0" cy="40.0" r="2" class="site-dot"/>
  <path d="M 104.0 385.88235294117646" class="worldline"/>
  <circle cx="104.0" cy="385.88235294117646" r="4" class="worldline-dot"/>
  <path d="M 168.0 385.88235294117646" class="worldline"/>
  <circle cx="168.0" cy="385.88235294117646" r="4" class="worldline-dot"/>
  <path d="M 296.0 40.0" class="worldline"/>
  <circle cx="296.0" cy="40.0" r="4" class="worldline-dot"/>
  <path d="M 360.0 40.0" class="worldline"/>
  <circle cx="360.0" cy="40.0" r="4" class="worldline-dot"/>
  <path d="M 104.0 385.88235294117646 Q 136.0 373.52941176470586 168.0 385.88235294117646" class="vertex-cup"/>
  <path d="M 104.0 355.0 Q 136.0 367.3529411764706 168.0 355.0" class="vertex-cap"/>
  <path d="M 296.0 40.0 Q 328.0 27.64705882352941 360.0 40.0" class="vertex-cup"/>
  <line x1="30" y1="460" x2="370" y2="460" class="axis"/>
  <line x1="30" y1="460" x2="30" y2="30" class="axis"/>
  <text x="200.0" y="490" class="label" text-anchor="middle">site</text>
  <text x="15" y="250.0" class="label" transform="rotate(-90, 15, 250.0)">τ (imaginary time)</text>
  <text x="40.0" y="480" class="label" text-anchor="middle">1</text>
  <text x="104.0" y="480" class="label" text-anchor="middle">2</text>
  <text x="168.0" y="480" class="label" text-anchor="middle">3</text>
  <text x="232.0" y="480" class="label" text-anchor="middle">4</text>
  <text x="296.0" y="480" class="label" text-anchor="middle">5</text>
  <text x="360.0" y="480" class="label" text-anchor="middle">6</text>
  <text x="20" y="464.0" class="label" text-anchor="end">1</text>
  <text x="20" y="389.88235294117646" class="label" text-anchor="end">4</text>
  <text x="20" y="315.7647058823529" class="label" text-anchor="end">7</text>
  <text x="20" y="241.6470588235294" class="label" text-anchor="end">10</text>
  <text x="20" y="167.52941176470586" class="label" text-anchor="end">13</text>
  <text x="20" y="93.41176470588232" class="label" text-anchor="end">16</text>
  <text x="200.0" y="25" class="label" text-anchor="middle" font-weight="bold">TL Spacetime (n=6, n_τ=18, δ=1.41)</text>
</svg>